<?xml version="1.0" encoding="utf-8"?>
<!-- Generator: Adobe Illustrator 12.0.0, SVG Export Plug-In  -->
<!DOCTYPE svg PUBLIC "-//W3C//DTD SVG 1.1//EN" "http://www.w3.org/Graphics/SVG/1.1/DTD/svg11.dtd" [
	<!ENTITY ns_flows "http://ns.adobe.com/Flows/1.0/">
	<!ENTITY ns_svg "http://www.w3.org/2000/svg">
	<!ENTITY ns_xlink "http://www.w3.org/1999/xlink">
]>
<svg version="1.1" xmlns="&ns_svg;" xmlns:xlink="&ns_xlink;" xmlns:a="http://ns.adobe.com/AdobeSVGViewerExtensions/3.0/"
	 width="112" height="71" viewBox="-0.7 -0.2 112 71" style="enable-background:new -0.7 -0.2 112 71;" xml:space="preserve">
<style type="text/css">
<![CDATA[
	.st0{fill:#FF0000;}
]]>
</style>
<polygon class="st0" points="4.2,54.9 9.6,54.9 9.6,58.7 4.2,58.7 4.2,69.7 0,69.7 0,43 11.1,43 11.1,46.8 4.2,46.8 "/>
<path class="st0" d="M17,63.6c0,1.9,0.8,2.6,2.2,2.6s2.2-0.7,2.2-2.6V49.1c0-1.9-0.8-2.6-2.2-2.6S17,47.2,17,49.1V63.6z M12.8,49.4
	c0-4.3,2.3-6.7,6.4-6.7c4.1,0,6.4,2.4,6.4,6.7v13.9c0,4.3-2.3,6.7-6.4,6.7c-4.1,0-6.4-2.4-6.4-6.7V49.4z"/>
<path class="st0" d="M32.1,63.6c0,1.9,0.8,2.6,2.2,2.6s2.2-0.7,2.2-2.6V49.1c0-1.9-0.8-2.6-2.2-2.6s-2.2,0.7-2.2,2.6V63.6z
	 M27.9,49.4c0-4.3,2.3-6.7,6.4-6.7c4.1,0,6.4,2.4,6.4,6.7v13.9c0,4.3-2.3,6.7-6.4,6.7c-4.1,0-6.4-2.4-6.4-6.7V49.4z"/>
<path class="st0" d="M47.5,46.8v19.1h2.4c1.3,0,2.1-0.7,2.1-2.6V49.4c0-1.9-0.8-2.6-2.1-2.6H47.5z M43.3,43H50
	c4.2,0,6.3,2.3,6.3,6.6v13.5c0,4.3-2.1,6.6-6.3,6.6h-6.6V43z"/>
<polygon class="st0" points="64.4,59.1 63.1,61.5 63.1,69.7 58.9,69.7 58.9,43 63.1,43 63.1,54.6 68.6,43 72.8,43 66.9,54.9 
	72.8,69.7 68.5,69.7 "/>
<rect x="74.7" y="43" class="st0" width="4.2" height="26.7"/>
<path class="st0" d="M94.1,59.7v3.5c0,4.3-2.1,6.7-6.3,6.7s-6.3-2.4-6.3-6.7V49.4c0-4.3,2.1-6.7,6.3-6.7s6.3,2.4,6.3,6.7V52h-4v-2.9
	c0-1.9-0.8-2.6-2.2-2.6s-2.2,0.7-2.2,2.6v14.4c0,1.9,0.8,2.6,2.2,2.6s2.2-0.7,2.2-2.6v-3.8H94.1z"/>
<polygon class="st0" points="102.1,59.1 100.9,61.5 100.9,69.7 96.7,69.7 96.7,43 100.9,43 100.9,54.6 106.3,43 110.5,43 
	104.7,54.9 110.5,69.7 106.2,69.7 "/>
<path class="st0" d="M73.9,18.2c-0.3,0-0.5,0.2-0.6,0.4c0,0.1-0.1,0.3-0.1,0.4c0,0.2,0.1,0.5,0.2,0.7c0.1,0.2,0.3,0.3,0.5,0.3h0
	c0.1,0,0.3,0,0.4-0.1c0,0,0.1,0,0.1,0c0.1,0,0.2,0.1,0.3,0.2c0.2,0.2,0.4,0.4,0.5,0.7c0,0,0,0.1,0.1,0.1C75.2,21,75,21,74.8,21
	c-0.3,0.1-0.5,0.2-0.8,0.3c-0.4,0.2-0.7,0.5-1,0.9c-0.2,0.3-0.3,0.6-0.4,0.9c-0.2,0.5-0.3,1-0.4,1.5c-0.1,0.5-0.2,1.1-0.4,1.6
	c-0.1,0.5-0.3,0.8-0.6,1.1c-0.2,0.2-0.4,0.5-0.7,0.7c-0.4,0.3-0.8,0.7-1.2,1.2c-0.2,0.2-0.4,0.5-0.6,0.8c-0.2,0.3-0.3,0.6-0.4,1
	c-0.1,0.5-0.2,0.9-0.2,1.4c0,0.7,0.1,1.3,0.4,1.9c0.4,0.9,0.9,1.7,1.7,2.3c0.3,0.3,0.6,0.5,0.9,0.7h-9.8h-1.8h-0.1
	c-0.1,0-0.1,0-0.2,0c-0.2,0.1-0.4,0.3-0.4,0.6c0,0.3,0.3,0.6,0.6,0.6h0.2h13.5c0.2,0,0.4-0.1,0.5-0.3c0.1-0.2,0.1-0.4,0-0.6
	l-0.2-0.3c-0.1-0.1-0.2-0.2-0.3-0.2c-1-0.4-2-1-2.7-1.8c-0.3-0.4-0.6-0.8-0.8-1.3c-0.2-0.5-0.3-1-0.3-1.5c0-0.4,0-0.7,0.1-1.1
	c0.1-0.5,0.3-0.8,0.6-1.1c0.2-0.2,0.4-0.5,0.7-0.7c0.4-0.3,0.8-0.7,1.2-1.1c0.2-0.2,0.4-0.5,0.6-0.8c0.2-0.3,0.3-0.6,0.4-1
	c0.2-0.7,0.3-1.3,0.4-1.9c0.1-0.4,0.2-0.8,0.3-1.1c0.1-0.2,0.2-0.4,0.3-0.6c0.2-0.3,0.4-0.4,0.7-0.6c0.3-0.1,0.6-0.2,1.2-0.2
	c0,0,0,0,0.1,0l0,0c0.1,0,0.2,0,0.3,0c0,0,0,0,0,0c0,0,0,0,0,0c0,0,0,0,0.1,0c0.5,0,0.8,0.2,1.1,0.3c0.2,0.1,0.3,0.2,0.4,0.3
	c0.2,0.2,0.3,0.4,0.4,0.7s0.1,0.6,0.1,0.9c0,0.3,0,0.6-0.1,0.9c0,0.1,0,0.3,0,0.4c0,0.1,0,0.3,0,0.4c0,0.1,0,0.1,0,0.2
	c0,0.1,0,0.1,0,0.2c0.2,0.5,0.3,0.9,0.5,1.2c0.1,0.2,0.3,0.4,0.4,0.6c0.1,0.1,0.2,0.2,0.3,0.3c0.2,0.1,0.3,0.3,0.5,0.5
	c0.2,0.2,0.4,0.4,0.7,0.6c0.4,0.5,0.7,0.9,0.9,1.3c0.2,0.4,0.3,0.8,0.3,1.2c0,0.5-0.1,0.9-0.3,1.4c-0.3,0.7-0.9,1.3-1.5,1.9
	c-0.7,0.6-1.5,1.1-2.3,1.5c-0.1,0-0.2,0.1-0.2,0.2l-0.2,0.3c-0.1,0.2-0.1,0.4,0,0.6c0.1,0.2,0.3,0.3,0.5,0.3h6
	c0.3,0,0.6-0.3,0.6-0.6c0-0.3-0.3-0.6-0.6-0.6h-4.1c0.7-0.5,1.4-1,1.9-1.6c0.5-0.5,0.8-1,1.1-1.6c0.3-0.6,0.4-1.2,0.4-1.9
	c0-0.6-0.1-1.1-0.4-1.7c-0.3-0.6-0.6-1.1-1.2-1.7c-0.4-0.4-0.6-0.6-0.9-0.8c-0.2-0.1-0.3-0.3-0.4-0.4c-0.2-0.2-0.3-0.3-0.4-0.5
	c-0.1-0.2-0.3-0.5-0.4-1.1c0,0,0,0,0,0c0-0.1,0-0.2,0-0.3c0-0.2,0-0.4,0.1-0.6c0-0.2,0-0.5,0-0.8c0-0.3,0-0.7-0.1-1.1
	c-0.1-0.3-0.2-0.5-0.3-0.8c-0.1-0.3-0.3-0.5-0.6-0.7c0,0,0.1,0,0.1,0l0,0c0.5-0.1,1-0.3,1.5-0.5c0.2-0.1,0.5-0.3,0.7-0.5
	c0.2-0.2,0.4-0.4,0.6-0.7c0.1-0.2,0.1-0.4,0-0.6c-0.3-0.4-0.7-0.7-1.1-0.9c-0.4-0.2-0.8-0.2-1.2-0.2c-0.3,0-0.6,0-0.9,0.1
	c-0.6,0.1-1.1,0.4-1.5,0.6c-0.2,0.1-0.4,0.3-0.6,0.4c0,0,0,0,0,0c-0.3-0.3-0.6-0.6-0.9-0.8C74.7,18.4,74.4,18.3,73.9,18.2
	C74,18.2,73.9,18.2,73.9,18.2 M76.6,20.4c0.2-0.2,0.5-0.3,0.7-0.5c0.3-0.2,0.7-0.4,1.1-0.5c0.2,0,0.4-0.1,0.7-0.1h0
	c0.3,0,0.6,0,0.8,0.1c0.1,0,0.2,0.1,0.3,0.2c0,0-0.1,0.1-0.1,0.1c-0.2,0.2-0.4,0.3-0.7,0.5c-0.3,0.1-0.6,0.2-0.9,0.3h0
	c-0.2,0-0.4,0.1-0.7,0.1h0h0c-0.3,0-0.5,0-0.7-0.1C76.8,20.6,76.7,20.5,76.6,20.4C76.7,20.5,76.7,20.5,76.6,20.4"/>
<path class="st0" d="M48,27.7H27.5c-0.3,0-0.5,0.2-0.6,0.5c-0.1,0.4-0.1,0.8-0.1,1.2c0,1.1,0.3,2.3,0.8,3.3c0.7,1.6,1.6,2.9,2.5,4
	c0.2,0.2,0.4,0.5,0.5,0.7h1.3c0.3,0,0.6,0.3,0.6,0.6c0,0.2-0.1,0.4-0.3,0.5c0.1,0,0.1-0.1,0.2-0.1c0.2-0.2,0.2-0.6,0-0.8l0,0
	c0,0-1.1-1.1-2.2-2.7c-0.5-0.8-1.1-1.7-1.5-2.6c-0.4-0.9-0.6-1.9-0.6-2.8c0-0.2,0-0.3,0-0.5h19.5c-0.1,1.3-0.3,2.5-0.7,3.5
	c-0.6,1.7-1.6,3-2.4,3.8c-0.4,0.4-0.8,0.7-1,0.9c-0.1,0.1-0.2,0.2-0.3,0.2c0,0-0.1,0-0.1,0l0,0l0,0c-0.2,0.1-0.3,0.4-0.3,0.7
	s0.3,0.4,0.6,0.4h8.5h0c0.3,0,0.6-0.3,0.6-0.6c0-0.3-0.3-0.6-0.6-0.6h-1.5h-5.3c0.4-0.4,0.8-0.8,1.2-1.3c0.6-0.8,1.3-1.8,1.7-3.1
	c0.5-1.3,0.8-2.8,0.8-4.5c0-0.2-0.1-0.3-0.2-0.4C48.3,27.8,48.2,27.7,48,27.7"/>
<path class="st0" d="M31.8,37.3h-1.3h-3.1c-0.3,0-0.6,0.3-0.6,0.6c0,0.3,0.3,0.6,0.6,0.6h4.4c0.1,0,0.2,0,0.3-0.1
	c0.2-0.1,0.3-0.3,0.3-0.5C32.4,37.6,32.2,37.3,31.8,37.3"/>
<path class="st0" d="M57,0L57,0h-2.4c-0.4,0-0.8,0.2-1,0.4c-0.3,0.3-0.4,0.6-0.4,1v0.5c0,0.4,0.2,0.8,0.4,1c0,0,0.1,0.1,0.1,0.1
	c-0.1,0.1-0.1,0.2-0.1,0.3c0,1,0,2.2,0,3.3c0,0.7,0,1.3,0,1.8c0,0.3,0,0.5,0,0.7c0,0.2,0,0.4,0,0.5c-0.1,0.7-0.2,1.5-0.5,2.1
	c-0.1,0.3-0.3,0.7-0.5,0.9c-0.2,0.3-0.4,0.5-0.5,0.6c-0.3,0.2-0.5,0.4-0.7,0.6c-0.2,0.2-0.4,0.3-0.5,0.5c-0.2,0.3-0.4,0.7-0.5,1.2
	C50.1,16,50,16.5,50,17.3c0,0.6,0,2.1,0,3.9c0,5.5-0.1,14.4-0.1,14.4v0c0,0.4,0,0.7,0.1,1.1c0.1,0.2,0.1,0.4,0.2,0.6h1.5
	c0.3,0,0.6,0.3,0.6,0.6c0,0.3-0.3,0.6-0.6,0.6h0c0.1,0,0.1,0,0.2,0c0,0,0,0,0,0c0.3,0,0.6-0.2,0.6-0.6c0-0.3-0.2-0.6-0.6-0.6
	c-0.1,0-0.3,0-0.4-0.1c-0.1,0-0.1-0.1-0.2-0.2c-0.1-0.1-0.2-0.3-0.3-0.5c-0.1-0.2-0.1-0.5-0.1-0.9c0,0,0-0.3,0-0.7
	c0-1.5,0-5.4,0.1-9.1c0-1.9,0-3.7,0-5.2c0-1.5,0-2.7,0-3.2c0-0.6,0.1-1.1,0.1-1.4c0.1-0.3,0.1-0.5,0.2-0.6c0.1-0.2,0.2-0.4,0.4-0.6
	c0.2-0.2,0.4-0.3,0.7-0.6c0.3-0.2,0.6-0.6,0.8-0.9c0.3-0.5,0.6-1.1,0.8-1.8c0.2-0.6,0.3-1.3,0.4-1.8c0-0.1,0-0.3,0-0.5
	c0-0.6,0-1.5,0-2.5c0-0.9,0-1.8,0-2.7h2.1c0,0.9,0,1.8,0,2.7c0,0.7,0,1.3,0,1.8c0,0.3,0,0.5,0,0.7c0,0.2,0,0.4,0,0.5
	c0.1,0.8,0.3,1.6,0.6,2.4c0.2,0.4,0.3,0.8,0.6,1.1c0.2,0.4,0.5,0.7,0.8,0.9c0.3,0.2,0.5,0.4,0.7,0.5c0.1,0.1,0.2,0.2,0.3,0.3
	c0.1,0.2,0.2,0.4,0.3,0.8c0.1,0.4,0.2,0.8,0.2,1.5c0,0.4,0,1.3,0,2.4c0,1.1,0,2.4,0,3.9c0,2.7,0,5.6,0,7.9c0,1.2,0,2.1,0,2.8
	c0,0.4,0,0.6,0,0.8c0,0.2,0,0.3,0,0.3v0c0,0.1,0,0.2,0,0.3c0,0.3,0,0.6-0.1,0.8c0,0.2-0.1,0.3-0.1,0.3c0,0.1-0.1,0.1-0.1,0.1
	c-0.1,0.1-0.1,0.1-0.3,0.1c-0.1,0-0.2,0-0.3,0.1h1.8c0.1-0.2,0.1-0.4,0.2-0.6c0-0.3,0.1-0.6,0.1-0.9c0-0.1,0-0.2,0-0.3
	c0-0.3,0-6.7,0-11.9c0-1.4,0-2.8,0-3.9c0-1.1,0-1.9,0-2.4c0-0.7-0.1-1.2-0.2-1.6c-0.1-0.3-0.2-0.6-0.3-0.9c-0.2-0.4-0.4-0.7-0.7-0.9
	c-0.3-0.2-0.5-0.4-0.8-0.6c-0.2-0.1-0.4-0.3-0.5-0.6c-0.3-0.4-0.5-0.9-0.6-1.5S58.1,10,58,9.5c0-0.1,0-0.3,0-0.5c0-0.6,0-1.5,0-2.5
	c0-1.1,0-2.2,0-3.2c0-0.1,0-0.2-0.1-0.3C58,3.1,58,3,58,3c0.3-0.3,0.4-0.6,0.4-1V1.5c0-0.4-0.2-0.8-0.4-1C57.8,0.2,57.4,0,57,0
	 M54.6,2.2L54.6,2.2c-0.1,0-0.2,0-0.2-0.1c-0.1-0.1-0.1-0.1-0.1-0.2V1.5c0-0.1,0-0.2,0.1-0.2c0.1-0.1,0.1-0.1,0.2-0.1H57
	c0.1,0,0.2,0,0.2,0.1c0.1,0.1,0.1,0.1,0.1,0.2v0.5c0,0.1,0,0.2-0.1,0.2c-0.1,0.1-0.1,0.1-0.2,0.1H54.6z M59.3,37.3
	C59.3,37.3,59.2,37.3,59.3,37.3c-0.4,0-0.6,0.3-0.6,0.6c0,0.3,0.3,0.6,0.6,0.6c0,0,0,0,0,0c0.1,0,0.2,0,0.3,0h-0.2
	c-0.3,0-0.6-0.3-0.6-0.6C58.9,37.6,59,37.3,59.3,37.3"/>
</svg>
