<?xml version="1.0" standalone="no"?>
<!DOCTYPE svg PUBLIC "-//W3C//DTD SVG 1.1//EN" "http://www.w3.org/Graphics/SVG/1.1/DTD/svg11.dtd" >
<svg xmlns="http://www.w3.org/2000/svg">
<metadata>
This is a custom SVG webfont generated by Font Squirrel.
Copyright   : Copyright c The Font Bureau Inc 1994 All rights reserved
</metadata>
<defs>
<font id="webfontXlJgVHrD" horiz-adv-x="1746" >
<font-face units-per-em="2048" ascent="1638" descent="-410" />
<missing-glyph horiz-adv-x="458" />
<glyph unicode=" "  horiz-adv-x="458" />
<glyph unicode="&#x09;" horiz-adv-x="458" />
<glyph unicode="&#xa0;" horiz-adv-x="458" />
<glyph unicode="!" horiz-adv-x="761" d="M133 766q-4 229 0 641q0 20 21 20q268 6 452 0q18 0 19 -24q12 -266 6 -637q0 -12 -57.5 -166t-67.5 -154q-186 -4 -250 0q-10 0 -66.5 151t-56.5 169zM145 0q-8 360 0 360q485 0 486 -4q0 -262 -2 -309t-11 -47h-473z" />
<glyph unicode="&#x22;" horiz-adv-x="868" d="M111 1395q0 18 131 18q133 0 133 -18q0 -76 -4 -207t-4 -194.5t-48.5 -104.5t-77 -41t-76.5 41t-48 104.5t-3 194.5t-3 207zM520 1395q0 18 131 18q133 0 133 -18q0 -76 -4 -207t-4 -194.5t-48 -104.5t-76.5 -41t-77 41t-48.5 104.5t-3 194.5t-3 207z" />
<glyph unicode="#" horiz-adv-x="1452" d="M39 418v184q0 29 18 29h238l27 155h-224q-23 0 -22 23v188q0 8 9 17.5t17 9.5h260l62 342q6 31 27 31h274q6 0 12 -9.5t4 -15.5l-57 -348h195q41 225 61 350q4 23 31 23h270q6 0 13.5 -8.5t5.5 -14.5l-62 -350h199q6 0 13 -6t7 -17v-188q0 -8 -8 -17.5t-16 -9.5h-236 l-27 -155h224q25 0 24 -23v-186q0 -8 -8 -17.5t-16 -9.5h-264l-68 -377q-4 -29 -39 -28h-256q-6 0 -16.5 9t-8.5 17l66 379h-195l-67 -377q-4 -29 -33 -28h-270q-4 0 -10.5 8t-4.5 14l66 383h-195q-6 0 -13 6.5t-7 16.5zM614 631h195l29 155h-195z" />
<glyph unicode="$" horiz-adv-x="1378" d="M43 225q-14 25 0 33q117 76 258 156q14 6 25 -8q96 -109 256 -146v242l-47 8q-221 35 -348.5 146.5t-123.5 301.5q4 205 139.5 310.5t344.5 130.5l35 2v74h155v-74q158 0 299 -74q45 -23 98.5 -68t75.5 -75q16 -20 7 -27q-193 -106 -289 -166q-2 0 -13.5 12.5t-31 30 t-33.5 27.5q-61 41 -113 51v-225l62 -8q244 -29 381 -137.5t137 -297.5q0 -115 -46 -203.5t-126 -143t-170 -84t-193 -38.5l-45 -4v-127h-155v119q-141 8 -279 66q-80 35 -158.5 95t-101.5 101zM422 1018q0 -82 137 -109l23 -2v213q-76 -8 -118 -34.5t-42 -67.5zM737 256 q188 8 189 111q0 100 -152 114l-37 4v-229z" />
<glyph unicode="%" horiz-adv-x="1689" d="M47 1018q0 158 109.5 264.5t279.5 106.5q168 0 276.5 -106.5t108.5 -264.5t-107.5 -264.5t-275.5 -106.5q-170 0 -280.5 105.5t-110.5 265.5zM250 68l724 855q357 435 355 484q35 -10 70 -37q35 -23 71 -37l-668 -821q-388 -494 -411 -545q-29 2 -86 42.5t-55 58.5z M326 1018q0 -41 32.5 -74t73.5 -33t74 33t33 74t-33 73.5t-74 32.5t-73.5 -32.5t-32.5 -73.5zM866 356q0 156 110.5 262.5t278.5 106.5t276.5 -105.5t108.5 -263t-108.5 -264t-276.5 -106.5t-278.5 105t-110.5 265zM1145 354q0 -43 31.5 -74.5t72.5 -31.5t74 31.5t33 74.5 q0 41 -33 73t-74 32t-72.5 -32t-31.5 -73z" />
<glyph unicode="&#x26;" horiz-adv-x="1583" d="M66 358q0 143 92 256t231 185l49 26l-16 33q-55 115 -55 203q0 170 136 267t326 97q131 0 228.5 -33.5t189.5 -117.5q29 -29 13 -45l-166 -180q-16 -20 -43 10q-43 49 -111 49q-49 0 -79 -24.5t-30 -63.5q0 -55 99 -197l137 -192q78 133 96 176q2 8 85 -25.5t169 -76.5 q18 -8 21.5 -19.5t-8.5 -36.5q-90 -184 -177 -287l236 -309q45 -53 4 -53h-479l-66 82l-45 -35q-53 -43 -154.5 -70.5t-207.5 -27.5q-227 0 -351 114.5t-124 294.5zM485 397q0 -53 39 -92t99 -39q31 0 75.5 17.5t69.5 35.5l-166 240q-47 -16 -82 -64.5t-35 -97.5z" />
<glyph unicode="'" horiz-adv-x="577" d="M154 1399q0 20 135 20t135 -20q0 -68 -1 -136.5t-3 -149.5t-2 -126q-2 -63 -51.5 -107t-78 -44t-76.5 44t-52 107q-6 133 -6 412z" />
<glyph unicode="(" horiz-adv-x="745" d="M113 578q0 258 104.5 486t261.5 402q6 8 119 -45l38 -19q17 -9 31.5 -18.5t22.5 -15.5t6 -8q-117 -203 -175 -382t-58 -400q0 -213 60.5 -392.5t168.5 -384.5q4 -6 -37 -28q-14 -8 -73 -39q-98 -51 -107 -41q-362 441 -362 885z" />
<glyph unicode=")" horiz-adv-x="745" d="M49 -201q117 203 175.5 382t58.5 401q0 213 -60.5 392t-169.5 384q-4 6 37 28q14 8 74 39q98 51 106 41q362 -440 363 -884q0 -258 -104.5 -486.5t-262.5 -402.5q-6 -8 -119 45l-37 19q-17 9 -32 18.5t-23 15.5t-6 8z" />
<glyph unicode="*" horiz-adv-x="1044" d="M76 1030q31 90 43 139q4 12 22 11l246 -27l51 246q2 12 21 12h137q16 0 18 -12l52 -246l245 27q18 2 23 -11l43 -139q4 -10 -6 -16l-226 -115l103 -235q8 -16 -4 -25l-117 -82q-8 -8 -18 2l-183 186l-182 -186q-10 -10 -18 -2l-115 82q-10 6 -11 9t5 16l104 235l-227 115 q-10 6 -6 16z" />
<glyph unicode="+" horiz-adv-x="1241" d="M102 541v252q0 25 29 24h334v344q0 31 24 31h273q10 0 14 -1t7 -7t3 -23v-344h332q31 0 31 -24v-252q0 -25 -31 -25h-332v-344q0 -18 -4 -23.5t-20 -5.5h-273q-25 0 -24 29v344h-334q-18 0 -23.5 4.5t-5.5 20.5z" />
<glyph unicode="," horiz-adv-x="679" d="M133 -184v608q0 14 3 17t14 3h458q8 0 8 -22q0 -29 -4 -37l-172 -313t-145 -262q-8 -12 -88 -13q-74 1 -74 19z" />
<glyph unicode="-" horiz-adv-x="921" d="M102 387v373q0 25 29 24h657q31 0 31 -24v-373q0 -25 -31 -25h-657q-18 0 -23.5 4.5t-5.5 20.5z" />
<glyph unicode="." horiz-adv-x="720" d="M133 33v385q0 20 7 26.5t28 6.5h389q33 0 33 -35v-385q0 -18 -5 -24.5t-24 -6.5h-395q-18 0 -25.5 6.5t-7.5 26.5z" />
<glyph unicode="/" horiz-adv-x="892" d="M-16 6q68 162 334 694.5t350 726.5q10 25 14 28t20 -3q8 -2 55 -19l84 -32q38 -14 48 -23q12 -6 6 -20q-4 -10 -6 -17q-86 -209 -341 -713.5t-343 -703.5l-6 -15q-2 -5 -8 -5h-6q-1 0 -9 2q-43 14 -119.5 52t-72.5 48z" />
<glyph unicode="0" horiz-adv-x="1497" d="M68 694q2 207 70.5 369t223 264.5t377.5 102.5q221 0 381 -104.5t235 -269.5t75 -366q0 -315 -175.5 -524t-504.5 -209q-324 0 -504 212t-178 525zM561 713q0 -352 193 -353q188 0 188 324q0 346 -201 346q-180 0 -180 -317z" />
<glyph unicode="1" horiz-adv-x="780" d="M152 29v1202q0 20 24 29q188 82 412 163q20 8 26.5 8.5t8.5 -6t2 -30.5v-1366q0 -20 -5.5 -24.5t-31.5 -4.5h-400q-25 0 -30.5 5.5t-5.5 23.5z" />
<glyph unicode="2" horiz-adv-x="1327" d="M70 17.5q0 15.5 4 21.5q289 289 409 424q164 184 231.5 281.5t67.5 181.5q0 68 -45 106.5t-112 38.5q-195 0 -207 -223q-2 -25 -21 -14q-82 43 -295 184q-16 12 -8 35q127 379 608 379q260 0 413 -112t153 -298q0 -195 -201 -383q-86 -80 -356 -277q12 0 232 12.5 t308 12.5q25 0 25 -22q8 -172 2 -336q0 -18 -6 -23.5t-31 -5.5h-1165q-6 2 -6 17.5z" />
<glyph unicode="3" horiz-adv-x="1327" d="M31 338q0 31 16 35l393 125q14 4 17.5 -1t1.5 -26q-18 -94 32 -150.5t142 -56.5q84 0 130 46t46 120q0 106 -82 175t-227 83q-6 0 -6 20.5t6 22.5q111 35 195.5 96.5t84.5 149.5q0 68 -46 107.5t-111 39.5q-164 0 -189 -155q-8 -57 -14 -60h-6q-41 12 -171 56.5 t-177 58.5q-25 8 -19 33q41 180 209 273t420 93q248 0 395.5 -95t147.5 -273q0 -96 -61.5 -186.5t-153.5 -123.5q145 -43 215.5 -138t70.5 -218q0 -209 -178 -322.5t-522 -113.5q-231 0 -394 113.5t-165 271.5z" />
<glyph unicode="4" horiz-adv-x="1390" d="M0 238v231q0 10 29 41l860 868q25 20 37 21h245q12 0 14.5 -2t2.5 -15v-4v-846h198q23 0 23 -22v-270q0 -20 -31 -21h-186v-213q0 -23 -2 -26t-19 -3h-391q-16 0 -19 3.5t-3 25.5v213h-742q-16 7 -16 19zM426 524h332l8 340z" />
<glyph unicode="5" horiz-adv-x="1314" d="M14 333q4 7 25 15q147 51 330 133q27 12 33 12.5t12 -14.5q2 -4 2 -6q61 -156 198 -156q76 0 125 47.5t49 120.5q0 90 -61 137.5t-178 47.5q-184 0 -397 -101q-6 -2 -27 19q-16 16 -16 22l27 311q24 265 36 443q2 16 5 20.5t22 4.5h936q14 0 16 -4.5t0 -24.5l-23.5 -159 t-17.5 -124q-4 -18 -25 -18h-585l-19 -139q135 35 242 34q102 0 198.5 -28.5t178.5 -84t131 -147.5t49 -207q0 -248 -181 -395t-452 -147q-479 0 -631 362q-6 19 -2 26z" />
<glyph unicode="6" horiz-adv-x="1398" d="M53 664q0 205 81 376.5t246 280.5t386 109q375 0 518 -273q12 -25 -10 -33l-320 -131q-16 -6 -28 15q-35 47 -73 67.5t-99 20.5q-113 0 -174.5 -82t-49.5 -207q96 92 318 92q211 0 356.5 -118.5t145.5 -336.5q0 -219 -172 -355t-433 -136q-301 0 -496.5 188.5 t-195.5 522.5zM549 449q0 -70 48 -114t116 -44q70 0 114.5 46t44.5 122q0 78 -45 126t-114 48q-82 0 -123 -51t-41 -133z" />
<glyph unicode="7" horiz-adv-x="1110" d="M14 1030q10 68 29 178l25 150q4 29 8 28q4 2 16 3h1041q2 0 2 -56l-471 -1384q-18 -14 -23 -15h-473q-18 0 -20.5 2.5t6.5 18.5l265 517q208 409 292 560q-31 0 -298.5 -8t-381.5 -12q-19 0 -17 18z" />
<glyph unicode="8" horiz-adv-x="1386" d="M55 373q0 145 70 237t192 123q-231 94 -231 305q0 193 160 294.5t465 99.5q563 -4 563 -383q0 -100 -63.5 -177t-149.5 -110q125 -33 205 -133.5t80 -235.5q0 -217 -188.5 -326.5t-504.5 -109.5q-276 0 -437 109.5t-161 306.5zM522 422q0 -63 48 -104.5t130 -41.5 q72 0 123 42t51 106q0 68 -48 113t-128 45q-84 0 -130 -46t-46 -114zM537 1006q0 -57 43 -90t108 -33q59 0 101 35.5t42 93.5q0 51 -40.5 87t-104.5 36q-74 0 -111.5 -35t-37.5 -94z" />
<glyph unicode="9" horiz-adv-x="1398" d="M53 934q0 215 170 356.5t445 141.5q313 0 495.5 -200t182.5 -527q0 -324 -190.5 -535t-514.5 -211q-340 0 -508 262q-16 27 8 35l318 141q27 12 41 -10q49 -86 166 -86q100 0 154 74t46 205q-63 -41 -156.5 -67t-166.5 -26q-213 0 -351.5 123t-138.5 324zM530 940 q0 -82 46.5 -128t117.5 -46q158 0 158 168q0 80 -43 125t-111 45q-76 0 -122 -43t-46 -121z" />
<glyph unicode=":" horiz-adv-x="745" d="M133 29v389q0 33 37 33h387q33 0 33 -33v-389q0 -16 -6 -22.5t-27 -6.5h-387q-20 0 -28.5 5.5t-8.5 23.5zM133 633v391q0 18 8.5 23.5t28.5 5.5h387q20 0 26.5 -6.5t6.5 -22.5v-391q0 -18 -6 -24.5t-27 -6.5h-387q-37 0 -37 31z" />
<glyph unicode=";" horiz-adv-x="706" d="M133 -184v598q0 14 12.5 22t22.5 8h440q10 0 10 -24.5t-4 -30.5l-354 -579q-6 -10 -51 -11q-76 1 -76 17zM133 635v385q0 33 41 33h383q33 0 33 -33v-385q0 -33 -33 -33h-383q-41 0 -41 33z" />
<glyph unicode="&#x3c;" horiz-adv-x="991" d="M88 657q0 23 6 27q408 279 701 449q25 14 32 12q6 -6 7 -23v-303q0 -8 -1.5 -13t-3.5 -8t-4 -5t-5 -3.5t-5 -3.5q-104 -63 -244 -131l244 -145q18 -14 19 -35v-340q0 -16 -9 -18q-10 -2 -30 12q-352 231 -699 489q-8 6 -8 39z" />
<glyph unicode="=" horiz-adv-x="1087" d="M102 279v262q0 20 19 20h850q20 0 20 -20v-265q0 -18 -20 -18h-850q-19 1 -19 21zM102 700v263q0 18 19 18h850q20 0 20 -20v-263q0 -18 -20 -18h-850q-19 0 -19 20z" />
<glyph unicode="&#x3e;" horiz-adv-x="991" d="M162 131v340q0 20 18 35l244 145q-139 68 -244 131q-2 2 -5 3t-5 3.5t-4 5.5t-3 8t-1 13v303q0 16 6 23q8 2 33 -13q293 -170 700 -448q6 -4 6 -27q0 -33 -8 -39q-346 -258 -698 -489q-20 -14 -31 -12q-8 2 -8 18z" />
<glyph unicode="?" horiz-adv-x="1136" d="M29 1067q66 178 194.5 266t349.5 88q231 0 384 -108.5t153 -300.5q0 -195 -156 -316q-166 -135 -147 -245q0 -23 -16 -23h-357h-12q-2 0 -4 3t-2 7v8q-10 158 119 312q86 102 86 178q0 98 -99 98q-51 0 -83.5 -39t-43.5 -92q-4 -18 -9 -20t-21 6q-195 82 -332 151 q-12 4 -4 27zM367 35v278q0 23 6 31t26 8h416q33 0 33 -39v-278q0 -35 -33 -35h-416q-20 0 -26 7.5t-6 27.5z" />
<glyph unicode="@" horiz-adv-x="1753" d="M63 649q0 328 241 555.5t614 227.5q356 0 571 -189.5t211 -480.5q-2 -133 -39 -235.5t-94.5 -158t-121 -83t-128.5 -29.5q-139 -4 -206 28.5t-95 96.5q-135 -131 -275 -129q-150 4 -240.5 100.5t-90.5 265.5q0 203 109.5 335t326.5 132q55 0 115.5 -20.5t91.5 -40.5 l32 -20l211 47l-61 -453q0 -6 -5 -33.5t-5 -36.5v-29q0 -22 7 -30l18 -20q11 -12 32 -16.5t49 -4.5q88 0 138.5 81t48.5 234q-2 227 -168 390t-435 163q-293 0 -486 -190.5t-189 -456.5q4 -303 197.5 -466t480.5 -163q27 0 54 3.5t47.5 6.5t48.5 13t41 14t45 19.5t39 18.5 t42 22l39 20q33 18 76 -41q20 -29 24 -57.5t-14 -44.5q-201 -131 -432 -131q-383 0 -624 205.5t-241 580.5zM733 612q0 -98 21.5 -132t70.5 -34q63 0 91 39t36 117l35 264q-49 29 -98 29q-59 0 -107.5 -64.5t-48.5 -218.5z" />
<glyph unicode="A" horiz-adv-x="1542" d="M-31 29l740 1378q4 10 49 10q49 0 53 -8l758 -1380q9 -19 9 -23q0 -3 -2 -4q-3 -2 -15 -2h-482q-18 0 -28 16q-63 143 -70 156h-477q-12 -25 -32.5 -74t-33.5 -75q-12 -23 -41 -23h-420q-15 0 -14 10q-1 8 6 19zM621 475h247l-90 209l-33 82q-14 -39 -32 -82z" />
<glyph unicode="B" horiz-adv-x="1519" d="M143 29v1339q0 20 27 21h793q211 0 332.5 -100.5t121.5 -272.5q0 -117 -67.5 -201t-196.5 -117q131 -8 221 -110.5t90 -227.5q0 -168 -119.5 -264t-322.5 -96h-856q-16 0 -19.5 4.5t-3.5 24.5zM618 301h193q131 0 131 115q0 113 -131 112h-193v-227zM618 864h160 q129 0 129 109q0 113 -129 112h-160v-221z" />
<glyph unicode="C" horiz-adv-x="1519" d="M59 688q0 317 209 530.5t545 213.5q252 0 422 -123t246 -314q8 -27 -11 -34l-399 -146q-10 -4 -18 12q-72 135 -242 136q-129 0 -200.5 -76t-71.5 -201q0 -123 75.5 -196.5t202.5 -73.5q160 0 234 133q8 18 24 14l400 -123q22 -1 22 -14q0 -5 -4 -12q-84 -197 -263 -330 t-423 -133q-332 0 -540 203.5t-208 533.5z" />
<glyph unicode="D" horiz-adv-x="1517" d="M143 18v1350q0 12 3.5 16.5t17.5 4.5h600q692 0 692 -695q0 -352 -184.5 -523t-558.5 -171h-549h-4q-12 0 -14.5 2t-2.5 16zM610 385h95q115 0 187.5 73.5t72.5 241.5q0 303 -256 304h-99v-619z" />
<glyph unicode="E" horiz-adv-x="1306" d="M143 29v1339q0 14 2 17.5t21 3.5h1022q16 0 20 -4.5t4 -24.5v-270q0 -16 -5 -22.5t-19 -6.5h-572v-180h558q16 0 20 -5.5t4 -23.5v-311q0 -16 -4 -21.5t-20 -5.5h-558v-172h590q16 0 19.5 -3t3.5 -24v-286q0 -18 -4 -23.5t-19 -5.5h-1038q-16 0 -20.5 5.5t-4.5 23.5z" />
<glyph unicode="F" horiz-adv-x="1208" d="M143 29v1331q0 14 1 19t5.5 7.5t14.5 2.5h993q12 0 14.5 -3.5t2.5 -13.5v-4v-303v-12q0 -2 -3.5 -4t-13.5 -2h-534v-269h479q16 0 16 -20v-4v-316v-4q0 -12 -2 -14t-14 -2h-479v-389q0 -29 -19 -29h-440q-14 0 -17.5 3t-3.5 26z" />
<glyph unicode="G" horiz-adv-x="1564" d="M55 696q0 322 213 528t543 206q250 0 417 -113t245 -303q10 -29 -7 -37l-383 -170q-23 -8 -32 20q-33 66 -99.5 100t-142.5 34q-125 0 -198.5 -75t-73.5 -196q0 -131 73.5 -202.5t206.5 -71.5q182 0 240 159q8 20 16 21h412q12 0 14 -2t2 -12v-609q0 -8 -18 -8 q-4 0 -23 6l-239 133q-63 -47 -107.5 -73.5t-130.5 -52t-184 -25.5q-317 0 -530.5 201.5t-213.5 541.5z" />
<glyph unicode="H" horiz-adv-x="1613" d="M143 18v1352q0 14 2 16.5t15 2.5h4h436q14 0 17.5 -3.5t3.5 -15.5v-442h376v442q0 12 3.5 15.5t17.5 3.5h436h4q12 0 14.5 -2.5t2.5 -16.5v-1352q0 -14 -2.5 -16t-14.5 -2h-4h-436q-14 0 -17.5 3t-3.5 15v474h-376v-474q0 -12 -3.5 -15t-17.5 -3h-436h-4q-12 0 -14.5 2 t-2.5 16z" />
<glyph unicode="I" horiz-adv-x="780" d="M143 18v1352q0 14 2 16.5t15 2.5h4h452q14 0 17.5 -3.5t3.5 -15.5v-1352q0 -12 -3 -15t-18 -3h-452h-4q-12 0 -14.5 2t-2.5 16z" />
<glyph unicode="J" horiz-adv-x="880" d="M23 14l14 324q0 14 7 17t36 1q31 -4 57 -3q62 0 89 21q40 30 40 111v877q0 20 3 23.5t20 3.5h444q14 0 17.5 -4.5t3.5 -24.5v-987q0 -213 -122 -317.5t-347 -104.5q-127 0 -240 26q-16 4 -19 9t-3 28z" />
<glyph unicode="K" horiz-adv-x="1525" d="M143 18v1352q0 14 2 16.5t15 2.5h4h428q14 0 17 -3.5t3 -15.5v-506l349 512q10 12 26 13h498q35 0 14 -25l-455 -561l500 -774q7 -10 7 -17q0 -12 -21 -12h-539h-9q-3 0 -7 3t-4 4t-4 7t-6 11l-216 397l-133 -152v-252q0 -12 -3 -15t-17 -3h-428h-4q-12 0 -14.5 2 t-2.5 16z" />
<glyph unicode="L" horiz-adv-x="1169" d="M143 18v1352q0 14 2 16.5t15 2.5h4h436q14 0 17.5 -3.5t3.5 -15.5v-989h499q23 0 23 -21v-342q0 -12 -3 -15t-18 -3h-958h-4q-12 0 -14.5 2t-2.5 16z" />
<glyph unicode="M" horiz-adv-x="1785" d="M125 27q6 616 47 1364q0 18 6 20q6 6 23 -6q152 -113 366.5 -289t313.5 -264q416 356 702 563q14 11 21 11q1 0 2 -1q6 -4 6 -20q39 -637 63 -1378q0 -29 -14 -29h-426q-18 0 -18 16l-19 533l-313 -256q-10 -10 -19 -10q-6 0 -18 10q-41 33 -113 97l-123 112l-51 47 l-14 -518q0 -20 -5 -24.5t-22 -4.5h-375q-14 0 -17 4.5t-3 22.5z" />
<glyph unicode="N" horiz-adv-x="1607" d="M147 20q-3 278 -3 625t3 764q0 14 5 18q1 0 2 1q6 0 16 -7l361 -234l364 -243l145 -98v518q12 23 19 25h391q16 0 19.5 -4.5t3.5 -20.5q4 -364 4 -707.5t-4 -666.5q0 -25 -5 -27h-2q-7 0 -20 6l-373 237l-356 236l-139 97v-521q0 -14 -2.5 -16t-18.5 -2h-387 q-23 0 -23 20z" />
<glyph unicode="O" horiz-adv-x="1624" d="M55 692q0 324 219.5 532t532.5 208q307 0 529.5 -206t222.5 -536q0 -317 -223.5 -528t-528.5 -211q-326 0 -539 213t-213 528zM547 694q0 -125 71.5 -196.5t188.5 -71.5q113 0 186.5 72.5t73.5 195.5q0 119 -70.5 187.5t-189.5 68.5t-189.5 -71.5t-70.5 -184.5z" />
<glyph unicode="P" horiz-adv-x="1466" d="M143 18v1352q0 18 21 19h682q244 0 390 -147.5t146 -385.5q0 -465 -510 -518l-251 -8v-312q0 -12 -3.5 -15t-17.5 -3h-436h-4q-12 0 -14.5 2t-2.5 16zM621 690h98q92 0 136 47t44 121q0 170 -184 170h-94v-338z" />
<glyph unicode="Q" horiz-adv-x="1615" d="M55 692q0 324 219.5 532t532.5 208q307 0 529.5 -206t222.5 -536q0 -279 -179 -479v-352q0 -18 -6 -25q-5 -5 -12.5 -5t-18.5 5q-141 66 -346 141q-92 -25 -190 -24q-326 0 -539 213t-213 528zM547 694q0 -125 71.5 -196.5t188.5 -71.5q113 0 186.5 72.5t73.5 195.5 q0 119 -70.5 187.5t-189.5 68.5t-189.5 -71.5t-70.5 -184.5z" />
<glyph unicode="R" horiz-adv-x="1560" d="M143 18v1352q0 18 21 19h735q250 0 380 -133.5t130 -335.5q0 -291 -201 -373l340 -492q25 -35 25 -45t-29 -10h-526q-25 0 -49 41l-209 354l-144 -8v-369q0 -12 -3 -15t-17 -3h-432h-4q-12 0 -14.5 2t-2.5 16zM616 725h89q188 0 188 162q0 86 -45 125t-146 39h-86v-326z " />
<glyph unicode="S" horiz-adv-x="1312" d="M70 291q0 4 3 6t13 6l305 115q20 8 25 -8q16 -57 71.5 -96.5t122.5 -39.5q70 0 107 29t37 76q0 49 -42 72.5t-137 33.5q-8 2 -25.5 4.5t-25.5 2.5q-70 6 -134 25.5t-135 61.5t-114 127t-43 201q0 244 155 384.5t441 140.5q209 0 338 -82t160 -220q4 -18 2 -23t-16 -11 l-289 -107q-12 -6 -16.5 -5t-8.5 13q-51 117 -186 117q-133 0 -133 -96q0 -45 44 -65.5t161 -39.5q8 -2 20 -3t27.5 -3t25.5 -4q195 -29 305.5 -125t110.5 -297q0 -248 -174 -389t-438 -141q-205 0 -346.5 83t-202.5 230q-8 20 -8 27z" />
<glyph unicode="T" horiz-adv-x="1310" d="M31 1020v348q0 12 2 16.5t14 4.5h1215q16 0 16 -21v-348q0 -14 -14 -14l-361 22v-1010q0 -12 -3 -15t-17 -3h-445h-4q-12 0 -14 2t-2 16v1010l-373 -22q-10 0 -12 2t-2 12z" />
<glyph unicode="U" horiz-adv-x="1574" d="M131 510v866q0 8 1 10.5t9 2.5h477q10 0 12.5 -2.5t2.5 -14.5v-792q0 -197 172 -197t172 197v794q0 10 2 12.5t12 2.5h445q8 0 9 -2.5t1 -12.5v-885q0 -252 -174 -396t-500 -144q-295 0 -468 158.5t-173 402.5z" />
<glyph unicode="V" horiz-adv-x="1531" d="M23 1389h514q18 0 24 -17l236 -557l198 549q16 23 25 25h487q23 0 26 -6q1 -1 0 -2q0 -7 -11 -29l-707 -1362q-14 -29 -35 -29q-18 0 -30 25l-740 1366q-13 22 -12 29q0 8 25 8z" />
<glyph unicode="W" horiz-adv-x="1918" d="M2 1371q-1 4 -1 6.5t1 4.5q2 4 6 5.5t15 1.5h469q47 -2 57 -37l147 -492l256 522q10 18 28.5 18.5t27.5 -18.5l243 -528l158 514q4 16 7 18.5t18 2.5h456q16 0 22 -1q4 -1 4 -5t-7 -21l-592 -1393q-6 -20 -29 -20q-16 0 -26 16l-310 510l-311 -512q-10 -12 -28.5 -12 t-24.5 12l-578 1389q-6 12 -8 19z" />
<glyph unicode="X" horiz-adv-x="1441" d="M-25 1362q-8 10 -7 16q0 11 22 11h479q25 0 49 -37l201 -297l192 315q14 18 31 19h436q39 0 4 -43l-432 -623l502 -684q12 -18 12 -27q0 -6 -6 -8q-6 -4 -20 -4h-477q-16 0 -31 23l-240 354q-131 -219 -211 -336q-27 -41 -45 -41h-444q-8 0 -11.5 4t-1 10t5.5 11.5t5 7.5 l465 676z" />
<glyph unicode="Y" horiz-adv-x="1507" d="M-10 1380q0 6 3 7.5t17 1.5h516h8q3 0 6 -1.5t5 -3.5t5 -6t5 -9t6 -13l227 -502l197 514q4 14 8 17.5t23 3.5h465q21 0 21 -6q0 -4 -5 -11q-2 -6 -4 -10l-461 -920v-413q0 -20 -3 -24.5t-19 -4.5h-455q-10 0 -12 4t-2 25v377l-543 954q-8 14 -8 20z" />
<glyph unicode="Z" horiz-adv-x="1251" d="M23 24q0 11 6 19l546 995q-59 -2 -250.5 -6t-250.5 -6q-16 0 -19.5 2t-3.5 16v318q0 16 6 21.5t31 5.5h1112q10 0 12 -16q1 -5 1 -9q0 -8 -3 -12l-217 -419l-225 -419l-92 -168q39 2 235.5 6t266.5 8q29 4 28 -22v-315q0 -14 -4 -18.5t-18 -4.5h-1147q-14 0 -14 24z" />
<glyph unicode="[" horiz-adv-x="829" d="M137 -291v1667q0 12 17 13h608q10 0 10 -13v-198q0 -10 -6 -11l-236 9v-1268q213 10 236 10q6 0 6 -10v-199q0 -12 -10 -12h-608q-17 0 -17 12z" />
<glyph unicode="\" horiz-adv-x="892" d="M-10 1364q0 4 10 12q41 27 186 72q18 4 19.5 3t13.5 -28l354 -733t332 -688q4 -8 -75.5 -47t-118.5 -53q-14 -4 -23 8q-2 4 -4 10q-129 246 -374 766l-310 651q-10 23 -10 27z" />
<glyph unicode="]" horiz-adv-x="829" d="M57 -94q0 10 9 10l233 -8v1266q-211 -8 -233 -9q-8 0 -9 11v198q0 12 13 12h608q14 0 14 -12v-1667q0 -12 -14 -12h-608q-12 0 -13 12v199z" />
<glyph unicode="^" horiz-adv-x="927" d="M16 1014q-4 8 15 26q18 16 393 420q23 23 37 23q12 0 26 -17q12 -14 197.5 -207.5l200.5 -209.5q25 -27 18 -37q-2 -6 -26 -6h-275l-143 118l-144 -118h-282q-13 0 -17 8z" />
<glyph unicode="_" horiz-adv-x="921" d="M-35 -193q0 31 35 31h922q20 0 28 -5t8 -26v-225q0 -20 -7 -25.5t-29 -5.5h-922q-20 0 -27.5 6.5t-7.5 24.5v225z" />
<glyph unicode="`" horiz-adv-x="1228" d="M346 1331l266 156q10 6 17 -6l211 -351q0 -2 -4.5 -6t-13.5 -8t-19 -6q-39 -12 -55 -4l-375 180q-14 8 -23 23q-12 18 -4 22z" />
<glyph unicode="a" horiz-adv-x="1331" d="M51 518q0 246 134 396.5t352 150.5q207 0 288 -139v84q0 16 3 20t16 4h360q10 0 12.5 -3t2.5 -21v-981q0 -20 -3.5 -24.5t-13.5 -4.5h-319q-31 0 -31 27v84q-115 -141 -307 -142q-219 0 -356.5 142.5t-137.5 406.5zM471 512q0 -78 45 -123t119 -45t116 45t42 123 q0 74 -43 119t-115 45q-74 0 -119 -45t-45 -119z" />
<glyph unicode="b" horiz-adv-x="1351" d="M123 25v1378q0 20 2 24.5t14 4.5h404q18 0 18 -27v-447q41 43 111.5 73t146.5 30q211 0 343 -148.5t132 -394.5q0 -248 -128 -398.5t-345 -150.5q-76 0 -151.5 28t-110.5 77l-67 -60q-20 -16 -41 -16h-314q-10 0 -12 4.5t-2 22.5zM553 512q0 -78 45 -123t119 -45 t115.5 45t41.5 123q0 74 -43 119t-114 45q-74 0 -119 -45t-45 -119z" />
<glyph unicode="c" horiz-adv-x="1144" d="M51 506q0 246 150.5 407.5t398.5 161.5q182 0 316.5 -83t187.5 -244q8 -20 -12 -31l-312 -135q-10 -2 -16 12q-47 86 -150 86q-68 0 -111.5 -50t-43.5 -124q0 -70 41 -120t114 -50q100 0 150 92q10 20 31 10l301 -125q18 -9 18 -25q0 -5 -2 -12q-78 -156 -196.5 -239.5 t-307.5 -83.5q-250 0 -403.5 147.5t-153.5 405.5z" />
<glyph unicode="d" horiz-adv-x="1345" d="M51 518q0 244 132 393.5t343 149.5q72 0 143.5 -25.5t116.5 -64.5v434q0 27 17 27h403q10 0 13.5 -4.5t3.5 -24.5v-1378q0 -18 -2 -22.5t-13 -4.5h-393q-12 0 -15 4t-3 23v61q-84 -117 -273 -117q-225 0 -349 146.5t-124 402.5zM471 510q0 -82 43 -124t119 -42 q72 0 116 44t44 122q0 72 -45.5 119t-114.5 47q-74 0 -118 -46t-44 -120z" />
<glyph unicode="e" horiz-adv-x="1150" d="M51 518q0 250 155.5 403.5t409.5 153.5q217 0 359.5 -135t142.5 -352q0 -82 -8 -152q-4 -25 -43 -24h-616q4 -47 47 -80t110 -33q102 0 172 45q10 10 27 -8l156 -246q18 -29 -13 -47q-133 -92 -338 -92q-254 0 -407.5 153.5t-153.5 413.5zM451 614h307q-4 51 -46 83 t-112 32q-66 0 -104.5 -35t-44.5 -80z" />
<glyph unicode="f" horiz-adv-x="768" d="M37 705v305q0 25 14 24h115v115q0 141 87 228t253 87q121 0 183.5 -40t101.5 -107q3 -5 3 -11q0 -9 -8 -22q-20 -49 -61 -106q-4 -6 -12 -10.5t-13 1.5q-35 29 -75 29q-27 0 -43.5 -20.5t-16.5 -51.5v-79q0 -12 13 -13h157q12 0 15.5 -3t3.5 -13v-307q0 -23 -4.5 -27 t-18.5 -4h-129v-657q0 -16 -3 -19.5t-15 -3.5h-416q-16 0 -16 27v655h-93q-12 0 -17 3.5t-5 19.5z" />
<glyph unicode="g" horiz-adv-x="1316" d="M55 567q0 231 130 361.5t341 130.5q78 0 167 -36t116 -79v66q0 16 3 20t15 4h381q14 0 15 -24v-709q0 -160 -31 -270.5t-106.5 -193.5t-208 -122t-330.5 -39q-197 0 -352 62q-25 10 -30 14t1 23q4 14 41 112.5t47 130.5q4 16 10 18.5t23 -5.5q139 -68 233 -68 q131 0 203 45t72 156q-123 -100 -297 -101q-193 0 -318 132t-125 372zM471 551q0 -82 44 -125t120 -43q74 0 116 44t42 124q0 74 -43 119t-115 45q-74 0 -119 -45t-45 -119z" />
<glyph unicode="h" horiz-adv-x="1357" d="M123 29v1376q0 18 2 22.5t12 4.5h418q12 0 15 -4.5t3 -22.5v-483q127 154 349 153q172 0 247.5 -84t75.5 -254v-706q0 -20 -4 -25.5t-18 -5.5h-408q-12 0 -16 3t-4 20v593q0 57 -25 85t-86 28q-41 0 -70.5 -26.5t-40.5 -61.5v-618q0 -23 -16 -23h-418q-12 0 -14 4.5 t-2 24.5z" />
<glyph unicode="i" horiz-adv-x="702" d="M123 29v981q0 18 2 21t12 3h424q12 0 15.5 -4t3.5 -20v-987q0 -23 -19 -23h-422q-12 0 -14 4.5t-2 24.5zM123 1133v272q0 27 14 27h424q12 0 15.5 -4.5t3.5 -22.5v-277q0 -23 -19 -22h-422q-16 0 -16 27z" />
<glyph unicode="j" horiz-adv-x="706" d="M-47 -195q6 63 11 123t5 70q2 37 41 25q32 -8 57 -8q33 0 52 14q33 25 33 104v877q0 25 14 24h422q12 0 15 -4t3 -20v-918q0 -215 -96 -323.5t-315 -108.5q-121 0 -230 41q-19 4 -18 26q0 13 6 78zM152 1133v272q0 27 14 27h422q12 0 15 -4.5t3 -22.5v-277q0 -23 -16 -22 h-422q-16 0 -16 27z" />
<glyph unicode="k" horiz-adv-x="1378" d="M123 29v1376q0 18 2 22.5t12 4.5h418q12 0 15 -4.5t3 -22.5v-754l275 367q12 16 26 16h441q16 0 16 -12t-12 -25l-371 -401l420 -571q5 -8 5 -14q0 -11 -23 -11h-482q-20 0 -39 29l-159 262l-97 -113v-155q0 -23 -16 -23h-418q-12 0 -14 4.5t-2 24.5z" />
<glyph unicode="l" horiz-adv-x="696" d="M123 29v1376q0 18 2 22.5t12 4.5h418q12 0 15 -4.5t3 -22.5v-1382q0 -23 -16 -23h-418q-12 0 -14 4.5t-2 24.5z" />
<glyph unicode="m" horiz-adv-x="1980" d="M123 29v981q0 18 2 21t12 3h404q12 0 16 -4t4 -20v-88q123 154 340 153q129 0 192.5 -41t100.5 -127q147 168 356 168q172 0 245 -83t73 -255v-706q0 -20 -3 -25.5t-18 -5.5h-403q-12 0 -16.5 3t-4.5 20v585q0 74 -23.5 104.5t-78.5 30.5q-68 0 -104 -63v-649 q0 -18 -4.5 -24.5t-18.5 -6.5h-399q-12 0 -16.5 3t-4.5 20v585q0 74 -23.5 104.5t-78.5 30.5q-53 0 -105 -65v-655q0 -23 -16 -23h-412q-12 0 -14 4.5t-2 24.5z" />
<glyph unicode="n" horiz-adv-x="1357" d="M123 29v981q0 18 2 21t12 3h410q12 0 15 -4t3 -20v-88q39 68 133.5 110.5t223.5 42.5q172 0 247.5 -84t75.5 -254v-706q0 -20 -4 -25.5t-18 -5.5h-408q-12 0 -16 3t-4 20v591q0 115 -113 115q-68 0 -109 -78v-628q0 -23 -16 -23h-418q-12 0 -14 4.5t-2 24.5z" />
<glyph unicode="o" horiz-adv-x="1245" d="M51 516q0 248 161 403.5t417 155.5q252 0 408.5 -155.5t156.5 -403.5t-156.5 -405.5t-406.5 -157.5q-256 0 -418 156.5t-162 406.5zM455 516q0 -166 163 -166q74 0 116 43t42 123q0 72 -43 116t-115 44q-74 0 -118.5 -43t-44.5 -117z" />
<glyph unicode="p" horiz-adv-x="1366" d="M125 -311v1321q0 18 2 21t12 3h393q12 0 15.5 -4t3.5 -20v-60q29 47 106.5 79t165.5 32q219 0 344 -152.5t125 -392.5q0 -244 -130 -390t-341 -146q-74 0 -144.5 24.5t-107.5 67.5v-385q0 -27 -16 -27h-412q-10 0 -13 4.5t-3 24.5zM549 516q0 -166 164 -166 q74 0 115.5 43t41.5 123q0 72 -43 116t-114 44q-74 0 -119 -43t-45 -117z" />
<glyph unicode="q" horiz-adv-x="1331" d="M51 516q0 254 137.5 403.5t356.5 149.5q199 0 299 -119l67 70q16 14 39 14h252q8 0 11.5 -1t4.5 -6t1 -19v-1321q0 -18 -2.5 -22.5t-12.5 -4.5h-377q-12 0 -15 4t-3 23v397q-31 -47 -111 -77t-161 -30q-223 0 -354.5 149.5t-131.5 389.5zM471 520q0 -166 164 -166 q74 0 116 43t42 123q0 72 -43 116t-115 44q-74 0 -119 -43t-45 -117z" />
<glyph unicode="r" horiz-adv-x="1093" d="M123 29v981q0 18 2 21t12 3h410q12 0 15 -4t3 -20v-113q33 76 108 124t148 48q121 0 195 -67.5t82 -184.5q-57 -66 -236 -244q-8 -8 -43 -8q0 141 -119 142q-72 0 -127 -78v-606q0 -23 -16 -23h-418q-12 0 -14 4.5t-2 24.5z" />
<glyph unicode="s" horiz-adv-x="1095" d="M46 209q0 3 2 4q3 2 15 6l254 90q12 4 19 -8q55 -96 164 -96q106 0 106 63q0 33 -28.5 49.5t-108.5 24.5q-6 2 -45 6q-55 4 -109.5 20.5t-113 50.5t-94 101.5t-35.5 157.5q0 180 135 288.5t360 108.5q176 0 287 -60.5t143 -164.5q6 -20 -8 -27l-256 -84q-14 -6 -24 6 q-55 84 -144 84q-100 0 -100 -59q0 -33 26.5 -43t126.5 -22q10 0 31 -2.5t33 -4.5q172 -25 264 -104.5t92 -239.5q0 -168 -155.5 -284.5t-366.5 -116.5q-350 0 -461 237q-9 15 -9 19z" />
<glyph unicode="t" horiz-adv-x="868" d="M27 700v310q0 25 14 24h113l4 326q0 29 16 29h387q41 0 41 -11l-4 -344h209q18 0 18 -16v-313q0 -31 -22.5 -31t-100 1t-104.5 1v-219q0 -118 101 -118q22 0 49 5q39 8 40 -25q2 -12 13.5 -132.5t13.5 -133.5q2 -23 -18 -30q-129 -41 -232 -41q-131 0 -217 36.5t-126 104 t-54 134.5t-14 157v264h-105q-14 0 -18 3t-4 19z" />
<glyph unicode="u" horiz-adv-x="1357" d="M113 328v678q0 20 3 24t17 4h408q12 0 16 -3t4 -19v-566q0 -76 24.5 -108.5t86.5 -32.5q68 0 112 72v635q0 23 17 22h416q10 0 13 -1t4 -6t1 -19v-981q0 -18 -2 -22.5t-14 -4.5h-410q-12 0 -15 4t-3 23v86q-41 -72 -130.5 -113t-209.5 -41q-338 0 -338 369z" />
<glyph unicode="v" horiz-adv-x="1251" d="M25 1034h430q18 0 24 -14l150 -348l151 342q10 20 25 20h422q16 0 18 -4v-1q0 -6 -10 -23q-256 -467 -590 -1022q-12 -20 -27 -21q-16 0 -28 23l-578 1015q-11 21 -10.5 27t23.5 6z" />
<glyph unicode="w" horiz-adv-x="1519" d="M14 1034h406q18 0 20 -8l125 -278l174 270q10 16 31 16q18 0 31 -16l164 -270l133 274q6 12 20 12h377q20 0 23 -3q1 -1 0 -2q0 -4 -5 -15l-462 -1028q-8 -23 -26.5 -23t-31.5 23l-227 399l-240 -399q-12 -20 -32 -21q-16 0 -25 21l-465 1022q-9 19 -9 22q-1 4 19 4z" />
<glyph unicode="x" horiz-adv-x="1132" d="M4 1034h418q16 0 22 -10l113 -184l105 184q4 10 18 10h391q16 0 10 -10q-2 -2 -6 -8l-299 -475l344 -523q9 -10 9 -14q0 -1 -1 -2q-2 -4 -16 -4h-461q-6 0 -14 12l-102 189q-63 -127 -97 -187q-6 -14 -16 -14h-408q-23 0 -10 20l322 502l-328 496q-7 11 -7 14.5t13 3.5z " />
<glyph unicode="y" horiz-adv-x="1150" d="M-20 1034h471q16 0 20 -4t8 -18l117 -326l106 326q18 20 25 22h447q18 0 21 -3q1 -1 1 -3q0 -6 -6 -22l-537 -1217q-6 -14 -26 -14h-365q-20 0 -23 4t3 20l141 334l-414 873q-7 18 -6 23q0 5 17 5z" />
<glyph unicode="z" horiz-adv-x="1034" d="M12 33l160 307l162 303l65 121q-211 -6 -323 -6q-31 0 -31 18v238q0 20 23 20h938q14 0 18 -4q1 -1 1 -4q0 -8 -7 -27q-59 -121 -163 -299l-175 -294l-74 -117q262 8 365 16q18 2 23 -3t5 -19v-265q0 -12 -5 -15t-23 -3h-940q-25 0 -25 15q0 7 6 18z" />
<glyph unicode="{" horiz-adv-x="829" d="M49 401v271q0 8 8.5 16t12.5 8q76 10 109.5 47t33.5 117v219q0 133 102.5 221.5t245.5 88.5h223q29 0 29 -23v-176q0 -25 -29 -25h-36q-88 0 -133.5 -59t-45.5 -127v-219q0 -109 -35.5 -162t-148.5 -59q113 -6 148.5 -63.5t35.5 -166.5v-200q0 -100 41 -144.5t138 -44.5 h36q18 0 23.5 -4t5.5 -20v-175q0 -14 -5 -18t-24 -4h-223q-348 0 -348 309v242q0 74 -31.5 99.5t-111.5 29.5q-6 0 -13.5 6t-7.5 16z" />
<glyph unicode="|" horiz-adv-x="892" d="M297 -383v1982q0 25 5 32t30 7h235q33 0 33 -41v-1982q0 -25 -25 -25h-256q-22 0 -22 27z" />
<glyph unicode="}" horiz-adv-x="829" d="M16 -104q0 16 5.5 20t25.5 4h35q96 0 137 43t41 146v200q0 109 36 166t148 64q-113 6 -148.5 59t-35.5 162v219q0 68 -44 127t-134 59h-35q-31 0 -31 25v176q0 23 31 23h221q145 0 247.5 -88.5t102.5 -221.5v-219q0 -78 31 -115.5t107 -46.5q27 -2 26 -26v-264 q0 -29 -20 -29q-82 -4 -113 -29.5t-31 -99.5v-242q0 -309 -350 -309h-221q-18 0 -24.5 4t-6.5 18v175z" />
<glyph unicode="~" horiz-adv-x="1091" d="M133 1126q0 68 95.5 189t211.5 123q94 0 183 -64q10 -6 36.5 -26.5t39 -28.5t35 -15.5t42.5 -7.5q66 4 115 19q16 4 115 41q16 6 20 -2t0 -31q-4 -18 -22.5 -59t-54.5 -99.5t-98.5 -100.5t-133.5 -42q-45 0 -86 13.5t-61.5 26.5t-55.5 40q-88 66 -158 65q-57 0 -112 -22 q-18 -6 -46 -18.5t-40 -16.5q-16 -8 -21.5 -7.5t-3.5 23.5z" />
<glyph unicode="&#xa1;" horiz-adv-x="761" d="M137 623q0 12 57.5 165.5t67.5 153.5q186 4 250 0q10 0 66.5 -150.5t56.5 -168.5q4 -229 0 -641q0 -20 -21 -21q-268 -6 -452 0q-18 0 -19 25q-12 266 -6 637zM137 1032q0 262 2 309.5t11 47.5h473q8 -360 0 -361q-486 0 -486 4z" />
<glyph unicode="&#xa2;" horiz-adv-x="1144" d="M117 870q0 209 129 347.5t338 138.5q106 0 194 -35l68 115l133 -78l-68 -117q72 -68 101 -164q0 -20 -11 -26l-264 -115q-12 0 -12 10q-39 72 -127 72q-57 0 -95 -42t-38 -106q0 -59 35 -102t98 -43q88 0 127 82q0 8 25 8l258 -108q12 0 12 -29q-66 -135 -166 -206 t-262 -71q-76 0 -154 21l-67 -117l-135 78l61 104q-180 125 -180 383z" />
<glyph unicode="&#xa3;" horiz-adv-x="1292" d="M51 604v203q10 14 17 14h71q-23 94 -22 201q0 188 144.5 299t402.5 111q463 0 589 -379q8 -23 -8 -35q-221 -147 -295 -184q-2 0 -9 -2.5t-9 2t-2 14.5q-6 125 -50 190.5t-151 65.5q-86 0 -130 -51.5t-44 -126.5q0 -18 3 -57.5t3 -59.5q61 0 137 -3t80 -3q2 -51 2 -103 q0 -113 -4 -112h-166q74 -139 60 -244q74 0 262 -20.5t278 -38.5q2 -2 -39 -150q-43 -135 -49 -135h-1016q-25 0 -30.5 5t-5.5 24q0 47 1 124.5t1 141.5q0 10 4 14t20 8q51 14 236 27q18 47 -11.5 115.5t-84.5 128.5h-164q-14 0 -17.5 3t-3.5 13z" />
<glyph unicode="&#xa4;" horiz-adv-x="1607" d="M4 426v135v2q0 8 1 12.5t9.5 9.5t24.5 5h129q-6 45 -6 98q0 49 6 94h-129q-35 0 -35 29v135v2q0 8 1 12.5t9.5 9.5t24.5 5h174q80 207 265.5 332t437 125t421.5 -123t246 -314q8 -27 -10 -34l-379 -140q-10 -4 -18 13q-76 150 -263 149q-133 0 -212.5 -79t-79.5 -218 q0 -137 81.5 -214t217.5 -77q174 0 254 148q8 18 24 14l379 -117q31 -2 18 -26q-84 -197 -263 -330t-423 -133q-250 0 -433 119.5t-263 326.5h-174q-35 0 -35 29z" />
<glyph unicode="&#xa5;" horiz-adv-x="1507" d="M-10 1380q0 6 3 7.5t17 1.5h516h14q3 0 7 -2.5t4 -4.5t3 -11t7 -15l227 -502l197 514q4 14 8 17.5t23 3.5h465q18 0 20 -3.5t-4 -13.5q-2 -6 -4 -10l-256 -514h162q37 0 37 -29v-155q0 -14 -6.5 -21.5t-30.5 -7.5h-269l-77 -152h346q37 0 37 -28v-156q0 -14 -6.5 -21.5 t-30.5 -7.5h-367v-241q0 -20 -3 -24.5t-19 -4.5h-455q-10 0 -12 4t-2 25v241h-441q-35 0 -34 29v156v2q0 8 1 12t9 9t24 5h394q-25 47 -86 152h-308q-35 0 -34 29v155v2q0 8 1 12.5t9 9.5t24 5h185l-287 512q-8 14 -8 20z" />
<glyph unicode="&#xa6;" d="M96 614.5q0 315.5 224.5 539.5t540 224t539.5 -224t224 -539.5t-224 -540t-539.5 -224.5t-540 224.5t-224.5 540zM279 924l149 -387l395 77l-262 -458l45 -105l99 49l137 451l-54 -447l95 -73l73 84l-51 440l129 -428l117 -18l33 88l-264 421l395 -45l104 433l-98 -60 l-18 160l-134 -223l-260 108l47 111l82 82l-211 67l-217 -149l168 -27l4 -100l-221 -105l-205 199l21 -213z" />
<glyph unicode="&#xa7;" horiz-adv-x="1095" d="M46 27q-1 4 2 6t15 6l254 90q12 4 19 -8q55 -96 164 -96q106 0 106 63q0 33 -28.5 49.5t-108.5 24.5q-6 2 -45 6q-141 16 -244.5 110.5t-105.5 231.5q0 156 108 256q-12 8 -28.5 24.5t-45 78t-28.5 135.5q0 180 135 288.5t360 108.5q174 0 286 -60.5t145 -164.5 q4 -10 4 -14.5t-3 -6.5t-12 -4l-254 -86q-16 -6 -24 6q-55 84 -144 84q-100 0 -100 -59q0 -33 28.5 -46.5t123.5 -25.5q10 -2 31.5 -4t31.5 -4q176 -23 267.5 -98.5t91.5 -235.5q0 -143 -119 -254q111 -82 110 -254q0 -166 -155.5 -283.5t-366.5 -117.5q-350 0 -461 237 q-8 13 -9 17zM360 698q-18 -72 29 -125t131 -55q41 -2 105.5 -10t85.5 -8q8 63 -29 113.5t-90 54.5q-31 4 -114 16t-118 14z" />
<glyph unicode="&#xa8;" horiz-adv-x="1228" d="M168 1147v231q0 23 12 23h363q10 0 13 -3t3 -20v-237q0 -20 -14 -21h-363q-14 0 -14 27zM680 1147v231q0 23 14 23h363q10 0 13 -3t3 -20v-237q0 -20 -14 -21h-363q-16 0 -16 27z" />
<glyph unicode="&#xa9;" horiz-adv-x="1730" d="M63 627q0 334 234.5 569.5t568.5 235.5q332 0 566.5 -235.5t234.5 -569.5q0 -332 -234.5 -566.5t-566.5 -234.5q-334 0 -568.5 234.5t-234.5 566.5zM231 626.5q0 -268.5 186.5 -459t448.5 -190.5t448.5 191.5t186.5 458t-186.5 458t-448.5 191.5t-448.5 -190.5 t-186.5 -459zM401 631q0 207 134.5 343t355.5 136q164 0 272.5 -80t155.5 -203q8 -18 -4 -22l-248 -88q-10 -2 -14 8q-29 53 -64 76.5t-98 23.5q-84 0 -128 -56t-44 -140q0 -80 48 -135.5t124 -55.5q106 0 160 101q6 10 18 8l248 -74q18 -2 12 -18q-51 -137 -161.5 -220 t-278.5 -83q-213 0 -350.5 136t-137.5 343z" />
<glyph unicode="&#xaa;" horiz-adv-x="1146" d="M80 1001q0 184 106.5 297t280.5 113q158 0 231 -88v47q0 18 15 19h288q8 0 10.5 -3.5t2.5 -15.5v-737q0 -14 -2 -17.5t-13 -3.5h-202q-14 0 -31 13l-53 51q-90 -86 -238 -86q-174 0 -284.5 106t-110.5 305zM129 340v160v2q0 8 1 12t9 9t25 5h821q37 0 37 -28v-160 q0 -16 -6 -23.5t-31 -7.5h-821q-35 0 -35 31zM416 995.5q0 -57.5 34.5 -91.5t94 -34t93.5 33t34 92q0 55 -35 89t-92 34q-59 0 -94 -32.5t-35 -90z" />
<glyph unicode="&#xab;" horiz-adv-x="1404" d="M51 580q0 25 8 32l555 551q14 14 27 11q12 -2 12 -21v-408q0 -37 -18 -53l-146 -112l146 -115q18 -12 18 -51v-408q0 -18 -12 -22t-27 10l-555 551q-8 8 -8 35zM682 580q0 25 8 32l555 551q14 14 27 11q12 -2 12 -21v-408q0 -37 -18 -53l-146 -112l146 -115 q18 -12 18 -51v-408q0 -18 -12 -22t-27 10l-555 551q-8 8 -8 35z" />
<glyph unicode="&#xac;" d="M96 614.5q0 315.5 224.5 539.5t540 224t539.5 -224t224 -539.5t-224 -540t-539.5 -224.5t-540 224.5t-224.5 540zM279 924l149 -387l395 77l-262 -458l45 -105l99 49l137 451l-54 -447l95 -73l73 84l-51 440l129 -428l117 -18l33 88l-264 421l395 -45l104 433l-98 -60 l-18 160l-134 -223l-260 108l47 111l82 82l-211 67l-217 -149l168 -27l4 -100l-221 -105l-205 199l21 -213z" />
<glyph unicode="&#xad;" horiz-adv-x="921" d="M102 387v373q0 25 29 24h657q31 0 31 -24v-373q0 -25 -31 -25h-657q-18 0 -23.5 4.5t-5.5 20.5z" />
<glyph unicode="&#xae;" horiz-adv-x="1730" d="M63 627q0 334 234.5 569.5t568.5 235.5q332 0 566.5 -235.5t234.5 -569.5q0 -332 -234.5 -566.5t-566.5 -234.5q-334 0 -568.5 234.5t-234.5 566.5zM231 626.5q0 -268.5 186.5 -459t448.5 -190.5t448.5 191.5t186.5 458t-186.5 458t-448.5 191.5t-448.5 -190.5 t-186.5 -459zM479 229v818q0 12 10 12h447q154 0 232.5 -81t78.5 -204q0 -172 -121 -225l170 -258q14 -20 15 -47q0 -29 -35 -29h-266q-14 0 -29 27l-129 215l-86 -6v-222q-4 -14 -12 -14h-265q-8 0 -9 2t-1 12zM766 657h53q115 0 115 97q0 53 -27.5 76.5t-87.5 23.5h-53 v-197z" />
<glyph unicode="&#xaf;" horiz-adv-x="1228" d="M256 1161v150q0 18 5 21t24 3h657q20 0 25.5 -4t5.5 -20v-150q0 -14 -5 -19t-26 -5h-657q-18 0 -23.5 4t-5.5 20z" />
<glyph unicode="&#xb0;" horiz-adv-x="788" d="M51 1095.5q0 149.5 97.5 244t248.5 94.5q154 0 247 -93.5t93 -244.5q0 -147 -93 -241.5t-245 -94.5q-154 0 -251 93t-97 242.5zM295 1096q0 -98 96 -99q94 0 94 99q0 45 -24.5 71.5t-69.5 26.5q-43 0 -69.5 -26.5t-26.5 -71.5z" />
<glyph unicode="&#xb1;" horiz-adv-x="2172" d="M37 705v305q0 25 14 24h115v115q0 141 87 228t253 87q121 0 183.5 -40t101.5 -107q8 -12 -5 -33q-20 -49 -61 -106q-4 -6 -12 -10.5t-13 1.5q-35 29 -75 29q-27 0 -43.5 -20.5t-16.5 -51.5v-79q0 -12 13 -13h157q12 0 15.5 -3t3.5 -13v-307q0 -23 -4.5 -27t-18.5 -4h-129 v-657q0 -16 -3 -19.5t-15 -3.5h-416q-16 0 -16 27v655h-93q-12 0 -17 3.5t-5 19.5zM805 705v305q0 25 14 24h115v115q0 141 87 228t253 87q121 0 183.5 -40t101.5 -107q8 -12 -5 -33q-20 -49 -61 -106q-4 -6 -12 -10.5t-13 1.5q-35 29 -75 29q-27 0 -43.5 -20.5t-16.5 -51.5 v-79q0 -12 13 -13h157q12 0 15.5 -3t3.5 -13v-307q0 -23 -4.5 -27t-18.5 -4h-129v-657q0 -16 -3 -19.5t-15 -3.5h-416q-16 0 -16 27v655h-93q-12 0 -17 3.5t-5 19.5zM1599 29v1376q0 18 2.5 22.5t12.5 4.5h418q12 0 15 -4.5t3 -22.5v-1382q0 -23 -16 -23h-418 q-10 0 -13.5 4.5t-3.5 24.5z" />
<glyph unicode="&#xb2;" d="M96 614.5q0 315.5 224.5 539.5t540 224t539.5 -224t224 -539.5t-224 -540t-539.5 -224.5t-540 224.5t-224.5 540zM279 924l149 -387l395 77l-262 -458l45 -105l99 49l137 451l-54 -447l95 -73l73 84l-51 440l129 -428l117 -18l33 88l-264 421l395 -45l104 433l-98 -60 l-18 160l-134 -223l-260 108l47 111l82 82l-211 67l-217 -149l168 -27l4 -100l-221 -105l-205 199l21 -213z" />
<glyph unicode="&#xb3;" d="M96 614.5q0 315.5 224.5 539.5t540 224t539.5 -224t224 -539.5t-224 -540t-539.5 -224.5t-540 224.5t-224.5 540zM279 924l149 -387l395 77l-262 -458l45 -105l99 49l137 451l-54 -447l95 -73l73 84l-51 440l129 -428l117 -18l33 88l-264 421l395 -45l104 433l-98 -60 l-18 160l-134 -223l-260 108l47 111l82 82l-211 67l-217 -149l168 -27l4 -100l-221 -105l-205 199l21 -213z" />
<glyph unicode="&#xb4;" horiz-adv-x="1228" d="M399 1130l211 351q6 12 17 6l266 -156q8 -4 -4 -22q-6 -12 -23 -23l-374 -180q-16 -8 -56 4q-10 2 -19 6t-13.5 8t-4.5 6z" />
<glyph unicode="&#xb5;" d="M1624 614.5q0 -315.5 -224 -540t-539.5 -224.5t-540 224.5t-224.5 540t224.5 539.5t540 224t539.5 -224t224 -539.5zM1419 1006l-98 -60l-18 160l-134 -223l-260 108l47 111l82 82l-211 67l-217 -149l168 -27l4 -100l-221 -105l-205 199l21 -213l-98 68l149 -387l395 77 l-262 -458l45 -105l99 49l137 451l-54 -447l95 -73l73 84l-51 440l129 -428l117 -18l33 88l-264 421l395 -45z" />
<glyph unicode="&#xb6;" horiz-adv-x="1466" d="M84 856q0 238 147.5 385.5t391.5 147.5h661q20 0 21 -19v-678q0 -100 4 -393t4 -426q0 -14 -2 -16t-15 -2h-4h-159q-2 96 -7.5 413.5l-10.5 594t-7 311.5h-94q-4 -41 -22.5 -636t-22.5 -683h-154q-14 0 -18 3t-2 15q6 59 9 174t3 199l2 84q-150 2 -215 8 q-510 53 -510 518zM567 858q0 -158 39 -218t139 -60h72l21 594h-78q-193 -1 -193 -316z" />
<glyph unicode="&#xb7;" horiz-adv-x="720" d="M133 573v385q0 20 7 26.5t28 6.5h389q33 0 33 -35v-385q0 -18 -5 -24t-24 -6h-395q-18 0 -25.5 6t-7.5 26z" />
<glyph unicode="&#xb8;" horiz-adv-x="1228" d="M285 -297q-2 14 8 21l153 65q6 2 11 -4q29 -43 73 -43q41 0 74 25.5t33 82.5q0 59 -49 104.5t-96 45.5h141q92 0 146.5 -56.5t54.5 -117.5q0 -125 -77 -205t-218 -80q-201 0 -254 162z" />
<glyph unicode="&#xb9;" d="M96 614.5q0 315.5 224.5 539.5t540 224t539.5 -224t224 -539.5t-224 -540t-539.5 -224.5t-540 224.5t-224.5 540zM279 924l149 -387l395 77l-262 -458l45 -105l99 49l137 451l-54 -447l95 -73l73 84l-51 440l129 -428l117 -18l33 88l-264 421l395 -45l104 433l-98 -60 l-18 160l-134 -223l-260 108l47 111l82 82l-211 67l-217 -149l168 -27l4 -100l-221 -105l-205 199l21 -213z" />
<glyph unicode="&#xba;" horiz-adv-x="1146" d="M115 1005.5q0 186.5 129 303t336 116.5q201 0 325.5 -116.5t124.5 -303t-125 -304t-323 -117.5q-207 0 -337 117.5t-130 304zM129 340v160v2q0 8 1 12t9 9t25 5h821q37 0 37 -28v-160q0 -16 -6 -23.5t-31 -7.5h-821q-35 0 -35 31zM438 1006q0 -66 36 -101t95.5 -35t93 37 t33.5 99q0 55 -34.5 92t-92 37t-94.5 -37t-37 -92z" />
<glyph unicode="&#xbb;" horiz-adv-x="1404" d="M127 4v408q0 37 18 53l146 113l-146 114q-18 12 -18 51v408q0 20 12 23q12 4 27 -11l555 -551q8 -8 8 -34q0 -25 -8 -33l-555 -551q-14 -14 -26.5 -10t-12.5 20zM758 4v408q0 37 18 53l146 113l-146 114q-18 12 -18 51v408q0 20 12 23q12 4 27 -11l555 -551q8 -8 8 -34 q0 -25 -8 -33l-555 -551q-14 -14 -26.5 -10t-12.5 20z" />
<glyph unicode="&#xbc;" d="M96 614.5q0 315.5 224.5 539.5t540 224t539.5 -224t224 -539.5t-224 -540t-539.5 -224.5t-540 224.5t-224.5 540zM279 924l149 -387l395 77l-262 -458l45 -105l99 49l137 451l-54 -447l95 -73l73 84l-51 440l129 -428l117 -18l33 88l-264 421l395 -45l104 433l-98 -60 l-18 160l-134 -223l-260 108l47 111l82 82l-211 67l-217 -149l168 -27l4 -100l-221 -105l-205 199l21 -213z" />
<glyph unicode="&#xbd;" d="M96 614.5q0 315.5 224.5 539.5t540 224t539.5 -224t224 -539.5t-224 -540t-539.5 -224.5t-540 224.5t-224.5 540zM279 924l149 -387l395 77l-262 -458l45 -105l99 49l137 451l-54 -447l95 -73l73 84l-51 440l129 -428l117 -18l33 88l-264 421l395 -45l104 433l-98 -60 l-18 160l-134 -223l-260 108l47 111l82 82l-211 67l-217 -149l168 -27l4 -100l-221 -105l-205 199l21 -213z" />
<glyph unicode="&#xbe;" d="M96 614.5q0 315.5 224.5 539.5t540 224t539.5 -224t224 -539.5t-224 -540t-539.5 -224.5t-540 224.5t-224.5 540zM279 924l149 -387l395 77l-262 -458l45 -105l99 49l137 451l-54 -447l95 -73l73 84l-51 440l129 -428l117 -18l33 88l-264 421l395 -45l104 433l-98 -60 l-18 160l-134 -223l-260 108l47 111l82 82l-211 67l-217 -149l168 -27l4 -100l-221 -105l-205 199l21 -213z" />
<glyph unicode="&#xbf;" horiz-adv-x="1136" d="M33 377q0 190 155 315q164 131 150 246q-2 23 14 23h357h12q2 0 4 -3.5t2 -9.5v-8q10 -156 -119 -309q-86 -102 -86 -180q0 -98 99 -99q51 0 83.5 40t43.5 93q4 18 9 20.5t21 -5.5q184 -80 332 -152q14 -4 4 -26q-66 -180 -194.5 -268.5t-350.5 -88.5 q-233 0 -384.5 108.5t-151.5 303.5zM297 1061v305q0 18 1 20.5t19 2.5h435q20 0 22 -2.5t2 -20.5v-305v-8q0 -12 -2 -14.5t-16 -2.5h-6h-435q-20 17 -20 25z" />
<glyph unicode="&#xc0;" horiz-adv-x="1542" d="M-31 29l740 1378q4 10 49 10q49 0 53 -8l758 -1380q8 -16 9 -20.5t-2 -6.5t-15 -2h-482q-18 0 -28 16q-63 143 -70 156h-477q-12 -25 -32.5 -74t-33.5 -75q-12 -23 -41 -23h-420q-24 0 -8 29zM322 1669l125 60l167 81q12 2 19 -6l227 -309q8 -10 -16 -18q-8 -2 -21 -7 q-41 -10 -61 -4l-410 162q-12 4 -26 25q-12 16 -4 16zM621 475h247l-90 209l-33 82q-14 -39 -32 -82z" />
<glyph unicode="&#xc1;" horiz-adv-x="1542" d="M-31 29l740 1378q4 10 49 10q49 0 53 -8l758 -1380q8 -16 9 -20.5t-2 -6.5t-15 -2h-482q-18 0 -28 16q-63 143 -70 156h-477q-12 -25 -32.5 -74t-33.5 -75q-12 -23 -41 -23h-420q-24 0 -8 29zM621 475h247l-90 209l-33 82q-14 -39 -32 -82zM649 1489q0 4 2 6l228 309 q6 8 18 6q63 -33 167 -81l126 -60q8 0 -4 -16q-14 -20 -27 -25l-409 -162q-20 -6 -62 4q-39 11 -39 19z" />
<glyph unicode="&#xc2;" horiz-adv-x="1542" d="M-31 29l740 1378q4 10 49 10q49 0 53 -8l758 -1380q8 -16 9 -20.5t-2 -6.5t-15 -2h-482q-18 0 -28 16q-63 143 -70 156h-477q-12 -25 -32.5 -74t-33.5 -75q-12 -23 -41 -23h-420q-24 0 -8 29zM334 1436q0 6 14 12q20 16 198 141l195 137q18 12 23 13q2 0 22 -15 q16 -10 188.5 -132t194.5 -140q18 -14 19 -16q0 -6 -25 -6h-243q-23 0 -35 8l-125 67q-76 -43 -123 -67q-10 -8 -33 -8h-256q-14 0 -14 6zM621 475h247l-90 209l-33 82q-14 -39 -32 -82z" />
<glyph unicode="&#xc3;" horiz-adv-x="1542" d="M-31 29l740 1378q4 10 49 10q49 0 53 -8l758 -1380q8 -16 9 -20.5t-2 -6.5t-15 -2h-482q-18 0 -28 16q-63 143 -70 156h-477q-12 -25 -32.5 -74t-33.5 -75q-12 -23 -41 -23h-420q-24 0 -8 29zM377 1483q2 129 81 204.5t195 75.5q84 0 160 -51q6 -4 21.5 -13t21.5 -14.5 t19.5 -11.5t21.5 -10t19.5 -6t23.5 -2q57 0 107 22q18 10 69 47q12 10 26.5 0t12.5 -24q-4 -23 -30.5 -74t-94 -111.5t-147.5 -60.5q-82 0 -160 49q-90 51 -141 51q-61 0 -117 -47l-24 -22l-23 -23q-8 -8 -24.5 -0.5t-16.5 21.5zM621 475h247l-90 209l-33 82 q-14 -39 -32 -82z" />
<glyph unicode="&#xc4;" horiz-adv-x="1542" d="M-31 29l740 1378q4 10 49 10q49 0 53 -8l758 -1380q8 -16 9 -20.5t-2 -6.5t-15 -2h-482q-18 0 -28 16q-63 143 -70 156h-477q-12 -25 -32.5 -74t-33.5 -75q-12 -23 -41 -23h-420q-24 0 -8 29zM197 1409v266q0 23 14 23h362q10 0 13.5 -3t3.5 -20v-272q0 -20 -15 -21h-362 q-16 0 -16 27zM621 475h247l-90 209l-33 82q-14 -39 -32 -82zM938 1409v266q0 23 12 23h365q10 0 13 -3t3 -20v-272q0 -20 -14 -21h-365q-14 0 -14 27z" />
<glyph unicode="&#xc5;" horiz-adv-x="1542" d="M-31 29l572 1063q-121 94 -121 262q0 141 100.5 238.5t245.5 97.5q141 0 238.5 -98.5t97.5 -237.5q0 -164 -119 -262l586 -1063q8 -16 9 -20.5t-2 -6.5t-15 -2h-482q-18 0 -28 16q-63 143 -70 156h-477q-12 -25 -32.5 -74t-33.5 -75q-12 -23 -41 -23h-420q-24 0 -8 29z M621 475h247l-90 209l-33 82q-14 -39 -32 -82zM664 1350q0 -43 27.5 -70t70.5 -27t70.5 27t27.5 70q0 39 -28.5 68.5t-71.5 29.5q-41 0 -68.5 -28.5t-27.5 -69.5z" />
<glyph unicode="&#xc6;" horiz-adv-x="2002" d="M-31 29l744 1384q6 10 96 0q111 -12 358 -14l748 -10q16 0 20 -4.5t4 -24.5v-270q0 -16 -5 -22.5t-19 -6.5h-516v-180h502q16 0 20 -5.5t4 -23.5v-311q0 -16 -4 -21.5t-20 -5.5h-502v-172h532q18 0 21.5 -3t3.5 -24v-286q0 -18 -4 -23.5t-21 -5.5h-970q-18 0 -22.5 5 t-4.5 24v143h-428l-32 -73q-22 -50 -36 -76q-12 -23 -41 -23h-420q-24 0 -8 29zM623 475h311v647l-70 -153z" />
<glyph unicode="&#xc7;" horiz-adv-x="1519" d="M59 688q0 317 209 530.5t545 213.5q252 0 422 -123t246 -314q12 -35 -11 -34l-399 -146q-18 0 -18 12q-72 135 -242 136q-129 0 -200.5 -76t-71.5 -201q0 -123 75.5 -196.5t202.5 -73.5q160 0 234 133q6 14 24 14l400 -123q18 0 18 -22v-4q-72 -164 -207 -286t-325 -159 q37 -51 36 -102q0 -125 -76.5 -205t-218.5 -80q-201 0 -253 162q0 16 8 20l145 62q16 8 23 -6q23 -37 69 -37q41 0 74 25.5t33 82.5q0 31 -17 60h2q-324 6 -525.5 209.5t-201.5 527.5z" />
<glyph unicode="&#xc8;" horiz-adv-x="1306" d="M143 29v1339q0 14 2 17.5t21 3.5h1022q16 0 20 -4.5t4 -24.5v-270q0 -16 -5 -22.5t-19 -6.5h-572v-180h558q16 0 20 -5.5t4 -23.5v-311q0 -16 -4 -21.5t-20 -5.5h-558v-172h590q16 0 19.5 -3t3.5 -24v-286q0 -18 -4 -23.5t-19 -5.5h-1038q-16 0 -20.5 5.5t-4.5 23.5z M340 1642l126 60q103 49 167 82q10 2 18 -6l228 -310q8 -10 -17 -18q-8 -2 -20 -6q-41 -10 -62 -4l-409 162q-12 4 -27 24q-12 16 -4 16z" />
<glyph unicode="&#xc9;" horiz-adv-x="1306" d="M143 29v1339q0 14 2 17.5t21 3.5h1022q16 0 20 -4.5t4 -24.5v-270q0 -16 -5 -22.5t-19 -6.5h-572v-180h558q16 0 20 -5.5t4 -23.5v-311q0 -16 -4 -21.5t-20 -5.5h-558v-172h590q16 0 19.5 -3t3.5 -24v-286q0 -18 -4 -23.5t-19 -5.5h-1038q-16 0 -20.5 5.5t-4.5 23.5z M559 1452q0 4 2 6l227 309q6 8 19 7q63 -33 167 -82l126 -60q8 0 -4 -16q-14 -20 -27 -25l-410 -161q-20 -6 -61 4q-39 10 -39 18z" />
<glyph unicode="&#xca;" horiz-adv-x="1306" d="M143 29v1339q0 14 2 17.5t21 3.5h1022q16 0 20 -4.5t4 -24.5v-270q0 -16 -5 -22.5t-19 -6.5h-572v-180h558q16 0 20 -5.5t4 -23.5v-311q0 -16 -4 -21.5t-20 -5.5h-558v-172h590q16 0 19.5 -3t3.5 -24v-286q0 -18 -4 -23.5t-19 -5.5h-1038q-16 0 -20.5 5.5t-4.5 23.5z M244 1448q0 8 14 12l393 281q20 10 23 10q4 0 7 -2t7 -5t10 -5q16 -10 187 -133l194 -142q18 -8 19 -16q0 -6 -25 -6h-244q-23 0 -34 8l-125 70l-123 -70q-8 -8 -31 -8h-258q-14 0 -14 6z" />
<glyph unicode="&#xcb;" horiz-adv-x="1306" d="M143 29v1339q0 14 2 17.5t21 3.5h1022q16 0 20 -4.5t4 -24.5v-270q0 -16 -5 -22.5t-19 -6.5h-572v-180h558q16 0 20 -5.5t4 -23.5v-311q0 -16 -4 -21.5t-20 -5.5h-558v-172h590q16 0 19.5 -3t3.5 -24v-286q0 -18 -4 -23.5t-19 -5.5h-1038q-16 0 -20.5 5.5t-4.5 23.5z M238 1485v194q0 23 14 23h362q10 0 13.5 -3t3.5 -20v-198q0 -20 -15 -21h-362q-16 0 -16 25zM752 1485v194q0 23 14 23h362q10 0 13.5 -3t3.5 -20v-198q0 -20 -15 -21h-364q-14 0 -14 25z" />
<glyph unicode="&#xcc;" horiz-adv-x="780" d="M12 1661l126 59q103 49 167 82q10 2 19 -6l227 -309q8 -10 -16 -19q-8 -2 -21 -6q-41 -10 -61 -4l-410 162q-12 4 -27 25q-12 16 -4 16zM143 18v1352q0 14 2 16.5t15 2.5h4h452q14 0 17.5 -3.5t3.5 -15.5v-1352q0 -12 -3 -15t-18 -3h-452h-4q-12 0 -14.5 2t-2.5 16z" />
<glyph unicode="&#xcd;" horiz-adv-x="780" d="M143 18v1352q0 14 2 16.5t15 2.5h4h452q14 0 17.5 -3.5t3.5 -15.5v-1352q0 -12 -3 -15t-18 -3h-452h-4q-12 0 -14.5 2t-2.5 16zM274 1479q0 4 2 6l228 309q8 8 18 6q63 -33 167 -82l126 -59q8 0 -4 -17q-14 -20 -27 -24l-409 -162q-20 -6 -62 4q-39 11 -39 19z" />
<glyph unicode="&#xce;" horiz-adv-x="780" d="M-43 1468q0 8 14 13l394 280l22 11q4 0 7 -2.5t7.5 -5.5t10.5 -5q18 -10 189 -134l192 -140q18 -8 18 -17q0 -6 -25 -6h-243q-23 0 -35 8l-125 70l-123 -70q-8 -8 -31 -8h-258q-14 0 -14 6zM143 18v1352q0 14 2 16.5t15 2.5h4h452q14 0 17.5 -3.5t3.5 -15.5v-1352 q0 -12 -3 -15t-18 -3h-452h-4q-12 0 -14.5 2t-2.5 16z" />
<glyph unicode="&#xcf;" horiz-adv-x="780" d="M-66 1468v211q0 23 15 23h350q12 0 15 -3t3 -20v-217q0 -20 -16 -20h-352q-15 -1 -15 26zM143 18v1352q0 14 2 16.5t15 2.5h4h452q14 0 17.5 -3.5t3.5 -15.5v-1352q0 -12 -3 -15t-18 -3h-452h-4q-12 0 -14.5 2t-2.5 16zM451 1468v211q0 23 12 23h354q10 0 13.5 -3 t3.5 -20v-217q0 -20 -15 -20h-354q-14 -1 -14 26z" />
<glyph unicode="&#xd0;" horiz-adv-x="1525" d="M33 569v250q0 18 18 19h111v530q0 12 3 16.5t17 4.5h590q692 0 692 -695q0 -352 -184 -523t-559 -171h-539h-4q-12 0 -14 2t-2 16v531h-111q-18 0 -18 20zM608 385h105q115 0 187.5 73.5t72.5 241.5q0 303 -256 304h-109v-166h242q20 0 20 -21v-250q0 -18 -20 -18h-242 v-164z" />
<glyph unicode="&#xd1;" horiz-adv-x="1607" d="M147 20q-6 555 0 1389q0 14 5 18q6 2 18 -6l361 -234l364 -243l145 -98v518q12 23 19 25h391q16 0 19.5 -4.5t3.5 -20.5q8 -727 0 -1374q0 -25 -5 -27q-6 -2 -22 6l-373 237l-356 236l-139 97v-521q0 -14 -2.5 -16t-18.5 -2h-387q-23 0 -23 20zM449 1475 q2 129 80.5 204.5t195.5 75.5q84 0 160 -51q6 -4 21.5 -13.5t21.5 -14.5t18 -11t21.5 -10t20.5 -6t24 -2q57 0 106 22q18 10 70 47q12 10 26.5 0t12.5 -24q-4 -23 -31 -74t-94.5 -111.5t-147.5 -60.5q-82 0 -159 49q-90 51 -142 51q-61 0 -116 -47q-8 -6 -23.5 -22.5 t-24.5 -22.5q-10 -8 -25 -0.5t-15 21.5z" />
<glyph unicode="&#xd2;" horiz-adv-x="1624" d="M55 692q0 324 219.5 532t532.5 208q307 0 529.5 -206t222.5 -536q0 -317 -223.5 -528t-528.5 -211q-326 0 -539 213t-213 528zM377 1669l126 60l167 81q10 2 18 -6l227 -309q8 -10 -16 -18q-8 -2 -20 -7q-41 -10 -62 -4l-409 162q-12 4 -27 25q-12 16 -4 16zM547 694 q0 -125 71.5 -196.5t188.5 -71.5q113 0 186.5 72.5t73.5 195.5q0 119 -70.5 187.5t-189.5 68.5t-189.5 -71.5t-70.5 -184.5z" />
<glyph unicode="&#xd3;" horiz-adv-x="1624" d="M55 692q0 324 219.5 532t532.5 208q307 0 529.5 -206t222.5 -536q0 -317 -223.5 -528t-528.5 -211q-326 0 -539 213t-213 528zM547 694q0 -125 71.5 -196.5t188.5 -71.5q113 0 186.5 72.5t73.5 195.5q0 119 -70.5 187.5t-189.5 68.5t-189.5 -71.5t-70.5 -184.5zM653 1489 q0 4 2 6l228 309q6 8 18 6q63 -33 167 -81l126 -60q8 0 -4 -16q-14 -20 -27 -25l-409 -162q-20 -6 -62 4q-39 11 -39 19z" />
<glyph unicode="&#xd4;" horiz-adv-x="1624" d="M55 692q0 324 219.5 532t532.5 208q307 0 529.5 -206t222.5 -536q0 -317 -223.5 -528t-528.5 -211q-326 0 -539 213t-213 528zM385 1481q0 2 14 12q291 213 394 279q2 0 10 6t12 6t25 -15q18 -10 189 -133t192 -139q18 -10 18 -16t-25 -6h-243q-20 0 -35 6l-125 69 l-123 -69q-8 -6 -31 -6h-258q-14 0 -14 6zM547 694q0 -125 71.5 -196.5t188.5 -71.5q113 0 186.5 72.5t73.5 195.5q0 119 -70.5 187.5t-189.5 68.5t-189.5 -71.5t-70.5 -184.5z" />
<glyph unicode="&#xd5;" horiz-adv-x="1624" d="M55 692q0 324 219.5 532t532.5 208q307 0 529.5 -206t222.5 -536q0 -317 -223.5 -528t-528.5 -211q-326 0 -539 213t-213 528zM455 1493q2 129 80.5 205t195.5 76q84 0 160 -52q6 -4 21.5 -13t21.5 -14t18.5 -11.5t21.5 -10.5t20.5 -6t23.5 -2q57 0 106 23q18 10 70 47 q12 10 26.5 -0.5t12.5 -24.5q-4 -23 -30.5 -74t-94.5 -111.5t-147 -60.5q-82 0 -160 49q-90 51 -142 52q-61 0 -116 -47q-8 -6 -23.5 -22.5t-23.5 -22.5q-8 -8 -24.5 -1t-16.5 21zM547 694q0 -125 71.5 -196.5t188.5 -71.5q113 0 186.5 72.5t73.5 195.5q0 119 -70.5 187.5 t-189.5 68.5t-189.5 -71.5t-70.5 -184.5z" />
<glyph unicode="&#xd6;" horiz-adv-x="1624" d="M55 692q0 324 219.5 532t532.5 208q307 0 529.5 -206t222.5 -536q0 -317 -223.5 -528t-528.5 -211q-326 0 -539 213t-213 528zM186 1473v206q0 23 13 23h362q12 0 15.5 -3t3.5 -20v-213q0 -20 -17 -20h-362q-15 0 -15 27zM547 694q0 -125 71.5 -196.5t188.5 -71.5 q113 0 186.5 72.5t73.5 195.5q0 119 -70.5 187.5t-189.5 68.5t-189.5 -71.5t-70.5 -184.5zM1044 1473v206q0 23 13 23h362q12 0 15.5 -3t3.5 -20v-213q0 -20 -17 -20h-362q-15 0 -15 27z" />
<glyph unicode="&#xd7;" d="M96 614.5q0 315.5 224.5 539.5t540 224t539.5 -224t224 -539.5t-224 -540t-539.5 -224.5t-540 224.5t-224.5 540zM279 924l149 -387l395 77l-262 -458l45 -105l99 49l137 451l-54 -447l95 -73l73 84l-51 440l129 -428l117 -18l33 88l-264 421l395 -45l104 433l-98 -60 l-18 160l-134 -223l-260 108l47 111l82 82l-211 67l-217 -149l168 -27l4 -100l-221 -105l-205 199l21 -213z" />
<glyph unicode="&#xd8;" horiz-adv-x="1624" d="M55 692q0 219 106.5 390t277.5 260.5t372 89.5q287 0 500 -183l157 154q12 12 27 -6l53 -72q12 -12 -2 -27l-44 -38l-56 -52l-49 -45q162 -207 162 -473q0 -319 -219.5 -529t-526.5 -210q-297 0 -510 180q-31 -33 -87 -87l-69 -67q-12 -12 -26 9q-41 51 -53 69 q-10 14 2 27l147 135q-162 205 -162 475zM541 690q0 -76 32 -141l204 188q151 141 194 185q-59 45 -166 45q-121 0 -192.5 -73t-71.5 -204zM641 461q70 -51 164 -51q121 0 193.5 77.5t72.5 202.5q0 78 -31 146l-116 -109l-179 -167q-81 -76 -104 -99z" />
<glyph unicode="&#xd9;" horiz-adv-x="1574" d="M131 510v866q0 8 1 10.5t9 2.5h477q10 0 12.5 -2.5t2.5 -14.5v-792q0 -197 172 -197t172 197v794q0 10 2 12.5t12 2.5h445q8 0 9 -2.5t1 -12.5v-885q0 -252 -174 -396t-500 -144q-295 0 -468 158.5t-173 402.5zM379 1669l126 60l167 81q12 2 18 -6l228 -309 q8 -10 -17 -18q-8 -2 -20 -7q-41 -10 -62 -4l-409 162q-12 4 -27 25q-12 16 -4 16z" />
<glyph unicode="&#xda;" horiz-adv-x="1574" d="M131 510v866q0 8 1 10.5t9 2.5h477q10 0 12.5 -2.5t2.5 -14.5v-792q0 -197 172 -197t172 197v794q0 10 2 12.5t12 2.5h445q8 0 9 -2.5t1 -12.5v-885q0 -252 -174 -396t-500 -144q-295 0 -468 158.5t-173 402.5zM698 1489q0 4 2 6l228 309q6 8 18 6q63 -33 167 -81 l126 -60q8 0 -4 -16q-14 -20 -27 -25l-409 -162q-20 -6 -62 4q-39 11 -39 19z" />
<glyph unicode="&#xdb;" horiz-adv-x="1574" d="M131 510v866q0 8 1 10.5t9 2.5h477q10 0 12.5 -2.5t2.5 -14.5v-792q0 -197 172 -197t172 197v794q0 10 2 12.5t12 2.5h445q8 0 9 -2.5t1 -12.5v-885q0 -252 -174 -396t-500 -144q-295 0 -468 158.5t-173 402.5zM371 1468q0 8 14 13l393 280q20 10 23 11q4 0 11 -5.5 t13 -7.5q16 -10 188 -134l193 -140q18 -10 18.5 -16.5t-24.5 -6.5h-244q-23 0 -34 8l-125 70l-123 -70q-10 -8 -31 -8h-258q-14 0 -14 6z" />
<glyph unicode="&#xdc;" horiz-adv-x="1574" d="M131 510v866q0 8 1 10.5t9 2.5h477q10 0 12.5 -2.5t2.5 -14.5v-792q0 -197 172 -197t172 197v794q0 10 2 12.5t12 2.5h445q8 0 9 -2.5t1 -12.5v-885q0 -252 -174 -396t-500 -144q-295 0 -468 158.5t-173 402.5zM287 1479v200q0 23 12 23h363q12 0 15 -3t3 -20v-206 q0 -20 -16 -21h-363q-14 0 -14 27zM922 1479v200q0 23 12 23h362q10 0 13.5 -3t3.5 -20v-206q0 -20 -15 -21h-362q-14 0 -14 27z" />
<glyph unicode="&#xdd;" horiz-adv-x="1507" d="M-10 1380q0 6 3 7.5t17 1.5h516h8q3 0 6 -1.5t5 -3.5t5 -6t5 -9t6 -13l227 -502l197 514q4 14 8 17.5t23 3.5h465q18 0 20 -3.5t-4 -13.5q-2 -6 -4 -10l-461 -920v-413q0 -20 -3 -24.5t-19 -4.5h-455q-10 0 -12 4t-2 25v377l-543 954q-8 14 -8 20zM621 1446l210 350 q6 12 17 6l266 -155q8 -4 -4 -23q-6 -12 -23 -22l-374 -181q-16 -8 -56 4q-10 2 -19 6.5t-13 8.5t-4 6z" />
<glyph unicode="&#xde;" horiz-adv-x="1466" d="M143 18v1352q0 18 21 19h436q20 0 21 -19v-104h225q244 -2 390 -148.5t146 -384.5q0 -465 -510 -518l-251 -8v-189q0 -12 -3.5 -15t-17.5 -3h-436h-4q-12 0 -14.5 2t-2.5 16zM621 567h98q92 0 136 47.5t44 120.5q0 170 -184 170h-94v-338z" />
<glyph unicode="&#xdf;" horiz-adv-x="1296" d="M150 27v983q0 199 128 325.5t361 126.5q240 0 370 -102.5t130 -288.5q0 -283 -224 -307q123 -10 214.5 -112.5t91.5 -289.5q0 -197 -128 -293t-288 -96q-76 0 -137 23q-25 6 -21 37v225q2 20 23 16q25 -8 65 -8q102 0 103 158q0 86 -49.5 133t-126.5 47q-14 0 -15 12v246 q0 14 15 15q68 2 97 30.5t29 102.5q0 131 -104 131q-55 0 -77.5 -37t-22.5 -117v-958q0 -29 -23 -29h-395q-16 0 -16 27z" />
<glyph unicode="&#xe0;" horiz-adv-x="1331" d="M51 518q0 246 134 396.5t352 150.5q207 0 288 -139v84q0 16 3 20t16 4h360q10 0 12.5 -3t2.5 -21v-981q0 -20 -3.5 -24.5t-13.5 -4.5h-319q-31 0 -31 27v84q-115 -141 -307 -142q-219 0 -356.5 142.5t-137.5 406.5zM276 1331l267 156q10 6 16 -6l211 -351q0 -2 -4 -6 t-13.5 -8t-19.5 -6q-39 -12 -55 -4l-375 180q-14 8 -22 23q-13 18 -5 22zM471 512q0 -78 45 -123t119 -45t116 45t42 123q0 74 -43 119t-115 45q-74 0 -119 -45t-45 -119z" />
<glyph unicode="&#xe1;" horiz-adv-x="1331" d="M51 518q0 246 134 396.5t352 150.5q207 0 288 -139v84q0 16 3 20t16 4h360q10 0 12.5 -3t2.5 -21v-981q0 -20 -3.5 -24.5t-13.5 -4.5h-319q-31 0 -31 27v84q-115 -141 -307 -142q-219 0 -356.5 142.5t-137.5 406.5zM471 512q0 -78 45 -123t119 -45t116 45t42 123 q0 74 -43 119t-115 45q-74 0 -119 -45t-45 -119zM524 1130l211 351q6 12 17 6l266 -156q8 -4 -4 -22q-6 -12 -23 -23l-375 -180q-16 -8 -55 4q-10 2 -19.5 6t-13.5 8t-4 6z" />
<glyph unicode="&#xe2;" horiz-adv-x="1331" d="M51 518q0 246 134 396.5t352 150.5q207 0 288 -139v84q0 16 3 20t16 4h360q10 0 12.5 -3t2.5 -21v-981q0 -20 -3.5 -24.5t-13.5 -4.5h-319q-31 0 -31 27v84q-115 -141 -307 -142q-219 0 -356.5 142.5t-137.5 406.5zM297 1132.5q0 6.5 12 16.5l340 309q2 2 9.5 7t11.5 5 q2 0 20 -14q8 -6 332 -303q16 -12 16 -20q0 -6 -20 -7h-211q-10 0 -46 18.5t-65 39.5l-30 18q-109 -76 -134 -76h-223q-12 0 -12 6.5zM471 512q0 -78 45 -123t119 -45t116 45t42 123q0 74 -43 119t-115 45q-74 0 -119 -45t-45 -119z" />
<glyph unicode="&#xe3;" horiz-adv-x="1331" d="M51 518q0 246 134 396.5t352 150.5q207 0 288 -139v84q0 16 3 20t16 4h360q10 0 12.5 -3t2.5 -21v-981q0 -20 -3.5 -24.5t-13.5 -4.5h-319q-31 0 -31 27v84q-115 -141 -307 -142q-219 0 -356.5 142.5t-137.5 406.5zM328 1139q2 135 77.5 215t186.5 80q78 0 153 -56 q6 -4 22.5 -16t25 -17.5t21.5 -12.5t25.5 -10t24.5 -3q55 0 97 20q14 8 71 56q10 8 24.5 -3.5t12.5 -25.5t-19.5 -51t-48 -86t-82 -85t-110.5 -36q-76 0 -150 49q-82 57 -135 57t-106 -45l-51 -53q-10 -8 -24.5 -0.5t-14.5 23.5zM471 512q0 -78 45 -123t119 -45t116 45 t42 123q0 74 -43 119t-115 45q-74 0 -119 -45t-45 -119z" />
<glyph unicode="&#xe4;" horiz-adv-x="1331" d="M51 518q0 246 134 396.5t352 150.5q207 0 288 -139v84q0 16 3 20t16 4h360q10 0 12.5 -3t2.5 -21v-981q0 -20 -3.5 -24.5t-13.5 -4.5h-319q-31 0 -31 27v84q-115 -141 -307 -142q-219 0 -356.5 142.5t-137.5 406.5zM213 1147v231q0 23 12 23h363q10 0 13 -3t3 -20v-237 q0 -20 -14 -21h-363q-14 0 -14 27zM471 512q0 -78 45 -123t119 -45t116 45t42 123q0 74 -43 119t-115 45q-74 0 -119 -45t-45 -119zM725 1147v231q0 23 14 23h363q10 0 13 -3t3 -20v-237q0 -20 -14 -21h-363q-16 0 -16 27z" />
<glyph unicode="&#xe5;" horiz-adv-x="1331" d="M51 518q0 246 134 396.5t352 150.5q207 0 288 -139v84q0 16 3 20t16 4h360q10 0 12.5 -3t2.5 -21v-981q0 -20 -3.5 -24.5t-13.5 -4.5h-319q-31 0 -31 27v84q-115 -141 -307 -142q-219 0 -356.5 142.5t-137.5 406.5zM414 1345.5q0 112.5 73.5 183t188.5 70.5 q113 0 183.5 -70.5t70.5 -183t-71 -183t-183 -70.5q-115 0 -188.5 70.5t-73.5 183zM471 512q0 -78 45 -123t119 -45t116 45t42 123q0 74 -43 119t-115 45q-74 0 -119 -45t-45 -119zM582 1346q0 -90 88 -91q41 0 64.5 24t23.5 67q0 39 -24.5 63.5t-63.5 24.5t-63.5 -24.5 t-24.5 -63.5z" />
<glyph unicode="&#xe6;" horiz-adv-x="1898" d="M51 518q0 246 134 396.5t352 150.5q207 0 268 -94v39q0 16 3 20t15 4h260q16 0 17 -16v-43q39 49 115.5 70.5t142.5 21.5q215 0 358.5 -138t143.5 -358q0 -92 -11 -153q-2 -14 -9 -18.5t-34 -4.5h-635q4 -57 51.5 -98t125.5 -41q102 0 184 63q12 12 31 -10l129 -200 q18 -27 -11 -48q-145 -98 -348 -98q-291 0 -389 154q-98 -154 -399 -154q-217 0 -355.5 145.5t-138.5 409.5zM459 508q0 -174 180 -174q166 0 166 174q0 84 -43 130t-123 46q-82 0 -131 -46t-49 -130zM1171 602h342q2 68 -48 118t-128 50q-76 0 -120 -48t-46 -120z" />
<glyph unicode="&#xe7;" horiz-adv-x="1144" d="M51 506q0 246 150.5 407.5t398.5 161.5q182 0 316.5 -83t187.5 -244q8 -20 -12 -31l-312 -135q-10 -2 -16 12q-47 86 -150 86q-68 0 -111.5 -50t-43.5 -124q0 -70 41 -120t114 -50q100 0 150 92q10 20 31 10l301 -125q25 -12 16 -37q-125 -254 -354 -307q76 -57 76 -143 q0 -125 -77 -205t-218 -80q-201 0 -254 162q-2 14 8 21l145 61q12 4 19 -4q27 -39 73 -39q41 0 74 25.5t33 82.5q0 39 -29.5 74t-85.5 35q-213 25 -342 168t-129 379z" />
<glyph unicode="&#xe8;" horiz-adv-x="1150" d="M51 518q0 250 155.5 403.5t409.5 153.5q217 0 359.5 -135t142.5 -352q0 -82 -8 -152q-4 -25 -43 -24h-616q4 -47 47 -80t110 -33q102 0 172 45q10 10 27 -8l156 -246q18 -29 -13 -47q-133 -92 -338 -92q-254 0 -407.5 153.5t-153.5 413.5zM260 1331l266 156q10 6 17 -6 l211 -351q0 -2 -4.5 -6t-13.5 -8t-19 -6q-39 -12 -55 -4l-375 180q-14 8 -23 23q-12 18 -4 22zM451 614h307q-4 51 -46 83t-112 32q-66 0 -104.5 -35t-44.5 -80z" />
<glyph unicode="&#xe9;" horiz-adv-x="1150" d="M51 518q0 250 155.5 403.5t409.5 153.5q217 0 359.5 -135t142.5 -352q0 -82 -8 -152q-4 -25 -43 -24h-616q4 -47 47 -80t110 -33q102 0 172 45q10 10 27 -8l156 -246q18 -29 -13 -47q-133 -92 -338 -92q-254 0 -407.5 153.5t-153.5 413.5zM451 614h307q-4 51 -46 83 t-112 32q-66 0 -104.5 -35t-44.5 -80zM461 1130l211 351q6 12 16 6l266 -156q8 -4 -4 -22q-6 -12 -22 -23l-375 -180q-16 -8 -55 4q-10 2 -19.5 6t-13.5 8t-4 6z" />
<glyph unicode="&#xea;" horiz-adv-x="1150" d="M51 518q0 250 155.5 403.5t409.5 153.5q217 0 359.5 -135t142.5 -352q0 -82 -8 -152q-4 -25 -43 -24h-616q4 -47 47 -80t110 -33q102 0 172 45q10 10 27 -8l156 -246q18 -29 -13 -47q-133 -92 -338 -92q-254 0 -407.5 153.5t-153.5 413.5zM229 1132.5q0 6.5 13 16.5 l340 309q2 2 9 7t11 5q2 0 21 -14q8 -6 331 -303q16 -12 17 -20q0 -6 -21 -7h-211q-10 0 -46 18.5t-66 39.5l-29 18q-109 -76 -133 -76h-223q-13 0 -13 6.5zM451 614h307q-4 51 -46 83t-112 32q-66 0 -104.5 -35t-44.5 -80z" />
<glyph unicode="&#xeb;" horiz-adv-x="1150" d="M51 518q0 250 155.5 403.5t409.5 153.5q217 0 359.5 -135t142.5 -352q0 -82 -8 -152q-4 -25 -43 -24h-616q4 -47 47 -80t110 -33q102 0 172 45q10 10 27 -8l156 -246q18 -29 -13 -47q-133 -92 -338 -92q-254 0 -407.5 153.5t-153.5 413.5zM143 1147v231q0 23 13 23h362 q10 0 13.5 -3t3.5 -20v-237q0 -20 -15 -21h-362q-15 0 -15 27zM451 614h307q-4 51 -46 83t-112 32q-66 0 -104.5 -35t-44.5 -80zM655 1147v231q0 23 15 23h362q10 0 13.5 -3t3.5 -20v-237q0 -20 -15 -21h-362q-17 0 -17 27z" />
<glyph unicode="&#xec;" horiz-adv-x="702" d="M0 1331l266 156q10 6 17 -6l211 -351q0 -2 -4.5 -6t-13.5 -8t-19 -6q-39 -12 -56 -4l-374 180q-14 8 -23 23q-12 18 -4 22zM123 29v981q0 18 2 21t12 3h424q12 0 15.5 -4t3.5 -20v-987q0 -23 -19 -23h-422q-12 0 -14 4.5t-2 24.5z" />
<glyph unicode="&#xed;" horiz-adv-x="702" d="M123 29v981q0 18 2 21t12 3h424q12 0 15.5 -4t3.5 -20v-987q0 -23 -19 -23h-422q-12 0 -14 4.5t-2 24.5zM229 1130l211 351q6 12 17 6l266 -156q8 -4 -4 -22q-6 -12 -23 -23l-374 -180q-16 -8 -56 4q-10 2 -19 6t-13.5 8t-4.5 6z" />
<glyph unicode="&#xee;" horiz-adv-x="702" d="M-20 1132.5q0 6.5 12 16.5l340 309q2 2 9 7t11 5q2 0 21 -14q8 -6 332 -303q16 -12 16 -20q0 -6 -21 -7h-211q-10 0 -45.5 18.5t-66.5 39.5l-29 18q-109 -76 -133 -76h-223q-12 0 -12 6.5zM123 29v981q0 18 2 21t12 3h424q12 0 15.5 -4t3.5 -20v-987q0 -23 -19 -23h-422 q-12 0 -14 4.5t-2 24.5z" />
<glyph unicode="&#xef;" horiz-adv-x="702" d="M-86 1139v233q0 23 14 23h344q10 0 13.5 -3t3.5 -20v-239q0 -20 -15 -21h-346q-14 0 -14 27zM123 29v981q0 18 2 21t12 3h424q12 0 15.5 -4t3.5 -20v-987q0 -23 -19 -23h-422q-12 0 -14 4.5t-2 24.5zM410 1139v233q0 23 12 23h344q12 0 15 -3t3 -20v-239q0 -20 -16 -21 h-344q-14 0 -14 27z" />
<glyph unicode="&#xf0;" horiz-adv-x="1245" d="M51 496q0 201 130 336t327 163l-154 217q-16 27 4 39l141 99q122 86 144 100q20 10 37 -8l164 -242l209 139q16 12 30 -6l148 -219q0 -20 -10 -27l-209 -139l63 -96q63 -98 91 -175t28 -181q0 -246 -154.5 -394.5t-408.5 -148.5q-260 0 -420 147.5t-160 395.5zM455 502 q0 -59 49 -105.5t114 -46.5q68 0 113 42t45 110q0 66 -45 109.5t-113 43.5q-70 0 -116.5 -45t-46.5 -108z" />
<glyph unicode="&#xf1;" horiz-adv-x="1357" d="M123 29v981q0 18 2 21t12 3h410q12 0 15 -4t3 -20v-88q39 68 133.5 110.5t223.5 42.5q172 0 247.5 -84t75.5 -254v-706q0 -20 -4 -25.5t-18 -5.5h-408q-12 0 -16 3t-4 20v591q0 115 -113 115q-68 0 -109 -78v-628q0 -23 -16 -23h-418q-12 0 -14 4.5t-2 24.5zM346 1149 q2 135 78 215t186 80q78 0 154 -55q6 -4 22.5 -16.5t24.5 -17.5t21.5 -12.5t25.5 -10.5t25 -3q55 0 96 21q14 8 72 55q10 8 24.5 -3t12 -25.5t-19.5 -51.5t-48 -86t-82 -85t-111 -36q-76 0 -149 49q-82 57 -135.5 57.5t-106.5 -44.5l-51 -54q-8 -8 -23.5 -0.5t-15.5 23.5z " />
<glyph unicode="&#xf2;" horiz-adv-x="1245" d="M51 516q0 248 161 403.5t417 155.5q252 0 408.5 -155.5t156.5 -403.5t-156.5 -405.5t-406.5 -157.5q-256 0 -418 156.5t-162 406.5zM297 1331l266 156q10 6 17 -6l211 -351q0 -2 -4.5 -6t-13.5 -8t-19 -6q-39 -12 -56 -4l-374 180q-14 8 -23 23q-12 18 -4 22zM455 516 q0 -166 163 -166q74 0 116 43t42 123q0 72 -43 116t-115 44q-74 0 -118.5 -43t-44.5 -117z" />
<glyph unicode="&#xf3;" horiz-adv-x="1245" d="M51 516q0 248 161 403.5t417 155.5q252 0 408.5 -155.5t156.5 -403.5t-156.5 -405.5t-406.5 -157.5q-256 0 -418 156.5t-162 406.5zM455 516q0 -166 163 -166q74 0 116 43t42 123q0 72 -43 116t-115 44q-74 0 -118.5 -43t-44.5 -117zM473 1130l211 351q6 12 16 6 l267 -156q8 -4 -4 -22q-6 -12 -23 -23l-375 -180q-16 -8 -55 4q-10 2 -19.5 6t-13.5 8t-4 6z" />
<glyph unicode="&#xf4;" horiz-adv-x="1245" d="M51 516q0 248 161 403.5t417 155.5q252 0 408.5 -155.5t156.5 -403.5t-156.5 -405.5t-406.5 -157.5q-256 0 -418 156.5t-162 406.5zM262 1132.5q0 6.5 12 16.5l340 309q2 2 9.5 7t11.5 5q2 0 20 -14q8 -6 332 -303q16 -12 17 -20q0 -6 -21 -7h-211q-10 0 -46 18.5 t-67 39.5l-28 18q-109 -76 -133 -76h-224q-12 0 -12 6.5zM455 516q0 -166 163 -166q74 0 116 43t42 123q0 72 -43 116t-115 44q-74 0 -118.5 -43t-44.5 -117z" />
<glyph unicode="&#xf5;" horiz-adv-x="1245" d="M51 516q0 248 161 403.5t417 155.5q252 0 408.5 -155.5t156.5 -403.5t-156.5 -405.5t-406.5 -157.5q-256 0 -418 156.5t-162 406.5zM270 1139q2 135 78 215t187 80q78 0 153 -56q6 -4 22.5 -16l24.5 -17.5t21.5 -12.5t26 -10t24.5 -3q55 0 96 20q14 8 72 56 q10 8 24.5 -3.5t12.5 -25.5t-19.5 -51t-48.5 -86t-82 -85t-110 -36q-76 0 -150 49q-82 57 -135 57t-107 -45l-51 -53q-10 -8 -24.5 -0.5t-14.5 23.5zM455 516q0 -166 163 -166q74 0 116 43t42 123q0 72 -43 116t-115 44q-74 0 -118.5 -43t-44.5 -117z" />
<glyph unicode="&#xf6;" horiz-adv-x="1245" d="M51 516q0 248 161 403.5t417 155.5q252 0 408.5 -155.5t156.5 -403.5t-156.5 -405.5t-406.5 -157.5q-256 0 -418 156.5t-162 406.5zM174 1147v231q0 23 12 23h363q12 0 14 -3t2 -20v-237q0 -20 -14 -21h-363q-14 0 -14 27zM455 516q0 -166 163 -166q74 0 116 43t42 123 q0 72 -43 116t-115 44q-74 0 -118.5 -43t-44.5 -117zM686 1147v231q0 23 14 23h363q10 0 13 -3t3 -20v-237q0 -20 -14 -21h-363q-16 0 -16 27z" />
<glyph unicode="&#xf7;" d="M96 614.5q0 315.5 224.5 539.5t540 224t539.5 -224t224 -539.5t-224 -540t-539.5 -224.5t-540 224.5t-224.5 540zM279 924l149 -387l395 77l-262 -458l45 -105l99 49l137 451l-54 -447l95 -73l73 84l-51 440l129 -428l117 -18l33 88l-264 421l395 -45l104 433l-98 -60 l-18 160l-134 -223l-260 108l47 111l82 82l-211 67l-217 -149l168 -27l4 -100l-221 -105l-205 199l21 -213z" />
<glyph unicode="&#xf8;" horiz-adv-x="1245" d="M51 516q0 248 161 403.5t417 155.5q225 0 370 -123l101 101q12 12 26 -6l48 -60q8 -12 -3 -26q-57 -49 -94 -87q117 -145 117 -358q0 -248 -156.5 -405.5t-406.5 -157.5q-229 0 -387 129l-103 -98q-12 -12 -26 6l-45 61q-14 14 2 25q37 37 92 86q-113 147 -113 354z M438 516q0 -61 17 -92q10 8 73 70l116 111q52 50 69 65q-39 23 -95 22q-84 0 -132 -47t-48 -129zM516 354q45 -20 102 -20q82 0 127.5 47t45.5 135q0 53 -15 84q-16 -17 -260 -246z" />
<glyph unicode="&#xf9;" horiz-adv-x="1357" d="M113 328v678q0 20 3 24t17 4h408q12 0 16 -3t4 -19v-566q0 -76 24.5 -108.5t86.5 -32.5q68 0 112 72v635q0 23 17 22h416q10 0 13 -1t4 -6t1 -19v-981q0 -18 -2 -22.5t-14 -4.5h-410q-12 0 -15 4t-3 23v86q-41 -72 -130.5 -113t-209.5 -41q-338 0 -338 369zM332 1331 l266 156q10 6 16 -6l211 -351q0 -2 -4 -6t-13 -8t-20 -6q-39 -12 -55 -4l-375 180q-14 8 -22 23q-12 18 -4 22z" />
<glyph unicode="&#xfa;" horiz-adv-x="1357" d="M113 328v678q0 20 3 24t17 4h408q12 0 16 -3t4 -19v-566q0 -76 24.5 -108.5t86.5 -32.5q68 0 112 72v635q0 23 17 22h416q10 0 13 -1t4 -6t1 -19v-981q0 -18 -2 -22.5t-14 -4.5h-410q-12 0 -15 4t-3 23v86q-41 -72 -130.5 -113t-209.5 -41q-338 0 -338 369zM575 1130 l211 351q6 12 17 6l266 -156q8 -4 -4 -22q-6 -12 -23 -23l-374 -180q-16 -8 -56 4q-10 2 -19 6t-13.5 8t-4.5 6z" />
<glyph unicode="&#xfb;" horiz-adv-x="1357" d="M113 328v678q0 20 3 24t17 4h408q12 0 16 -3t4 -19v-566q0 -76 24.5 -108.5t86.5 -32.5q68 0 112 72v635q0 23 17 22h416q10 0 13 -1t4 -6t1 -19v-981q0 -18 -2 -22.5t-14 -4.5h-410q-12 0 -15 4t-3 23v86q-41 -72 -130.5 -113t-209.5 -41q-338 0 -338 369zM291 1132.5 q0 6.5 12 16.5l340 309q2 2 9 7t12 5q2 0 20 -14q8 -6 332 -303q16 -12 16 -20q0 -6 -20 -7h-211q-10 0 -46 18.5t-67 39.5l-29 18q-109 -76 -133 -76h-223q-12 0 -12 6.5z" />
<glyph unicode="&#xfc;" horiz-adv-x="1357" d="M113 328v678q0 20 3 24t17 4h408q12 0 16 -3t4 -19v-566q0 -76 24.5 -108.5t86.5 -32.5q68 0 112 72v635q0 23 17 22h416q10 0 13 -1t4 -6t1 -19v-981q0 -18 -2 -22.5t-14 -4.5h-410q-12 0 -15 4t-3 23v86q-41 -72 -130.5 -113t-209.5 -41q-338 0 -338 369zM221 1147v231 q0 23 12 23h363q10 0 13 -3t3 -20v-237q0 -20 -14 -21h-362q-15 0 -15 27zM733 1147v231q0 23 15 23h362q10 0 13 -3t3 -20v-237q0 -20 -14 -21h-362q-17 0 -17 27z" />
<glyph unicode="&#xfd;" horiz-adv-x="1150" d="M-37 1031q2 3 17 3h471q16 0 20 -4t8 -18l117 -326l106 326q18 20 25 22h447q18 0 21 -3t-5 -25l-537 -1217q-6 -14 -26 -14h-365q-20 0 -23 4t3 20l141 334l-414 873q-8 22 -6 25zM416 1114l211 350q6 12 16 6l266 -155q8 -4 -4 -23q-6 -12 -22 -22l-375 -180 q-16 -8 -55 4q-10 2 -19.5 6t-13.5 8t-4 6z" />
<glyph unicode="&#xfe;" horiz-adv-x="1366" d="M125 -311v1675q0 16 2 20.5t12 4.5h393q12 0 15.5 -4.5t3.5 -20.5v-414q29 47 106.5 79t165.5 32q219 0 344 -152.5t125 -392.5q0 -244 -130 -390t-341 -146q-74 0 -144.5 24.5t-107.5 67.5v-385q0 -27 -16 -27h-412q-10 0 -13 4.5t-3 24.5zM549 516q0 -166 164 -166 q74 0 115.5 43t41.5 123q0 72 -43 116t-114 44q-74 0 -119 -43t-45 -117z" />
<glyph unicode="&#xff;" horiz-adv-x="1150" d="M-37 1031q2 3 17 3h471q16 0 20 -4t8 -18l117 -326l106 326q18 20 25 22h447q18 0 21 -3t-5 -25l-537 -1217q-6 -14 -26 -14h-365q-20 0 -23 4t3 20l141 334l-414 873q-8 22 -6 25zM139 1147v231q0 23 13 23h362q10 0 13 -3t3 -20v-237q0 -20 -14 -21h-362q-15 0 -15 27z M651 1147v231q0 23 15 23h362q10 0 13 -3t3 -20v-237q0 -20 -14 -21h-362q-17 0 -17 27z" />
<glyph unicode="&#x152;" horiz-adv-x="1861" d="M55 692q0 184 58.5 322.5t163 219.5t237.5 121t297 40q72 0 207 -3t166 -3h585q16 0 20.5 -4.5t4.5 -24.5v-270q0 -16 -5 -22.5t-20 -6.5h-493v-180h479q16 0 20.5 -5.5t4.5 -23.5v-311q0 -16 -4 -21.5t-21 -5.5h-479v-172h510q18 0 21 -3t3 -24v-286q0 -18 -4 -23.5 t-20 -5.5h-602q-66 0 -195 -4t-172 -4q-350 0 -556 185t-206 515zM541 690q0 -293 282 -328v662q-282 -41 -282 -334z" />
<glyph unicode="&#x153;" horiz-adv-x="1867" d="M51 516q0 248 161 403.5t417 155.5q219 0 344 -121q49 45 141 83t209 38q217 0 360.5 -135t143.5 -352q0 -94 -10 -152q-4 -25 -43 -24h-637q4 -61 48 -103.5t122 -42.5q102 0 184 68q14 10 31 -12l147 -232q18 -27 -10 -47q-137 -92 -340 -92q-215 0 -348 119 q-106 -119 -340 -119q-270 0 -425 155.5t-155 409.5zM455 516q0 -182 163 -182q158 0 158 182q0 84 -42 129t-115.5 45t-118.5 -47t-45 -127zM1137 637h344q-6 61 -52.5 97t-125.5 36q-74 0 -116 -38t-50 -95z" />
<glyph unicode="&#x178;" horiz-adv-x="1507" d="M-10 1380q0 6 3 7.5t17 1.5h516h8q3 0 6 -1.5t5 -3.5t5 -6t5 -9t6 -13l227 -502l197 514q4 14 8 17.5t23 3.5h465q18 0 20 -3.5t-4 -13.5q-2 -6 -4 -10l-461 -920v-413q0 -20 -3 -24.5t-19 -4.5h-455q-10 0 -12 4t-2 25v377l-543 954q-8 14 -8 20zM350 1464v215 q0 23 12 23h363q12 0 15 -3t3 -20v-219q0 -20 -16 -20h-362q-15 -1 -15 24zM864 1464v215q0 23 13 23h362q10 0 13 -3t3 -20v-219q0 -20 -14 -20h-362q-15 -1 -15 24z" />
<glyph unicode="&#x2c6;" horiz-adv-x="1228" d="M244 1132.5q0 6.5 12 16.5l340 309q2 2 9 7t11 5q2 0 21 -14q8 -6 332 -303q16 -12 16 -20q0 -6 -20 -7h-211q-10 0 -46 18.5t-65 39.5l-31 18q-109 -76 -133 -76h-223q-12 0 -12 6.5z" />
<glyph unicode="&#x2dc;" horiz-adv-x="1228" d="M262 1139q2 135 78 215t186 80q78 0 154 -56q6 -4 22.5 -16l24.5 -17.5t21.5 -12.5t25.5 -10t25 -3q55 0 96 20q14 8 72 56q10 8 24.5 -3.5t12 -25.5t-19.5 -51t-48 -86t-82 -85t-111 -36q-76 0 -149 49q-82 57 -135 57t-107 -45l-51 -53q-10 -8 -24.5 -0.5t-14.5 23.5z " />
<glyph unicode="&#x3bc;" d="M1624 614.5q0 -315.5 -224 -540t-539.5 -224.5t-540 224.5t-224.5 540t224.5 539.5t540 224t539.5 -224t224 -539.5zM1419 1006l-98 -60l-18 160l-134 -223l-260 108l47 111l82 82l-211 67l-217 -149l168 -27l4 -100l-221 -105l-205 199l21 -213l-98 68l149 -387l395 77 l-262 -458l45 -105l99 49l137 451l-54 -447l95 -73l73 84l-51 440l129 -428l117 -18l33 88l-264 421l395 -45z" />
<glyph unicode="&#x2000;" horiz-adv-x="905" />
<glyph unicode="&#x2001;" horiz-adv-x="1810" />
<glyph unicode="&#x2002;" horiz-adv-x="905" />
<glyph unicode="&#x2003;" horiz-adv-x="1810" />
<glyph unicode="&#x2004;" horiz-adv-x="602" />
<glyph unicode="&#x2005;" horiz-adv-x="452" />
<glyph unicode="&#x2006;" horiz-adv-x="301" />
<glyph unicode="&#x2007;" horiz-adv-x="301" />
<glyph unicode="&#x2008;" horiz-adv-x="225" />
<glyph unicode="&#x2009;" horiz-adv-x="360" />
<glyph unicode="&#x200a;" horiz-adv-x="100" />
<glyph unicode="&#x2010;" horiz-adv-x="921" d="M102 387v373q0 25 29 24h657q31 0 31 -24v-373q0 -25 -31 -25h-657q-18 0 -23.5 4.5t-5.5 20.5z" />
<glyph unicode="&#x2011;" horiz-adv-x="921" d="M102 387v373q0 25 29 24h657q31 0 31 -24v-373q0 -25 -31 -25h-657q-18 0 -23.5 4.5t-5.5 20.5z" />
<glyph unicode="&#x2013;" horiz-adv-x="929" d="M0 406v344q0 18 4 21t25 3h872q20 0 24.5 -4t4.5 -20v-344v-5v-9q0 -3 -3 -6t-9.5 -4t-16.5 -1h-872q-18 0 -23.5 4.5t-5.5 20.5z" />
<glyph unicode="&#x2014;" horiz-adv-x="1861" d="M0 406v344q0 18 4 21t25 3h1802q20 0 25.5 -4t5.5 -20v-344q0 -14 -5.5 -19.5t-25.5 -5.5h-1802q-18 0 -23.5 4.5t-5.5 20.5z" />
<glyph unicode="&#x2018;" horiz-adv-x="544" d="M0 1364q0 25 8 25h459q6 0 9 -1.5t5 -5.5t2 -14v-608q0 -8 -41 -12q-31 0 -39 10l-397 569q-6 8 -6 37z" />
<glyph unicode="&#x2019;" horiz-adv-x="544" d="M49 760v608q0 14 4 17.5t13 3.5h458q8 0 8 -25q0 -31 -6 -37l-193 -281q-126 -187 -204 -288q-6 -10 -39 -10q-41 4 -41 12z" />
<glyph unicode="&#x201a;" horiz-adv-x="544" d="M49 -283v609q0 14 4 17t13 3h458q8 0 8 -24q0 -31 -6 -37l-193 -282q-126 -187 -204 -288q-6 -10 -39 -10q-41 4 -41 12z" />
<glyph unicode="&#x201c;" horiz-adv-x="1083" d="M0 1364q0 25 8 25h459q6 0 9 -1.5t5 -5.5t2 -14v-608q0 -8 -41 -12q-31 0 -39 10l-397 569q-6 8 -6 37zM557 1364q0 25 8 25h459q6 0 9 -1.5t5 -5.5t2 -14v-608q0 -8 -41 -12q-29 0 -38 10l-398 569q-6 6 -6 37z" />
<glyph unicode="&#x201d;" horiz-adv-x="1083" d="M49 760v608q0 14 4 17.5t13 3.5h458q8 0 8 -25q0 -31 -6 -37l-193 -281q-126 -187 -204 -288q-6 -10 -39 -10q-41 4 -41 12zM606 760v608q0 14 4 17.5t13 3.5h458q8 0 9 -25q0 -31 -7 -37l-197 -287q-124 -184 -200 -282q-6 -10 -39 -10q-41 4 -41 12z" />
<glyph unicode="&#x201e;" horiz-adv-x="1083" d="M49 -283v609q0 14 4 17t13 3h458q8 0 8 -24q0 -31 -6 -37l-193 -282q-126 -187 -204 -288q-6 -10 -39 -10q-41 4 -41 12zM606 -283v609q0 14 4 17t13 3h458q8 0 9 -24q0 -31 -7 -37l-197 -287q-124 -184 -200 -283q-6 -10 -39 -10q-41 4 -41 12z" />
<glyph unicode="&#x2022;" horiz-adv-x="1310" d="M47 586q0 250 177 428t427 178t427 -178t177 -428t-177 -427t-427 -177t-427 177t-177 427z" />
<glyph unicode="&#x2026;" horiz-adv-x="2166" d="M133 33v385q0 20 7 26.5t28 6.5h389q33 0 33 -35v-385q0 -18 -5 -24.5t-24 -6.5h-395q-18 0 -25.5 6.5t-7.5 26.5zM854 33v385q0 20 7 26.5t28 6.5h389q33 0 33 -35v-385q0 -18 -5.5 -24.5t-23.5 -6.5h-395q-18 0 -25.5 6.5t-7.5 26.5zM1577 33v385q0 20 7 26.5t28 6.5 h389q33 0 33 -35v-385q0 -18 -5.5 -24.5t-23.5 -6.5h-395q-18 0 -25.5 6.5t-7.5 26.5z" />
<glyph unicode="&#x202f;" horiz-adv-x="360" />
<glyph unicode="&#x2039;" horiz-adv-x="776" d="M51 580q0 25 8 32l555 551q14 14 27 11q12 -2 12 -21v-408q0 -37 -18 -53l-146 -112l146 -115q18 -12 18 -51v-408q0 -18 -12 -22t-27 10l-555 551q-8 8 -8 35z" />
<glyph unicode="&#x203a;" horiz-adv-x="776" d="M113 4v408q0 37 18 53l145 113l-145 114q-18 12 -18 51v408q0 20 12 23q12 4 27 -11l555 -551q8 -8 8 -34q0 -25 -8 -33l-555 -551q-14 -14 -26.5 -10t-12.5 20z" />
<glyph unicode="&#x205f;" horiz-adv-x="452" />
<glyph unicode="&#x20ac;" horiz-adv-x="1607" d="M4 426v135v2q0 8 1 12.5t9.5 9.5t24.5 5h129q-6 45 -6 98q0 49 6 94h-129q-35 0 -35 29v135v2q0 8 1 12.5t9.5 9.5t24.5 5h174q80 207 265.5 332t437 125t421.5 -123t246 -314q8 -27 -10 -34l-379 -140q-10 -4 -18 13q-76 150 -263 149q-133 0 -212.5 -79t-79.5 -218 q0 -137 81.5 -214t217.5 -77q174 0 254 148q8 18 24 14l379 -117q31 -2 18 -26q-84 -197 -263 -330t-423 -133q-250 0 -433 119.5t-263 326.5h-174q-35 0 -35 29z" />
<glyph unicode="&#x2122;" horiz-adv-x="1540" d="M35 1190v188q0 10 10 11h606q10 0 11 -11v-188q0 -8 -9 -8l-172 12q6 -410 6 -489q0 -10 -10 -11h-252q-10 6 -10 11l6 489l-178 -12q-8 0 -8 8zM698 711q4 412 23 680q0 18 14 8q176 -129 340 -279q238 199 350 281q14 12 15 -2q18 -276 33 -692q0 -14 -9 -15 q-27 0 -227 -12q-8 0 -8 8l-10 266l-142 -114q-8 -6 -18 0l-129 114l-6 -245q0 -14 -15 -15h-202q-9 1 -9 17z" />
</font>
</defs>
</svg>
