<?xml version="1.0" encoding="utf-8"?>
<!-- Generator: Adobe Illustrator 12.0.0, SVG Export Plug-In . SVG Version: 6.00 Build 51448)  -->
<!DOCTYPE svg PUBLIC "-//W3C//DTD SVG 1.1//EN" "http://www.w3.org/Graphics/SVG/1.1/DTD/svg11.dtd" [
	<!ENTITY ns_svg "http://www.w3.org/2000/svg">
	<!ENTITY ns_xlink "http://www.w3.org/1999/xlink">
]>
<svg  version="1.1" id="Layer_1" xmlns="&ns_svg;" xmlns:xlink="&ns_xlink;" width="100%" height="100%"
	 viewBox="0 0 95.839 21.866" overflow="visible" enable-background="new 0 0 95.839 21.866" xml:space="preserve">
<path fill="none" stroke="#FFFFFF" stroke-width="4" d="M0.99,15.111c4.37-2.488,8.241-4.014,13.026-5.139
	c7.745-1.82,15.917-3.141,23.502-4.07c8.154-1,15.248-0.57,22.667,0.277C67.954,7.068,75.09,9.036,82.94,9.807
	c2.713,0.267,9.215-0.069,10.776,1.566c-2.904-3.612-6.081-6.727-9.689-9.864c0.69,0.923,1.107,1.991,1.839,2.895
	c2.165,2.672,6.596,4.27,7.421,7.77c-3.363-0.146-6.733,0.951-10.575,2.158c-5.317,1.672-11.208,3.326-16.433,5.715"/>
</svg>
