<?xml version="1.0" encoding="utf-8"?>
<!-- Generator: Adobe Illustrator 12.0.0, SVG Export Plug-In  -->
<!DOCTYPE svg PUBLIC "-//W3C//DTD SVG 1.1//EN" "http://www.w3.org/Graphics/SVG/1.1/DTD/svg11.dtd" [
	<!ENTITY ns_flows "http://ns.adobe.com/Flows/1.0/">
	<!ENTITY ns_svg "http://www.w3.org/2000/svg">
	<!ENTITY ns_xlink "http://www.w3.org/1999/xlink">
]>
<svg  version="1.1" xmlns="&ns_svg;" xmlns:xlink="&ns_xlink;" xmlns:a="http://ns.adobe.com/AdobeSVGViewerExtensions/3.0/"
	 width="25" height="25" viewBox="-0.8 -0.393 25 25" style="enable-background:new -0.8 -0.393 25 25;" xml:space="preserve">
<defs>
</defs>
<path style="fill:#FFFFFF;" d="M1.317,23.867C0.59,23.867,0,23.277,0,22.551V1.316C0,0.59,0.59,0,1.317,0h21.233
	c0.727,0,1.317,0.59,1.317,1.316v21.234c0,0.727-0.591,1.316-1.317,1.316H1.317z M16.469,23.867v-9.242h3.103l0.464-3.603h-3.566
	v-2.3c0-1.043,0.29-1.754,1.785-1.754h1.907V3.746c-0.33-0.044-1.463-0.142-2.779-0.142c-2.75,0-4.633,1.679-4.633,4.761v2.657
	h-3.11v3.603h3.11v9.242H16.469z"/>
</svg>
