<?xml version="1.0" encoding="utf-8"?>
<!-- Generator: Adobe Illustrator 12.0.0, SVG Export Plug-In  -->
<!DOCTYPE svg PUBLIC "-//W3C//DTD SVG 1.1//EN" "http://www.w3.org/Graphics/SVG/1.1/DTD/svg11.dtd" [
	<!ENTITY ns_flows "http://ns.adobe.com/Flows/1.0/">
	<!ENTITY ns_svg "http://www.w3.org/2000/svg">
	<!ENTITY ns_xlink "http://www.w3.org/1999/xlink">
]>
<svg  version="1.1" xmlns="&ns_svg;" xmlns:xlink="&ns_xlink;" xmlns:a="http://ns.adobe.com/AdobeSVGViewerExtensions/3.0/"
	 width="24" height="25" viewBox="0 -0.581 24 25" style="enable-background:new 0 -0.581 24 25;" xml:space="preserve">
<defs>
</defs>
<path style="fill:#FFFFFF;" d="M1.318,0h21.232c0.728,0,1.317,0.59,1.317,1.317v21.233c0,0.728-0.59,1.317-1.317,1.317H1.318
	C0.59,23.868,0,23.278,0,22.551V1.317C0,0.59,0.59,0,1.318,0 M12.552,21.379c0.891-0.266,1.664-0.745,2.427-1.263
	c0.852-0.58,1.809-0.729,2.819-0.561c0.128,0.021,0.255,0.046,0.383,0.065c0.523,0.08,0.727-0.023,0.832-0.554
	c0.104-0.521,0.384-0.763,0.894-0.865c0.438-0.089,0.872-0.249,1.279-0.438c0.24-0.11,0.427-0.339,0.637-0.515v-0.467
	c-0.288-0.106-0.575-0.218-0.866-0.318c-1.689-0.577-2.749-1.8-3.445-3.383c-0.188-0.428-0.083-0.69,0.334-0.901
	c0.439-0.221,0.906-0.386,1.348-0.604c0.564-0.281,0.758-0.563,0.684-0.921c-0.074-0.355-0.432-0.594-1.026-0.598
	c-0.313-0.002-0.636,0.082-0.941,0.169c-0.473,0.135-0.622,0.034-0.607-0.455c0.025-0.804,0.102-1.608,0.065-2.409
	c-0.134-2.932-2.351-4.48-4.399-4.821c-1.477-0.245-2.87,0.012-4.171,0.738C7.32,4.104,6.528,5.382,6.441,7.065
	C6.396,7.944,6.433,8.829,6.443,9.711c0.007,0.565-0.124,0.675-0.676,0.521c-0.187-0.054-0.368-0.174-0.554-0.174
	c-0.323,0-0.688-0.012-0.961,0.126c-0.496,0.252-0.519,0.854-0.068,1.183c0.289,0.21,0.631,0.352,0.957,0.507
	c0.258,0.122,0.536,0.2,0.787,0.331c0.393,0.203,0.488,0.475,0.312,0.874c-0.741,1.663-1.868,2.915-3.672,3.455
	c-0.24,0.071-0.459,0.216-0.688,0.328v0.232c0.163,0.456,0.513,0.694,0.957,0.824c0.397,0.116,0.789,0.254,1.193,0.338
	c0.364,0.076,0.558,0.271,0.648,0.625c0.204,0.793,0.307,0.864,1.112,0.705c1.215-0.239,2.286,0.035,3.31,0.732
	c0.632,0.429,1.362,0.712,2.05,1.061C11.578,21.525,11.695,21.563,12.552,21.379"/>
</svg>
