<?xml version="1.0" encoding="utf-8"?>
<!-- Generator: Adobe Illustrator 12.0.0, SVG Export Plug-In  -->
<!DOCTYPE svg PUBLIC "-//W3C//DTD SVG 1.1//EN" "http://www.w3.org/Graphics/SVG/1.1/DTD/svg11.dtd" [
	<!ENTITY ns_flows "http://ns.adobe.com/Flows/1.0/">
	<!ENTITY ns_svg "http://www.w3.org/2000/svg">
	<!ENTITY ns_xlink "http://www.w3.org/1999/xlink">
]>
<svg  version="1.1" xmlns="&ns_svg;" xmlns:xlink="&ns_xlink;" xmlns:a="http://ns.adobe.com/AdobeSVGViewerExtensions/3.0/"
	 width="31" height="25" viewBox="-0.583 -0.377 31 25" style="enable-background:new -0.583 -0.377 31 25;" xml:space="preserve">
<defs>
</defs>
<path style="fill:#FFFFFF;" d="M20.656,0c-3.381,0-6.121,2.739-6.121,6.121c0,0.479,0.054,0.946,0.158,1.395
	C9.606,7.26,5.096,4.822,2.077,1.119C1.55,2.023,1.248,3.075,1.248,4.196c0,2.124,1.081,3.998,2.723,5.096
	C2.968,9.26,2.024,8.984,1.199,8.526C1.198,8.552,1.198,8.578,1.198,8.604c0,2.965,2.11,5.439,4.91,6.002
	c-0.514,0.139-1.055,0.214-1.612,0.214c-0.395,0-0.778-0.038-1.152-0.109c0.779,2.432,3.04,4.202,5.719,4.251
	c-2.096,1.642-4.734,2.621-7.603,2.621c-0.494,0-0.98-0.029-1.46-0.086c2.709,1.736,5.926,2.75,9.383,2.75
	c11.259,0,17.416-9.327,17.416-17.416c0-0.266-0.006-0.529-0.018-0.791c1.197-0.863,2.232-1.942,3.055-3.17
	c-1.098,0.487-2.277,0.816-3.516,0.965c1.264-0.759,2.234-1.957,2.691-3.388c-1.184,0.702-2.492,1.211-3.887,1.486
	C24.007,0.742,22.416,0,20.656,0"/>
</svg>
