<?xml version="1.0" encoding="utf-8"?>
<!-- Generator: Adobe Illustrator 12.0.0, SVG Export Plug-In  -->
<!DOCTYPE svg PUBLIC "-//W3C//DTD SVG 1.1//EN" "http://www.w3.org/Graphics/SVG/1.1/DTD/svg11.dtd" [
	<!ENTITY ns_flows "http://ns.adobe.com/Flows/1.0/">
	<!ENTITY ns_svg "http://www.w3.org/2000/svg">
	<!ENTITY ns_xlink "http://www.w3.org/1999/xlink">
]>
<svg  version="1.1" xmlns="&ns_svg;" xmlns:xlink="&ns_xlink;" xmlns:a="http://ns.adobe.com/AdobeSVGViewerExtensions/3.0/"
	 width="154" height="101" viewBox="-0.9 -0.2 154 101" style="enable-background:new -0.9 -0.2 154 101;" xml:space="preserve">
<style type="text/css">
<![CDATA[
	.st0{display:none;fill:#FFFFFF;}
	.st1{fill:#FFFFFF;}
	.st2{fill:none;stroke:#722A81;stroke-width:4;stroke-linecap:round;stroke-linejoin:round;stroke-miterlimit:10;}
	.st3{display:none;}
	.st4{display:none;fill:none;stroke:#722A81;stroke-width:4;stroke-linecap:round;stroke-linejoin:round;stroke-miterlimit:10;}
]]>
</style>
<defs>
</defs>
<rect x="44.1" y="78.8" class="st0" width="63" height="12.2"/>
<line class="st4" x1="108.3" y1="89" x2="102.8" y2="83.6"/>
<ellipse class="st4" cx="76.2" cy="49.5" rx="33.7" ry="33.3"/>
<line class="st4" x1="49.7" y1="83.6" x2="44.1" y2="89"/>
<line class="st4" x1="74.7" y1="52.1" x2="74.7" y2="34.8"/>
<line class="st4" x1="86.9" y1="52.5" x2="75.4" y2="52.5"/>
<path class="st4" d="M53.3,12.9c-3.2-3.1-9.1-2.3-13.3,1.7c-4.2,4.1-4.9,9.9-1.8,13"/>
<path class="st4" d="M99.2,12.9c3.2-3.1,9.1-2.3,13.3,1.7c4.2,4.1,4.9,9.9,1.8,13"/>
<rect x="7.8" y="87.8" class="st1" width="129.1" height="12.2"/>
<path class="st2" d="M6.7,98h7c0,0-12.4-7.7-11.6-24h52.8c0,0,1.6,16.2-11.6,24h21.7c0,0-3.9-3.9-3.9-7.7s0.8-37.9,0.8-45.6
	c0-7.7,8.5-10,8.5-17V9.8h10.1v17.8c0,7,7,7.7,7,16.2c0,8.5,0.8,44.1,0.8,48c0,3.9-3.9,6.2-3.9,6.2h34.9c0,0-10.9-3.9-10.9-12.4
	c0-8.5,7.8-10.8,10.1-17.8c2.3-7,3.1-11.6,8.5-11.6s6.2,6.2,7.8,11.6c1.6,5.4,8.5,8.5,8.5,15.5S131.7,98,131.7,98h18.6"/>
<path class="st2" d="M129.4,53c0,0,0.7-6.9,10.8-2.1C140.2,51,137.3,59.9,129.4,53z"/>
<path class="st2" d="M123.1,50.4c0,0,4.6-1.3,4.6,4.6"/>
<path class="st2" d="M70.6,2c0,0-1,0-1,1v3.8c0,0,0,1,1,1h9.6c0,0,1,0,1-1V3c0,0,0-1-1-1H70.6z"/>
</svg>
