<?xml version="1.0" encoding="UTF-8"?>
<svg width="22px" height="22px" viewBox="0 0 22 22" version="1.1" xmlns="http://www.w3.org/2000/svg" xmlns:xlink="http://www.w3.org/1999/xlink">
    <!-- Generator: sketchtool 50 (54983) - http://www.bohemiancoding.com/sketch -->
    <title>C8AB7BF3-C844-4AC1-8E79-1BA8C7A9E978</title>
    <desc>Created with sketchtool.</desc>
    <defs></defs>
    <g id="Symbols" stroke="none" stroke-width="1" fill="none" fill-rule="evenodd">
        <g id="order_status/Submitted">
            <g id="order_status/icons/submitted">
                <g id="Group-6">
                    <circle id="Oval" fill="#8E5A95" cx="11" cy="11" r="11"></circle>
                    <path d="M8.356074,11.144042 C8.36998231,10.9242342 8.28865415,10.7090668 8.13283051,10.5534136 L5.30273584,7.72419781 C4.99957116,7.4239007 4.51059734,7.42547296 4.20937008,7.72771345 C4.06329014,7.87208094 3.98078625,8.06872506 3.9801264,8.27410491 C3.97946654,8.47948476 4.06070517,8.67665496 4.20585443,8.82195813 L6.51299682,11.1291005 L4.20585443,13.4362429 C3.90614565,13.7350728 3.90702456,14.2272632 4.20937008,14.5296087 C4.35370317,14.675419 4.55015896,14.7577512 4.75532291,14.7584109 C4.96048686,14.7590706 5.15746805,14.6780034 5.30273584,14.5331243 L8.13283051,11.7039086 C8.28058505,11.5556077 8.36124558,11.3533213 8.356074,11.144042 Z M13.2814934,11.144042 C13.295172,10.9241004 13.2135162,10.7089131 13.057371,10.5534136 L10.2281553,7.72419781 C9.92499058,7.4239007 9.43601675,7.42547296 9.13478949,7.72771345 C8.98859267,7.87196369 8.90593024,8.06854215 8.90510542,8.27392219 C8.9042806,8.47930223 8.98536145,8.6765383 9.13039493,8.82195813 L11.4375373,11.1291005 L9.13039493,13.4362429 C8.83156506,13.7350728 8.83156506,14.2272632 9.13478949,14.5296087 C9.27912259,14.675419 9.47557838,14.7577512 9.68074233,14.7584109 C9.88590628,14.7590706 10.0828875,14.6780034 10.2281553,14.5331243 L13.0582499,11.7039086 C13.2060045,11.5556077 13.286665,11.3533213 13.2814934,11.144042 Z M18.2069128,11.144042 C18.2205915,10.9241004 18.1389356,10.7089131 17.9827904,10.5534136 L15.1526958,7.72419781 C14.849634,7.42448482 14.3613354,7.42605618 14.0602089,7.72771345 C13.9140121,7.87196369 13.8313497,8.06854215 13.8305248,8.27392219 C13.8297,8.47930223 13.9107809,8.6765383 14.0558144,8.82195813 L16.3629567,11.1291005 L14.0558144,13.4362429 C13.7569845,13.7350728 13.7569845,14.2272632 14.0602089,14.5296087 C14.204542,14.675419 14.4009978,14.7577512 14.6061617,14.7584109 C14.8113257,14.7590706 15.0083069,14.6780034 15.1535747,14.5331243 L17.9836693,11.7039086 C18.1314239,11.5556077 18.2120844,11.3533213 18.2069128,11.144042 Z" id="Shape" fill="#FFFFFF" fill-rule="nonzero"></path>
                </g>
            </g>
        </g>
    </g>
</svg>