<?xml version="1.0" encoding="utf-8"?>
<!-- Generator: Adobe Illustrator 12.0.0, SVG Export Plug-In . SVG Version: 6.00 Build 51448)  -->
<!DOCTYPE svg PUBLIC "-//W3C//DTD SVG 1.1//EN" "http://www.w3.org/Graphics/SVG/1.1/DTD/svg11.dtd" [
	<!ENTITY ns_svg "http://www.w3.org/2000/svg">
	<!ENTITY ns_xlink "http://www.w3.org/1999/xlink">
]>
<svg  version="1.1" id="Layer_1" xmlns="&ns_svg;" xmlns:xlink="&ns_xlink;" width="112" height="71" viewBox="-0.7 -0.2 112 71"
	 overflow="visible" enable-background="new -0.7 -0.2 112 71" xml:space="preserve">
<polygon fill="#FFFFFF" points="4.2,54.9 9.6,54.9 9.6,58.7 4.2,58.7 4.2,69.7 0,69.7 0,43 11.1,43 11.1,46.8 4.2,46.8 "/>
<path fill="#FFFFFF" d="M17,63.601c0,1.899,0.8,2.6,2.2,2.6c1.4,0,2.2-0.7,2.2-2.6v-14.5c0-1.9-0.8-2.601-2.2-2.601
	c-1.4,0-2.2,0.7-2.2,2.601V63.601z M12.8,49.4c0-4.299,2.3-6.699,6.4-6.699c4.1,0,6.4,2.4,6.4,6.699v13.9c0,4.301-2.3,6.7-6.4,6.7
	c-4.1,0-6.4-2.399-6.4-6.7V49.4z"/>
<path fill="#FFFFFF" d="M32.1,63.601c0,1.899,0.8,2.6,2.2,2.6c1.4,0,2.2-0.7,2.2-2.6v-14.5c0-1.9-0.8-2.601-2.2-2.601
	c-1.4,0-2.2,0.7-2.2,2.601V63.601z M27.9,49.4c0-4.299,2.3-6.699,6.4-6.699c4.1,0,6.4,2.4,6.4,6.699v13.9c0,4.301-2.3,6.7-6.4,6.7
	c-4.1,0-6.4-2.399-6.4-6.7V49.4z"/>
<path fill="#FFFFFF" d="M47.5,46.8v19.1h2.4c1.3,0,2.1-0.699,2.1-2.6V49.4c0-1.899-0.8-2.6-2.1-2.6H47.5z M43.3,43H50
	c4.2,0,6.3,2.3,6.3,6.601v13.5c0,4.299-2.1,6.6-6.3,6.6h-6.6V43H43.3z"/>
<polygon fill="#FFFFFF" points="64.4,59.101 63.101,61.5 63.101,69.7 58.9,69.7 58.9,43 63.101,43 63.101,54.601 68.601,43 72.8,43 
	66.9,54.9 72.8,69.7 68.5,69.7 "/>
<rect x="74.7" y="43" fill="#FFFFFF" width="4.199" height="26.7"/>
<path fill="#FFFFFF" d="M94.101,59.7v3.5c0,4.3-2.101,6.699-6.301,6.699c-4.199,0-6.3-2.399-6.3-6.699V49.4
	c0-4.299,2.101-6.699,6.3-6.699c4.2,0,6.301,2.4,6.301,6.699V52h-4v-2.899c0-1.9-0.801-2.601-2.201-2.601
	c-1.399,0-2.199,0.7-2.199,2.601V63.5c0,1.899,0.8,2.601,2.199,2.601c1.4,0,2.201-0.701,2.201-2.601v-3.8H94.101z"/>
<polygon fill="#FFFFFF" points="102.101,59.101 100.9,61.5 100.9,69.7 96.7,69.7 96.7,43 100.9,43 100.9,54.601 106.3,43 110.5,43 
	104.7,54.9 110.5,69.7 106.2,69.7 "/>
<path fill="#FFFFFF" d="M73.9,18.2c-0.299,0-0.5,0.2-0.6,0.4c0,0.1-0.1,0.3-0.1,0.4c0,0.2,0.1,0.5,0.199,0.7
	C73.5,19.9,73.7,20,73.9,20l0,0c0.101,0,0.301,0,0.4-0.1h0.1c0.101,0,0.201,0.1,0.301,0.2c0.199,0.2,0.4,0.4,0.5,0.7
	c0,0,0,0.1,0.1,0.1C75.2,21,75,21,74.8,21c-0.3,0.1-0.5,0.2-0.8,0.3c-0.399,0.2-0.7,0.5-1,0.9c-0.2,0.3-0.3,0.6-0.399,0.9
	c-0.201,0.5-0.301,1-0.4,1.5s-0.2,1.1-0.4,1.6c-0.1,0.5-0.3,0.8-0.6,1.1c-0.2,0.2-0.4,0.5-0.7,0.7c-0.399,0.3-0.8,0.7-1.2,1.2
	c-0.199,0.2-0.4,0.5-0.6,0.8c-0.2,0.3-0.301,0.6-0.4,1c-0.1,0.5-0.199,0.9-0.199,1.4c0,0.7,0.1,1.3,0.399,1.9
	c0.399,0.9,0.899,1.7,1.7,2.301c0.3,0.299,0.6,0.5,0.9,0.699H61.3h-1.8H59.4c-0.1,0-0.1,0-0.199,0c-0.2,0.1-0.4,0.301-0.4,0.6
	c0,0.301,0.301,0.601,0.6,0.601h0.201h13.5c0.199,0,0.399-0.101,0.5-0.3c0.1-0.2,0.1-0.4,0-0.6L73.4,37.3
	c-0.1-0.1-0.199-0.199-0.299-0.199c-1-0.4-2-1-2.701-1.801c-0.299-0.4-0.6-0.8-0.799-1.3C69.4,33.5,69.3,33,69.3,32.5
	c0-0.4,0-0.7,0.1-1.1C69.5,30.9,69.7,30.6,70,30.3c0.2-0.2,0.399-0.5,0.7-0.7c0.4-0.3,0.8-0.7,1.199-1.1
	c0.201-0.2,0.4-0.5,0.601-0.8c0.2-0.3,0.3-0.6,0.399-1c0.201-0.7,0.301-1.3,0.4-1.9c0.1-0.4,0.2-0.8,0.301-1.1
	c0.1-0.2,0.199-0.4,0.299-0.6c0.201-0.3,0.4-0.4,0.701-0.6c0.299-0.1,0.6-0.2,1.199-0.2c0,0,0,0,0.1,0l0,0c0.101,0,0.201,0,0.301,0
	l0,0l0,0c0,0,0,0,0.1,0c0.5,0,0.801,0.2,1.1,0.3c0.201,0.1,0.301,0.2,0.4,0.3c0.2,0.2,0.301,0.4,0.4,0.7c0.1,0.3,0.1,0.6,0.1,0.9
	s0,0.6-0.1,0.9c0,0.1,0,0.3,0,0.4c0,0.1,0,0.3,0,0.4c0,0.1,0,0.1,0,0.2s0,0.1,0,0.2c0.199,0.5,0.3,0.9,0.5,1.2
	c0.1,0.2,0.3,0.4,0.4,0.6c0.1,0.1,0.199,0.2,0.299,0.3c0.201,0.1,0.301,0.3,0.5,0.5c0.201,0.2,0.4,0.4,0.701,0.6
	C81,30.3,81.3,30.7,81.5,31.1s0.3,0.8,0.3,1.2c0,0.5-0.1,0.9-0.3,1.4c-0.3,0.7-0.899,1.3-1.5,1.9c-0.7,0.6-1.5,1.1-2.3,1.5
	c-0.1,0-0.2,0.1-0.2,0.199l-0.2,0.301c-0.1,0.199-0.1,0.399,0,0.6c0.1,0.199,0.301,0.3,0.5,0.3h6c0.301,0,0.6-0.3,0.6-0.601
	c0-0.299-0.299-0.6-0.6-0.6h-4.1c0.699-0.5,1.4-1,1.9-1.6c0.5-0.5,0.799-1,1.1-1.6c0.3-0.6,0.4-1.2,0.4-1.9c0-0.6-0.101-1.1-0.4-1.7
	c-0.301-0.6-0.6-1.1-1.2-1.7c-0.399-0.4-0.601-0.6-0.899-0.8c-0.201-0.1-0.301-0.3-0.4-0.4c-0.2-0.2-0.301-0.3-0.4-0.5
	c-0.1-0.2-0.3-0.5-0.4-1.1l0,0c0-0.1,0-0.2,0-0.3c0-0.2,0-0.4,0.101-0.6c0-0.2,0-0.5,0-0.8c0-0.3,0-0.7-0.101-1.1
	c-0.1-0.3-0.199-0.5-0.299-0.8C79,22.1,78.8,21.9,78.5,21.7h0.101l0,0c0.5-0.1,1-0.3,1.5-0.5c0.199-0.1,0.5-0.3,0.699-0.5
	c0.2-0.2,0.4-0.4,0.6-0.7c0.101-0.2,0.101-0.4,0-0.6c-0.299-0.4-0.699-0.7-1.1-0.9s-0.8-0.2-1.199-0.2c-0.301,0-0.601,0-0.9,0.1
	c-0.6,0.1-1.1,0.4-1.5,0.6c-0.2,0.1-0.4,0.3-0.6,0.4l0,0c-0.301-0.3-0.601-0.6-0.9-0.8C74.7,18.4,74.4,18.3,73.9,18.2
	C74,18.2,73.9,18.2,73.9,18.2 M76.601,20.4c0.199-0.2,0.5-0.3,0.699-0.5c0.301-0.2,0.7-0.4,1.1-0.5c0.201,0,0.4-0.1,0.701-0.1l0,0
	c0.299,0,0.6,0,0.799,0.1c0.101,0,0.201,0.1,0.301,0.2l-0.1,0.1C79.9,19.9,79.7,20,79.4,20.2c-0.299,0.1-0.6,0.2-0.899,0.3l0,0
	c-0.2,0-0.399,0.1-0.7,0.1l0,0l0,0c-0.3,0-0.5,0-0.699-0.1C76.8,20.6,76.7,20.5,76.601,20.4C76.7,20.5,76.7,20.5,76.601,20.4"/>
<path fill="#FFFFFF" d="M48,27.7H27.5c-0.3,0-0.5,0.2-0.6,0.5c-0.1,0.4-0.1,0.8-0.1,1.2c0,1.1,0.3,2.3,0.8,3.3
	c0.7,1.6,1.6,2.9,2.5,4c0.2,0.199,0.4,0.5,0.5,0.699h1.3c0.3,0,0.6,0.301,0.6,0.601c0,0.2-0.1,0.399-0.3,0.5
	c0.1,0,0.1-0.101,0.2-0.101c0.2-0.199,0.2-0.6,0-0.799l0,0c0,0-1.1-1.101-2.2-2.701c-0.5-0.8-1.1-1.7-1.5-2.6
	c-0.4-0.9-0.6-1.9-0.6-2.8c0-0.2,0-0.3,0-0.5h19.5c-0.1,1.3-0.3,2.5-0.7,3.5c-0.6,1.7-1.6,3-2.4,3.8c-0.4,0.4-0.8,0.7-1,0.9
	c-0.1,0.1-0.2,0.199-0.3,0.199h-0.1l0,0l0,0c-0.2,0.101-0.3,0.4-0.3,0.701c0,0.299,0.3,0.399,0.6,0.399h8.5l0,0
	c0.3,0,0.6-0.3,0.6-0.601c0-0.299-0.3-0.6-0.6-0.6h-1.5h-5.3c0.4-0.4,0.8-0.8,1.2-1.3c0.6-0.8,1.3-1.8,1.7-3.1
	c0.5-1.3,0.8-2.8,0.8-4.5c0-0.2-0.1-0.3-0.2-0.4C48.3,27.8,48.2,27.7,48,27.7"/>
<path fill="#FFFFFF" d="M31.8,37.3h-1.3h-3.1c-0.3,0-0.6,0.301-0.6,0.6c0,0.301,0.3,0.601,0.6,0.601h4.4c0.1,0,0.2,0,0.3-0.101
	c0.2-0.1,0.3-0.299,0.3-0.5C32.4,37.601,32.2,37.3,31.8,37.3"/>
<path fill="#FFFFFF" d="M57,0L57,0h-2.4c-0.4,0-0.8,0.2-1,0.4c-0.3,0.3-0.4,0.6-0.4,1v0.5c0,0.4,0.2,0.8,0.4,1L53.7,3
	c-0.1,0.1-0.1,0.2-0.1,0.3c0,1,0,2.2,0,3.3c0,0.7,0,1.3,0,1.8c0,0.3,0,0.5,0,0.7c0,0.2,0,0.4,0,0.5c-0.1,0.7-0.2,1.5-0.5,2.1
	c-0.1,0.3-0.3,0.7-0.5,0.9c-0.2,0.3-0.4,0.5-0.5,0.6c-0.3,0.2-0.5,0.4-0.7,0.6c-0.2,0.2-0.4,0.3-0.5,0.5c-0.2,0.3-0.4,0.7-0.5,1.2
	c-0.3,0.5-0.4,1-0.4,1.8c0,0.6,0,2.1,0,3.9c0,5.5-0.1,14.4-0.1,14.4l0,0c0,0.4,0,0.7,0.1,1.1c0.1,0.199,0.1,0.4,0.2,0.6h1.5
	c0.3,0,0.6,0.301,0.6,0.6c0,0.301-0.3,0.601-0.6,0.601l0,0c0.1,0,0.1,0,0.2,0l0,0c0.3,0,0.6-0.2,0.6-0.601c0-0.299-0.2-0.6-0.6-0.6
	c-0.1,0-0.3,0-0.4-0.1c-0.1,0-0.1-0.1-0.2-0.2c-0.1-0.101-0.2-0.3-0.3-0.5s-0.1-0.5-0.1-0.9c0,0,0-0.3,0-0.7c0-1.5,0-5.4,0.1-9.1
	c0-1.9,0-3.7,0-5.2s0-2.7,0-3.2c0-0.6,0.1-1.1,0.1-1.4c0.1-0.3,0.1-0.5,0.2-0.6c0.1-0.2,0.2-0.4,0.4-0.6c0.2-0.2,0.4-0.3,0.7-0.6
	c0.3-0.2,0.6-0.6,0.8-0.9c0.3-0.5,0.6-1.1,0.8-1.8c0.2-0.6,0.3-1.3,0.4-1.8c0-0.1,0-0.3,0-0.5c0-0.6,0-1.5,0-2.5c0-0.9,0-1.8,0-2.7
	h2.1c0,0.9,0,1.8,0,2.7c0,0.7,0,1.3,0,1.8c0,0.3,0,0.5,0,0.7c0,0.2,0,0.4,0,0.5c0.101,0.8,0.3,1.6,0.601,2.4
	c0.199,0.4,0.299,0.8,0.6,1.1c0.199,0.4,0.5,0.7,0.8,0.9c0.3,0.2,0.5,0.4,0.7,0.5c0.1,0.1,0.199,0.2,0.3,0.3
	c0.101,0.2,0.2,0.4,0.3,0.8c0.1,0.4,0.2,0.8,0.2,1.5c0,0.4,0,1.3,0,2.4s0,2.4,0,3.9c0,2.7,0,5.6,0,7.9c0,1.2,0,2.1,0,2.8
	c0,0.4,0,0.6,0,0.8s0,0.3,0,0.3l0,0c0,0.1,0,0.2,0,0.3c0,0.299,0,0.6-0.101,0.799c0,0.201-0.1,0.301-0.1,0.301
	c0,0.1-0.1,0.1-0.1,0.1c-0.1,0.1-0.1,0.1-0.301,0.1c-0.1,0-0.199,0-0.299,0.101H60.9C61,36.8,61,36.601,61.101,36.4
	c0-0.299,0.1-0.6,0.1-0.899c0-0.1,0-0.2,0-0.3c0-0.3,0-6.7,0-11.9c0-1.4,0-2.8,0-3.9s0-1.9,0-2.4c0-0.7-0.1-1.2-0.2-1.6
	c-0.101-0.3-0.2-0.6-0.3-0.9c-0.2-0.4-0.4-0.7-0.7-0.9c-0.3-0.2-0.5-0.4-0.8-0.6c-0.2-0.1-0.4-0.3-0.5-0.6
	c-0.301-0.4-0.5-0.9-0.6-1.5C58,10.3,58.101,10,58,9.5c0-0.1,0-0.3,0-0.5c0-0.6,0-1.5,0-2.5c0-1.1,0-2.2,0-3.2C58,3.2,58,3.1,57.9,3
	C58,3.1,58,3,58,3C58.3,2.7,58.4,2.4,58.4,2V1.5c0-0.4-0.199-0.8-0.399-1C57.8,0.2,57.4,0,57,0 M54.6,2.2L54.6,2.2
	c-0.1,0-0.2,0-0.2-0.1C54.3,2,54.3,2,54.3,1.9V1.5c0-0.1,0-0.2,0.1-0.2c0.1-0.1,0.1-0.1,0.2-0.1H57c0.101,0,0.2,0,0.2,0.1
	c0.1,0.1,0.1,0.1,0.1,0.2V2c0,0.1,0,0.2-0.1,0.2c-0.1,0.1-0.1,0.1-0.2,0.1h-2.4V2.2z M59.3,37.3C59.3,37.3,59.2,37.3,59.3,37.3
	c-0.4,0-0.6,0.301-0.6,0.6c0,0.301,0.3,0.601,0.6,0.601l0,0c0.1,0,0.2,0,0.301,0H59.4c-0.299,0-0.6-0.3-0.6-0.601
	C58.9,37.601,59,37.3,59.3,37.3"/>
</svg>
