<?xml version="1.0" encoding="utf-8"?>
<!-- Generator: Adobe Illustrator 12.0.0, SVG Export Plug-In  -->
<!DOCTYPE svg PUBLIC "-//W3C//DTD SVG 1.1//EN" "http://www.w3.org/Graphics/SVG/1.1/DTD/svg11.dtd" [
	<!ENTITY ns_flows "http://ns.adobe.com/Flows/1.0/">
	<!ENTITY ns_svg "http://www.w3.org/2000/svg">
	<!ENTITY ns_xlink "http://www.w3.org/1999/xlink">
]>
<svg  version="1.1" xmlns="&ns_svg;" xmlns:xlink="&ns_xlink;" xmlns:a="http://ns.adobe.com/AdobeSVGViewerExtensions/3.0/"
	 width="100%" height="100%" viewBox="-0.803 0 132 89" enable-background="new -0.803 0 132 89" xml:space="preserve">
<defs>
</defs>
<polygon fill="#FFFFFF" points="4.757,62.199 10.898,62.199 10.898,66.523 4.757,66.523 4.757,79.021 0,79.021 0,48.748 
	12.585,48.748 12.585,53.074 4.757,53.074 "/>
<path fill="#FFFFFF" d="M19.245,72.059c0,2.164,0.952,2.984,2.465,2.984c1.514,0,2.466-0.82,2.466-2.984V55.711
	c0-2.162-0.952-2.984-2.466-2.984c-1.513,0-2.465,0.822-2.465,2.984V72.059z M14.487,56.014c0-4.844,2.552-7.611,7.222-7.611
	c4.671,0,7.223,2.768,7.223,7.611v15.742c0,4.844-2.552,7.612-7.223,7.612c-4.67,0-7.222-2.769-7.222-7.612V56.014z"/>
<path fill="#FFFFFF" d="M36.371,72.059c0,2.164,0.952,2.984,2.465,2.984c1.514,0,2.466-0.82,2.466-2.984V55.711
	c0-2.162-0.952-2.984-2.466-2.984c-1.513,0-2.465,0.822-2.465,2.984V72.059z M31.614,56.014c0-4.844,2.552-7.611,7.222-7.611
	c4.671,0,7.223,2.768,7.223,7.611v15.742c0,4.844-2.552,7.612-7.223,7.612c-4.67,0-7.222-2.769-7.222-7.612V56.014z"/>
<path fill="#FFFFFF" d="M53.886,53.074v21.623h2.682c1.513,0,2.422-0.779,2.422-2.941V56.015c0-2.163-0.909-2.94-2.422-2.94H53.886z
	 M49.129,48.748h7.525c4.756,0,7.093,2.639,7.093,7.482v15.311c0,4.842-2.337,7.48-7.093,7.48h-7.525V48.748z"/>
<polygon fill="#FFFFFF" points="73.001,66.955 71.531,69.724 71.531,79.021 66.773,79.021 66.773,48.748 71.531,48.748 
	71.531,61.938 77.758,48.748 82.516,48.748 75.899,62.242 82.516,79.021 77.629,79.021 "/>
<rect x="84.678" y="48.749" fill="#FFFFFF" width="4.757" height="30.272"/>
<path fill="#FFFFFF" d="M106.689,67.734v4.021c0,4.845-2.422,7.611-7.093,7.611c-4.67,0-7.092-2.767-7.092-7.611V56.014
	c0-4.844,2.422-7.611,7.092-7.611c4.671,0,7.093,2.768,7.093,7.611v2.941h-4.497v-3.244c0-2.162-0.951-2.983-2.466-2.983
	c-1.514,0-2.465,0.821-2.465,2.983V72.06c0,2.161,0.951,2.94,2.465,2.94c1.515,0,2.466-0.779,2.466-2.94v-4.325H106.689z"/>
<polygon fill="#FFFFFF" points="115.814,66.955 114.345,69.724 114.345,79.021 109.587,79.021 109.587,48.748 114.345,48.748 
	114.345,61.938 120.571,48.748 125.33,48.748 118.713,62.242 125.33,79.021 120.442,79.021 "/>
<path fill="#FFFFFF" d="M96.269,88.415h-0.456v-3.571h-1.338v-0.416h3.132v0.416h-1.338V88.415z M90.785,88.482
	c-1.151,0-1.999-0.906-1.999-2.056c0-1.14,0.842-2.067,2.015-2.067c0.724,0,1.156,0.256,1.555,0.633l-0.307,0.33
	c-0.337-0.318-0.712-0.547-1.253-0.547c-0.883,0-1.543,0.711-1.543,1.641c0,0.928,0.666,1.65,1.543,1.65
	c0.546,0,0.905-0.209,1.287-0.574l0.296,0.289C91.963,88.203,91.508,88.482,90.785,88.482 M86.433,84.839h-2.431v1.36h2.175v0.41
	h-2.175v1.396h2.46v0.41h-2.91v-3.987h2.881V84.839z M79.519,84.844h-1.229v1.617h1.224c0.599,0,1.025-0.307,1.025-0.826
	C80.538,85.14,80.163,84.844,79.519,84.844 M80.584,88.415l-1.156-1.55h-1.139v1.55h-0.45v-3.987h1.714
	c0.877,0,1.441,0.473,1.441,1.189c0,0.666-0.456,1.055-1.082,1.168l1.224,1.63H80.584z M75.077,88.415h-0.45v-3.986h0.45V88.415z
	 M69.923,84.844h-0.935v3.155h0.935c1.008,0,1.651-0.683,1.651-1.572C71.574,85.539,70.931,84.844,69.923,84.844 M69.923,88.415
	h-1.384v-3.987h1.384c1.252,0,2.118,0.859,2.118,1.988C72.041,87.543,71.175,88.415,69.923,88.415 M63.066,86.621v1.794h-0.451
	v-3.987h0.451v1.771h2.301v-1.771h0.449v3.987h-0.449v-1.794H63.066z M58.806,86.205c0.888,0.193,1.298,0.518,1.298,1.134
	c0,0.688-0.568,1.132-1.361,1.132c-0.631,0-1.149-0.21-1.628-0.637l0.28-0.33c0.415,0.375,0.814,0.563,1.366,0.563
	c0.536,0,0.889-0.279,0.889-0.683c0-0.376-0.199-0.587-1.037-0.763c-0.916-0.2-1.337-0.495-1.337-1.156
	c0-0.639,0.552-1.094,1.31-1.094c0.58,0,0.996,0.166,1.4,0.49l-0.262,0.347c-0.37-0.302-0.74-0.433-1.15-0.433
	c-0.519,0-0.849,0.285-0.849,0.649C57.724,85.807,57.929,86.017,58.806,86.205 M54.847,84.839h-2.431v1.36h2.175v0.41h-2.175v1.396
	h2.46v0.41h-2.91v-3.987h2.881V84.839z M47.933,84.844h-1.23v1.617h1.225c0.598,0,1.025-0.307,1.025-0.826
	C48.953,85.14,48.577,84.844,47.933,84.844 M48.998,88.415l-1.156-1.55h-1.139v1.55h-0.449v-3.987h1.714
	c0.877,0,1.44,0.473,1.44,1.189c0,0.666-0.455,1.055-1.082,1.168l1.225,1.63H48.998z M43.787,84.844h-2.414v1.424h2.158v0.41h-2.158
	v1.737h-0.45v-3.987h2.864V84.844z M33.65,88.415h-0.456v-1.578l-1.657-2.409h0.547l1.344,1.993l1.355-1.993h0.524L33.65,86.83
	V88.415z M29.174,87.293c0-0.438-0.365-0.689-1.06-0.689h-1.258v1.406h1.338C28.798,88.01,29.174,87.742,29.174,87.293
	 M28.951,85.486c0-0.397-0.313-0.653-0.882-0.653h-1.213v1.372h1.179C28.576,86.205,28.951,85.96,28.951,85.486 M29.407,85.425
	c0,0.524-0.319,0.792-0.632,0.929c0.473,0.143,0.854,0.416,0.854,0.967c0,0.689-0.575,1.095-1.446,1.095h-1.771v-3.987h1.697
	C28.895,84.428,29.407,84.816,29.407,85.425"/>
<path fill="#FFFFFF" d="M128.388,50.898h-0.337v-2.149h0.534l0.641,1.63l0.631-1.63h0.538v2.149h-0.335v-1.814h-0.011l-0.717,1.814
	h-0.223l-0.707-1.814h-0.015V50.898z M127.706,49.023h-0.681v1.875h-0.335v-1.875h-0.682v-0.274h1.697V49.023z"/>
<path fill="#FFFFFF" d="M99.888,85.267c0.134,0,0.254-0.01,0.254-0.17c0-0.129-0.117-0.153-0.228-0.153h-0.215v0.323H99.888z
	 M99.699,85.852h-0.158v-1.041h0.397c0.246,0,0.368,0.09,0.368,0.296c0,0.187-0.117,0.267-0.271,0.286l0.296,0.459h-0.177
	L99.881,85.4h-0.182V85.852z M99.891,86.082c0.407,0,0.73-0.318,0.73-0.754c0-0.428-0.323-0.75-0.73-0.75
	c-0.413,0-0.735,0.322-0.735,0.75C99.155,85.764,99.478,86.082,99.891,86.082 M98.973,85.328c0-0.518,0.421-0.899,0.918-0.899
	c0.491,0,0.911,0.382,0.911,0.899c0,0.523-0.42,0.905-0.911,0.905C99.394,86.233,98.973,85.852,98.973,85.328"/>
<path fill="#FFFFFF" d="M86.602,23.168c0.665-0.508,1.193-0.91,1.978-1.074c0.509-0.106,1.365-0.188,1.951,0.276
	c-0.464,0.498-1.102,0.75-2.02,0.996C87.85,23.547,86.864,23.485,86.602,23.168 M61.238,1.671c0-0.187,0.156-0.345,0.344-0.345
	h2.752c0.188,0,0.344,0.158,0.344,0.345v0.532c0,0.187-0.156,0.345-0.344,0.345h-2.752c-0.188,0-0.344-0.158-0.344-0.345V1.671z
	 M94.605,42.237h-4.293c1.646-1.166,3.105-2.799,3.464-4.729c0.311-1.658-0.26-3.298-1.644-4.741
	c-0.467-0.487-0.877-0.849-1.238-1.166c-0.787-0.696-1.146-1.012-1.228-1.834c-0.003-0.075,0.021-0.324,0.041-0.526
	c0.106-1.05,0.304-3.007-0.784-4.303c-0.075-0.089-0.154-0.174-0.234-0.252c0.057-0.011,0.111-0.024,0.167-0.041
	c1.135-0.307,2.308-0.71,3.093-1.958c0.136-0.221,0.133-0.504-0.011-0.719c-0.724-1.074-2.042-1.501-3.628-1.17
	c-1,0.208-1.672,0.679-2.351,1.193c-0.569-0.797-1.52-1.21-2.355-1.329c-0.327-0.048-0.645,0.16-0.733,0.484
	c-0.123,0.467-0.075,0.886,0.15,1.248c0.115,0.191,0.323,0.307,0.546,0.314c0.17-0.004,0.313-0.052,0.433-0.15
	c0.402,0.031,0.811,0.535,1.139,1.193c-2.722,0.253-3.209,2.418-3.727,4.699c-0.093,0.416-0.188,0.846-0.304,1.289
	c-0.267,1.037-0.955,1.627-1.753,2.312c-0.856,0.737-1.824,1.569-2.203,3.045c-0.607,2.343,0.205,5.252,2.731,7.141H69.203
	c0.246-0.6,0.266-1.347,0.243-2.094c0.003-0.177,0.054-17.78-0.004-20.596c-0.059-2.868-0.822-3.564-2.061-4.461l-0.193-0.14
	c-0.928-0.678-1.515-2.578-1.685-4.156c-0.096-0.911-0.093-4.161-0.045-6.977c0.004-0.11-0.023-0.219-0.075-0.314V3.495
	c0.38-0.303,0.621-0.77,0.621-1.292V1.671C66.005,0.75,65.255,0,64.334,0h-2.752c-0.921,0-1.668,0.75-1.668,1.671v0.532
	c0,0.508,0.229,0.965,0.59,1.272c-0.061,0.102-0.092,0.218-0.088,0.338c0.044,2.622,0.061,6.025-0.045,6.994
	c-0.17,1.578-0.757,3.478-1.684,4.16l-0.191,0.136c-1.241,0.897-2.005,1.593-2.063,4.461c-0.055,2.817-0.161,20.576-0.164,20.763
	c0.007,0.751,0.147,1.399,0.406,1.91h-6.056c1.705-1.613,4.197-4.876,4.197-10.121c0-0.368-0.296-0.665-0.661-0.665H30.85
	c-0.31,0-0.579,0.218-0.647,0.525c-0.85,3.976,2.366,8.328,4.116,10.336h-3.52c-0.365,0-0.661,0.297-0.661,0.662
	c0,0.365,0.296,0.661,0.661,0.661h5.02c0.136,0,0.259-0.041,0.361-0.109c0.004,0,0.007-0.003,0.007-0.003
	c0.021-0.014,0.038-0.028,0.051-0.041c0.024-0.014,0.048-0.034,0.069-0.055c0.255-0.262,0.248-0.682-0.014-0.934
	c-0.055-0.055-5.347-5.258-4.876-9.715H53.48c-0.12,2.673-0.969,5.06-2.527,7.1c-1.265,1.653-2.551,2.448-2.565,2.455
	c-0.252,0.153-0.375,0.457-0.296,0.743c0.082,0.286,0.341,0.488,0.637,0.488h9.914h0.006c0.041,0,0.086-0.004,0.123-0.014h0.004
	c0.041-0.007,0.082-0.021,0.115-0.034c0.065-0.028,0.123-0.061,0.178-0.109c0.014-0.01,0.027-0.024,0.041-0.038
	c0.031-0.03,0.059-0.061,0.082-0.099c0.004-0.003,0.004-0.007,0.007-0.01c0.021-0.027,0.034-0.058,0.048-0.092
	c0.01-0.017,0.018-0.037,0.02-0.055c0.012-0.023,0.019-0.044,0.021-0.068c0.003-0.013,0.007-0.03,0.007-0.044
	c0.007-0.034,0.011-0.068,0.011-0.102c0-0.085-0.018-0.167-0.049-0.246c-0.013-0.031-0.027-0.061-0.047-0.088
	c-0.041-0.079-0.104-0.147-0.178-0.202c-0.034-0.023-0.068-0.044-0.106-0.061c-0.036-0.017-0.077-0.031-0.118-0.041
	c-0.041-0.01-0.082-0.017-0.127-0.021c-0.014-0.003-0.023-0.003-0.037-0.003c-0.958-0.088-1.043-1.49-1.051-1.91
	c0.004-0.18,0.109-17.929,0.164-20.736c0.048-2.353,0.539-2.708,1.514-3.414l0.198-0.143c1.341-0.982,2.025-3.27,2.22-5.088
	c0.119-1.128,0.086-4.811,0.062-6.482h2.377c-0.024,1.668-0.058,5.333,0.062,6.465c0.197,1.818,0.883,4.106,2.22,5.088l0.198,0.143
	c0.975,0.706,1.466,1.061,1.514,3.414c0.058,2.803,0.003,20.389,0.003,20.586c0.058,1.931-0.279,2.039-1.254,2.08
	c-0.365,0.014-0.648,0.321-0.635,0.686c0.014,0.365,0.327,0.644,0.686,0.634c0.03,0,0.058-0.003,0.085-0.003h0.003
	c0.031,0.003,0.063,0.007,0.092,0.007h15.458c0.324,0,0.601-0.232,0.655-0.549c0.055-0.318-0.126-0.628-0.43-0.737l-0.255-0.092
	c-2.641-1.006-4.895-3.652-4.097-6.759c0.28-1.074,0.979-1.674,1.787-2.37c0.847-0.726,1.8-1.551,2.172-2.99
	c0.116-0.454,0.219-0.897,0.314-1.324c0.583-2.584,0.921-3.716,3.072-3.693c0.105,0,0.205,0.007,0.304,0.014h0.075
	c0.03,0.007,0.061,0.01,0.092,0.014c0.76,0.055,1.306,0.286,1.664,0.712c0.726,0.866,0.573,2.401,0.48,3.319
	c-0.033,0.34-0.062,0.586-0.041,0.784c0.131,1.34,0.809,1.94,1.667,2.7c0.343,0.301,0.73,0.642,1.16,1.092
	c1.092,1.138,1.528,2.343,1.299,3.58c-0.337,1.807-2.175,3.738-4.691,4.925l-0.242,0.091c-0.3,0.117-0.474,0.427-0.416,0.741
	c0.059,0.313,0.331,0.542,0.651,0.542h6.827c0.364,0,0.661-0.297,0.661-0.665C95.267,42.534,94.97,42.237,94.605,42.237"/>
</svg>
