<?xml version="1.0" encoding="utf-8"?>
<!-- Generator: Adobe Illustrator 12.0.0, SVG Export Plug-In  -->
<!DOCTYPE svg PUBLIC "-//W3C//DTD SVG 1.1//EN" "http://www.w3.org/Graphics/SVG/1.1/DTD/svg11.dtd" [
	<!ENTITY ns_flows "http://ns.adobe.com/Flows/1.0/">
	<!ENTITY ns_svg "http://www.w3.org/2000/svg">
	<!ENTITY ns_xlink "http://www.w3.org/1999/xlink">
]>
<svg  version="1.1" xmlns="&ns_svg;" xmlns:xlink="&ns_xlink;" xmlns:a="http://ns.adobe.com/AdobeSVGViewerExtensions/3.0/"
	 width="100%" height="100%" viewBox="-0.73 -0.173 112 71" enable-background="new -0.73 -0.173 112 71" xml:space="preserve">
	 <style>
	 	svg { cursor: pointer; }
	 </style>
<defs>
</defs>
<polygon fill="#FFFFFF" points="4.196,54.856 9.613,54.856 9.613,58.671 4.196,58.671 4.196,69.694 0,69.694 0,42.993 11.1,42.993 
	11.1,46.808 4.196,46.808 "/>
<path fill="#FFFFFF" d="M16.975,63.553c0,1.908,0.839,2.632,2.174,2.632s2.174-0.724,2.174-2.632V49.135
	c0-1.907-0.839-2.632-2.174-2.632s-2.174,0.725-2.174,2.632V63.553z M12.778,49.401c0-4.271,2.251-6.713,6.37-6.713
	c4.12,0,6.37,2.441,6.37,6.713v13.886c0,4.271-2.25,6.713-6.37,6.713c-4.119,0-6.37-2.442-6.37-6.713V49.401z"/>
<path fill="#FFFFFF" d="M32.079,63.553c0,1.908,0.839,2.632,2.174,2.632s2.174-0.724,2.174-2.632V49.135
	c0-1.907-0.839-2.632-2.174-2.632s-2.174,0.725-2.174,2.632V63.553z M27.883,49.401c0-4.271,2.251-6.713,6.37-6.713
	c4.12,0,6.37,2.441,6.37,6.713v13.886c0,4.271-2.25,6.713-6.37,6.713c-4.119,0-6.37-2.442-6.37-6.713V49.401z"/>
<path fill="#FFFFFF" d="M47.528,46.808V65.88h2.365c1.335,0,2.136-0.687,2.136-2.594V49.401c0-1.906-0.801-2.594-2.136-2.594H47.528
	z M43.332,42.993h6.637c4.196,0,6.256,2.327,6.256,6.6v13.503c0,4.272-2.061,6.599-6.256,6.599h-6.637V42.993z"/>
<polygon fill="#FFFFFF" points="64.386,59.052 63.089,61.493 63.089,69.694 58.894,69.694 58.894,42.993 63.089,42.993 
	63.089,54.627 68.583,42.993 72.779,42.993 66.943,54.895 72.779,69.694 68.468,69.694 "/>
<rect x="74.685" y="42.994" fill="#FFFFFF" width="4.196" height="26.701"/>
<path fill="#FFFFFF" d="M94.1,59.739v3.547c0,4.271-2.137,6.714-6.256,6.714s-6.256-2.442-6.256-6.714V49.402
	c0-4.272,2.137-6.714,6.256-6.714S94.1,45.13,94.1,49.402v2.594h-3.967v-2.861c0-1.907-0.84-2.632-2.175-2.632
	s-2.175,0.725-2.175,2.632v14.418c0,1.908,0.84,2.595,2.175,2.595s2.175-0.687,2.175-2.595v-3.813H94.1z"/>
<polygon fill="#FFFFFF" points="102.148,59.052 100.85,61.493 100.85,69.694 96.655,69.694 96.655,42.993 100.85,42.993 
	100.85,54.627 106.343,42.993 110.54,42.993 104.704,54.895 110.54,69.694 106.229,69.694 "/>
<path fill="#FFFFFF" d="M73.912,18.215c-0.26,0-0.492,0.174-0.563,0.432c-0.035,0.132-0.06,0.274-0.06,0.424
	c0,0.221,0.058,0.465,0.189,0.677c0.104,0.167,0.286,0.271,0.483,0.276h0.014c0.138,0,0.27-0.049,0.374-0.135
	c0.04,0.002,0.078,0.01,0.121,0.023c0.088,0.03,0.193,0.094,0.309,0.202c0.171,0.16,0.352,0.415,0.504,0.702
	c0.023,0.042,0.045,0.085,0.066,0.128c-0.199,0.019-0.388,0.051-0.568,0.095c-0.28,0.068-0.539,0.168-0.771,0.298
	c-0.407,0.228-0.729,0.547-0.969,0.908c-0.183,0.271-0.323,0.566-0.441,0.874c-0.177,0.464-0.304,0.961-0.426,1.483
	c-0.121,0.521-0.236,1.067-0.38,1.623c-0.119,0.456-0.32,0.799-0.586,1.122c-0.201,0.241-0.44,0.466-0.702,0.696
	c-0.393,0.345-0.837,0.698-1.245,1.153c-0.203,0.228-0.396,0.483-0.562,0.773c-0.166,0.291-0.303,0.617-0.396,0.981
	c-0.122,0.474-0.18,0.938-0.18,1.389c0,0.678,0.133,1.324,0.369,1.917c0.356,0.891,0.942,1.665,1.66,2.299
	c0.287,0.253,0.596,0.484,0.92,0.695h-9.77h-1.761h-0.104c-0.058,0-0.114,0.008-0.167,0.022c-0.241,0.072-0.417,0.296-0.417,0.56
	c0,0.323,0.261,0.584,0.584,0.584h0.176h13.458c0.217,0,0.415-0.119,0.517-0.311c0.101-0.191,0.088-0.424-0.034-0.602l-0.235-0.345
	c-0.066-0.099-0.162-0.174-0.273-0.216c-1.048-0.398-2-1.036-2.677-1.828c-0.338-0.396-0.607-0.829-0.793-1.293
	c-0.185-0.464-0.285-0.957-0.287-1.484c0-0.35,0.046-0.715,0.145-1.097c0.122-0.469,0.326-0.821,0.595-1.148
	c0.201-0.244,0.44-0.472,0.702-0.702c0.393-0.346,0.835-0.695,1.241-1.146c0.202-0.224,0.394-0.475,0.559-0.762
	c0.165-0.286,0.302-0.609,0.394-0.969c0.176-0.682,0.306-1.324,0.443-1.889c0.103-0.424,0.209-0.804,0.336-1.126
	c0.095-0.241,0.199-0.448,0.316-0.619c0.178-0.258,0.374-0.438,0.65-0.572c0.275-0.133,0.647-0.221,1.172-0.221
	c0.022,0,0.045,0,0.067,0.001l0,0c0.089,0.001,0.176,0.006,0.27,0.012c0.013,0.001,0.025,0.001,0.038,0.001c0.01,0,0.019,0,0.028,0
	c0.021,0.004,0.044,0.007,0.066,0.01c0.467,0.044,0.809,0.151,1.062,0.286c0.188,0.101,0.329,0.218,0.444,0.349
	c0.17,0.197,0.284,0.435,0.357,0.711s0.102,0.59,0.102,0.907c0,0.317-0.028,0.637-0.058,0.929c-0.016,0.146-0.03,0.286-0.042,0.418
	c-0.013,0.132-0.022,0.256-0.022,0.38c0,0.059,0.002,0.119,0.01,0.182c0.007,0.064,0.018,0.132,0.044,0.21
	c0.168,0.512,0.319,0.89,0.488,1.2c0.126,0.232,0.265,0.426,0.411,0.591c0.111,0.123,0.225,0.23,0.339,0.329
	c0.171,0.149,0.343,0.283,0.54,0.45c0.196,0.168,0.418,0.369,0.688,0.649c0.441,0.46,0.74,0.905,0.929,1.327
	c0.189,0.423,0.269,0.824,0.271,1.215c0,0.456-0.112,0.905-0.323,1.352c-0.315,0.667-0.859,1.32-1.543,1.899
	c-0.684,0.581-1.502,1.09-2.343,1.484c-0.091,0.042-0.166,0.105-0.225,0.186l-0.236,0.323c-0.129,0.179-0.146,0.412-0.048,0.608
	c0.101,0.195,0.302,0.318,0.521,0.318h6.021c0.322,0,0.583-0.261,0.583-0.584c0-0.321-0.261-0.582-0.583-0.582h-4.104
	c0.702-0.45,1.353-0.973,1.901-1.559c0.454-0.486,0.839-1.018,1.111-1.595c0.273-0.576,0.435-1.201,0.435-1.852
	c0.002-0.556-0.118-1.128-0.37-1.69c-0.252-0.563-0.634-1.118-1.152-1.659c-0.354-0.369-0.649-0.628-0.89-0.828
	c-0.181-0.15-0.328-0.267-0.444-0.371c-0.176-0.158-0.286-0.276-0.417-0.494c-0.128-0.216-0.271-0.54-0.442-1.061
	c-0.001-0.01-0.001-0.027-0.001-0.05c-0.001-0.062,0.005-0.158,0.017-0.274c0.016-0.175,0.042-0.396,0.063-0.643
	c0.022-0.248,0.041-0.522,0.041-0.811c0-0.341-0.024-0.703-0.105-1.067c-0.062-0.273-0.154-0.548-0.294-0.812
	c-0.137-0.258-0.32-0.505-0.556-0.72c0.048-0.01,0.095-0.022,0.14-0.034l0,0c0.498-0.135,0.997-0.286,1.472-0.547
	c0.237-0.13,0.467-0.289,0.679-0.484c0.212-0.195,0.407-0.427,0.575-0.696c0.123-0.196,0.119-0.443-0.01-0.635
	c-0.278-0.417-0.658-0.711-1.063-0.886c-0.404-0.176-0.832-0.24-1.243-0.241c-0.308,0-0.608,0.037-0.893,0.096
	c-0.583,0.122-1.06,0.356-1.472,0.625c-0.211,0.138-0.408,0.283-0.602,0.431c-0.011-0.016-0.021-0.031-0.032-0.046
	c-0.257-0.339-0.587-0.594-0.938-0.778c-0.353-0.183-0.731-0.298-1.105-0.352C73.968,18.217,73.94,18.215,73.912,18.215
	 M76.64,20.433c0.239-0.184,0.456-0.349,0.669-0.488c0.336-0.217,0.655-0.371,1.075-0.46c0.216-0.045,0.438-0.071,0.653-0.071h0.002
	c0.287,0,0.555,0.047,0.776,0.145c0.105,0.046,0.201,0.102,0.289,0.171c-0.038,0.04-0.076,0.079-0.116,0.115
	c-0.204,0.188-0.438,0.329-0.716,0.451c-0.277,0.121-0.596,0.218-0.949,0.314h-0.001c-0.167,0.046-0.442,0.086-0.718,0.086h-0.008
	h-0.01c-0.251,0-0.503-0.035-0.681-0.1c-0.09-0.032-0.16-0.07-0.207-0.106C76.674,20.468,76.655,20.45,76.64,20.433"/>
<path fill="#FFFFFF" d="M48.022,27.739H27.468c-0.275,0-0.513,0.193-0.571,0.461c-0.086,0.4-0.124,0.803-0.124,1.204
	c0.001,1.137,0.307,2.254,0.75,3.293c0.667,1.558,1.645,2.949,2.458,3.962c0.194,0.242,0.379,0.463,0.549,0.658h1.318
	c0.322,0,0.584,0.261,0.584,0.582c0,0.227-0.128,0.423-0.316,0.52c0.06-0.029,0.115-0.068,0.164-0.118
	c0.224-0.231,0.219-0.601-0.013-0.825l0,0c-0.018-0.018-1.122-1.099-2.206-2.653c-0.542-0.778-1.078-1.674-1.473-2.606
	c-0.397-0.932-0.649-1.896-0.648-2.812c0-0.168,0.008-0.333,0.026-0.498h19.459c-0.06,1.338-0.325,2.497-0.697,3.496
	c-0.638,1.71-1.596,2.951-2.393,3.763c-0.398,0.405-0.756,0.703-1.01,0.896c-0.127,0.097-0.228,0.168-0.296,0.213
	c-0.033,0.023-0.059,0.039-0.075,0.05l-0.016,0.01l-0.003,0.002c-0.224,0.136-0.33,0.403-0.26,0.656s0.3,0.427,0.562,0.427h8.486
	h0.014c0.322,0,0.583-0.261,0.583-0.584c0-0.322-0.261-0.583-0.583-0.583h-1.505h-5.338c0.37-0.353,0.784-0.794,1.198-1.33
	c0.629-0.815,1.258-1.848,1.729-3.112c0.472-1.264,0.785-2.76,0.785-4.487c0-0.154-0.063-0.304-0.171-0.413
	C48.326,27.801,48.176,27.739,48.022,27.739"/>
<path fill="#FFFFFF" d="M31.848,37.316H30.53h-3.109c-0.322,0-0.584,0.261-0.584,0.584c0,0.322,0.262,0.583,0.584,0.583h4.427
	c0.097,0,0.188-0.022,0.268-0.063c0.188-0.099,0.316-0.293,0.316-0.52C32.432,37.577,32.17,37.316,31.848,37.316"/>
<path fill="#FFFFFF" d="M57,0L57,0h-2.429c-0.405,0-0.776,0.167-1.04,0.432c-0.265,0.264-0.432,0.634-0.431,1.039v0.471
	c-0.001,0.405,0.167,0.775,0.431,1.039c0.032,0.032,0.065,0.062,0.099,0.09c-0.058,0.094-0.088,0.204-0.087,0.316
	c0.017,1.001,0.03,2.179,0.03,3.251c0,0.656-0.005,1.273-0.016,1.784c-0.006,0.255-0.013,0.484-0.022,0.677
	c-0.009,0.193-0.02,0.352-0.031,0.455c-0.071,0.665-0.235,1.456-0.495,2.142c-0.129,0.344-0.282,0.661-0.451,0.923
	c-0.17,0.263-0.355,0.469-0.541,0.604c-0.251,0.186-0.497,0.354-0.736,0.556c-0.179,0.152-0.355,0.324-0.511,0.533
	c-0.236,0.313-0.42,0.701-0.539,1.18c-0.121,0.479-0.185,1.054-0.2,1.787c-0.013,0.634-0.028,2.09-0.044,3.924
	c-0.048,5.5-0.1,14.381-0.1,14.382v0.008c0.003,0.376,0.044,0.728,0.126,1.052c0.054,0.215,0.126,0.42,0.218,0.608h1.505
	c0.323,0,0.584,0.261,0.584,0.584c0,0.322-0.261,0.583-0.584,0.583h-0.013c0.074,0.013,0.149,0.021,0.226,0.025
	c0.01,0,0.021,0,0.031,0c0.308,0,0.566-0.24,0.583-0.553c0.017-0.322-0.23-0.596-0.552-0.613c-0.148-0.01-0.26-0.045-0.363-0.106
	c-0.076-0.046-0.148-0.106-0.216-0.19c-0.103-0.127-0.197-0.307-0.266-0.541c-0.068-0.235-0.109-0.523-0.112-0.855
	c0-0.037,0.002-0.277,0.004-0.678c0.009-1.528,0.033-5.383,0.061-9.129c0.013-1.874,0.028-3.72,0.041-5.235
	c0.014-1.514,0.027-2.699,0.038-3.241c0.012-0.602,0.061-1.057,0.136-1.402c0.055-0.259,0.124-0.454,0.201-0.612
	c0.117-0.235,0.249-0.394,0.436-0.563c0.187-0.168,0.435-0.34,0.736-0.56c0.334-0.245,0.604-0.563,0.831-0.913
	c0.34-0.527,0.586-1.138,0.768-1.758c0.182-0.621,0.298-1.25,0.359-1.815c0.015-0.145,0.027-0.319,0.036-0.526
	c0.029-0.617,0.039-1.522,0.039-2.515c0-0.875-0.008-1.816-0.02-2.677h2.095c-0.012,0.857-0.02,1.792-0.02,2.662
	c0,0.661,0.005,1.285,0.016,1.809c0.006,0.262,0.013,0.5,0.023,0.706c0.01,0.206,0.021,0.381,0.035,0.525
	c0.082,0.753,0.261,1.622,0.563,2.429c0.153,0.404,0.337,0.793,0.563,1.145c0.228,0.351,0.497,0.667,0.832,0.912
	c0.268,0.196,0.493,0.353,0.671,0.504c0.134,0.114,0.24,0.222,0.333,0.344c0.136,0.184,0.249,0.404,0.341,0.763
	c0.09,0.358,0.15,0.849,0.164,1.526c0.009,0.433,0.015,1.281,0.018,2.376c0.004,1.096,0.005,2.443,0.005,3.883
	c0,2.653-0.004,5.624-0.009,7.931c-0.003,1.153-0.005,2.142-0.007,2.84c-0.001,0.35-0.002,0.627-0.002,0.817
	c-0.001,0.191-0.001,0.293-0.001,0.293v0.019c0.003,0.11,0.005,0.215,0.005,0.314c0,0.35-0.022,0.629-0.064,0.833
	c-0.03,0.153-0.071,0.263-0.114,0.338c-0.032,0.056-0.064,0.097-0.102,0.13c-0.057,0.051-0.132,0.098-0.266,0.139
	c-0.07,0.021-0.156,0.039-0.258,0.054h1.761c0.071-0.183,0.118-0.376,0.15-0.58c0.043-0.279,0.06-0.58,0.06-0.913
	c0-0.11-0.001-0.223-0.005-0.339c0.001-0.291,0.02-6.687,0.02-11.875c0-1.441-0.002-2.788-0.005-3.887
	c-0.004-1.1-0.01-1.946-0.019-2.396c-0.014-0.652-0.065-1.178-0.161-1.624c-0.072-0.334-0.169-0.624-0.295-0.88
	c-0.187-0.384-0.438-0.681-0.704-0.918c-0.268-0.239-0.544-0.426-0.826-0.634c-0.185-0.135-0.371-0.34-0.54-0.604
	c-0.255-0.394-0.47-0.911-0.629-1.454s-0.264-1.113-0.318-1.611C58.02,9.434,58.009,9.276,58,9.084
	c-0.027-0.58-0.038-1.478-0.038-2.461c0-1.067,0.013-2.238,0.029-3.236c0.001-0.104-0.024-0.206-0.074-0.296
	C57.96,3.057,58,3.02,58.04,2.981c0.265-0.264,0.432-0.634,0.432-1.039V1.471c0-0.405-0.167-0.776-0.432-1.039
	C57.775,0.167,57.405,0,57,0 M54.571,2.245L54.571,2.245c-0.083,0-0.156-0.033-0.214-0.09c-0.057-0.057-0.09-0.13-0.09-0.213V1.471
	c0-0.083,0.033-0.156,0.09-0.214c0.058-0.057,0.131-0.09,0.214-0.09H57c0.083,0,0.155,0.033,0.214,0.09
	c0.057,0.058,0.089,0.131,0.09,0.214v0.471c0,0.083-0.033,0.156-0.09,0.213c-0.059,0.057-0.131,0.09-0.214,0.09H54.571z
	 M59.272,37.276c-0.012,0-0.025,0-0.038,0.002c-0.321,0.012-0.573,0.283-0.56,0.605c0.012,0.314,0.271,0.561,0.583,0.561
	c0.007,0,0.015,0,0.022,0c0.115-0.004,0.228-0.013,0.335-0.025h-0.176c-0.323,0-0.584-0.261-0.584-0.583
	C58.855,37.571,59.031,37.348,59.272,37.276"/>
</svg>
