<svg xmlns="http://www.w3.org/2000/svg" width="110" height="110" viewBox="0 0 110 110">
    <path fill="#F1A946" fill-rule="nonzero" d="M108.986 97.727L61.536 4.091C60.267 1.364 57.725 0 55.183 0c-2.542 0-5.084 1.364-6.355 4.09L.953 98.637c-1.27 2.273-1.27 5.455 0 7.728C2.224 108.636 4.766 110 7.308 110h95.324c3.813 0 7.202-3.636 7.202-7.727.423-1.364 0-3.182-.848-4.546zM55 102.936c-5.273 0-9.587-3.86-9.587-8.578S49.727 85.78 55 85.78s9.587 3.86 9.587 8.578-4.314 8.578-9.587 8.578zm5.273-35.011c-.48 2.368-2.876 4.736-5.273 4.736s-4.794-2.368-5.273-4.736c-1.917-10.419-3.355-22.258-4.314-31.73 0-2.368 1.438-4.736 3.835-5.21 4.314-.947 6.71-.947 11.025 0 2.876.474 4.314 2.842 4.314 5.21-.959 9.472-2.397 21.311-4.314 31.73z"/>
</svg>
