<?xml version="1.0" encoding="utf-8"?>
<!-- Generator: Adobe Illustrator 12.0.0, SVG Export Plug-In . SVG Version: 6.00 Build 51448)  -->
<!DOCTYPE svg PUBLIC "-//W3C//DTD SVG 1.1//EN" "http://www.w3.org/Graphics/SVG/1.1/DTD/svg11.dtd" [
	<!ENTITY ns_svg "http://www.w3.org/2000/svg">
	<!ENTITY ns_xlink "http://www.w3.org/1999/xlink">
]>
<svg  version="1.1" id="Layer_1" xmlns="&ns_svg;" xmlns:xlink="&ns_xlink;" width="83.522" height="81.752"
	 viewBox="0 0 83.522 81.752" overflow="visible" enable-background="new 0 0 83.522 81.752" xml:space="preserve">
<g id="smiley">
	<rect x="33.417" y="69.563" fill="#FFFFFF" width="21.078" height="12.189"/>
	<path fill="none" stroke="#722A81" stroke-width="4" stroke-linecap="round" stroke-linejoin="round" stroke-miterlimit="10" d="
		M29.545,32.652L29.545,32.652c-1.411,0-2.564-1.154-2.564-2.565s1.153-2.564,2.564-2.564s2.565,1.153,2.565,2.564
		S30.956,32.652,29.545,32.652z"/>
	<path fill="none" stroke="#722A81" stroke-width="4" stroke-linecap="round" stroke-linejoin="round" stroke-miterlimit="10" d="
		M53.785,32.652L53.785,32.652c-1.411,0-2.564-1.154-2.564-2.565s1.153-2.564,2.564-2.564s2.565,1.153,2.565,2.564
		S55.196,32.652,53.785,32.652z"/>
	<path fill="none" stroke="#722A81" stroke-width="4" stroke-linecap="round" stroke-linejoin="round" stroke-miterlimit="10" d="
		M23.224,53.442C29.963,67.39,54.495,67.014,60.106,52.5"/>
	<path fill="none" stroke="#722A81" stroke-width="4" stroke-linecap="round" stroke-linejoin="round" stroke-miterlimit="10" d="
		M51.59,79.65c17.207-4.338,29.933-19.804,29.933-38.219C81.522,19.653,63.722,2,41.762,2S2,19.653,2,41.431
		c0,18.434,12.754,33.912,29.987,38.231"/>
</g>
</svg>
