<?xml version="1.0" encoding="utf-8"?>
<!-- Generator: Adobe Illustrator 12.0.0, SVG Export Plug-In  -->
<!DOCTYPE svg PUBLIC "-//W3C//DTD SVG 1.1//EN" "http://www.w3.org/Graphics/SVG/1.1/DTD/svg11.dtd" [
	<!ENTITY ns_flows "http://ns.adobe.com/Flows/1.0/">
	<!ENTITY ns_svg "http://www.w3.org/2000/svg">
	<!ENTITY ns_xlink "http://www.w3.org/1999/xlink">
]>
<svg  version="1.1" xmlns="&ns_svg;" xmlns:xlink="&ns_xlink;" xmlns:a="http://ns.adobe.com/AdobeSVGViewerExtensions/3.0/"
	 width="100%" height="100%" viewBox="12.166 4.48 1188 597" style="enable-background:new 12.166 4.48 1188 597;"
	 xml:space="preserve">
<defs>
</defs>
<g style="display:none;">
	<defs>
		<rect id="XMLID_3_" x="1.166" width="1200" height="601.995"/>
	</defs>
	<clipPath id="XMLID_6_" style="display:inline;">
		<use xlink:href="#XMLID_3_"  style="display:none;"/>
	</clipPath>
	<g style="clip-path:url(#XMLID_6_);">
		<defs>
			<rect id="XMLID_4_" x="1.166" y="6.995" width="1200" height="594"/>
		</defs>
		<use xlink:href="#XMLID_4_"  style="fill:#402666;"/>
		<clipPath id="XMLID_7_" style="display:inline;">
			<use xlink:href="#XMLID_4_"  style="display:none;"/>
		</clipPath>
		<g style="clip-path:url(#XMLID_7_);">
			<defs>
				<rect id="XMLID_5_" x="0.001" y="5.84" width="1202.36" height="596.284"/>
			</defs>
			<clipPath id="XMLID_8_" style="display:inline;">
				<use xlink:href="#XMLID_5_"  style="display:none;"/>
			</clipPath>
		</g>
	</g>
</g>
<g>
	<defs>
		<path id="XMLID_2_" d="M890.604,4.822c0,0-5.888,0.912-7.209,2.979l0,0c-0.87,1.361-0.937,1.333-0.971,1.305l0,0
			c-0.02-0.016-0.029-0.03-0.138,0.148l0,0c-1.5,2.468-3.002,4.937-4.308,7.517l0,0c-1.576,3.115-2.887,6.544-2.579,10.038l0,0
			c0.465,5.251,2.714,7.108,5.5,7.108l0,0c3.507,0,7.864-2.945,10.579-5.782l0,0c8.374-8.754,19.218-12.127,30.868-12.126l0,0
			c23.619,0.001,50.544,13.87,66.882,24.901l0,0c4.815,3.251,9.875,7.19,12.502,12.606l0,0c2.79,5.752,2.756,12.25,5.235,18.082l0,0
			c2.443,5.748,6.501,10.737,11.195,14.709l0,0c7.306,6.179,16.105,10.159,24.795,14.024l0,0
			c15.291,6.801,29.639,15.159,42.038,26.661l0,0c4.094,3.798,6.372,5.838,11.568,7.753l0,0c2.428,0.896,6.123,1.263,8.678,1.263
			l0,0c4.516,0,19.265,0.683,19.837,2.521l0,0c0.342,3.72-24.694-0.074-32.53,4.649l0,0c-6.675,4.023-3.652,9.291-2.74,13.007l0,0
			c0.914,6.502,7.306,19.508,5.516,21.448l0,0c-3.293,3.568-12.873-20.933-15.111-29.874l0,0
			c-3.23-12.902-9.166-25.87-19.978-33.271l0,0c-11.688-8.004-27.125-8.237-39.07-15.833l0,0
			c-12.371-7.869-18.993-22.193-27.386-34.386l0,0c-10.725-15.585-25.559-28.655-43.211-34.711l0,0
			c-6.334-2.173-13.199-3.26-20.11-3.26l0,0c-24.617,0-46.39,7.231-52.795,37.738l0,0c-3.646,17.37,3.175,35.181,3.254,52.947l0,0
			c0.204,45.632-42.993,82.081-43.957,127.703l0,0c-0.339,15.991,4.635,32.269,0.748,47.759l0,0
			c-2.883,11.486-14.384,21.479-24.836,21.479l0,0c-3.644,0-7.159-1.214-10.139-4.003l0,0c-6.296-5.895-7.04-15.957-12.529-22.643
			l0,0c-5.143-6.264-12.928-8.174-21.147-8.174l0,0c-5.292,0-10.765,0.792-15.828,1.723l0,0c-16.417,3.021-32.833,6.039-49.25,9.061
			l0,0c-5.462,1.004-11.114,2.087-15.67,5.332l0,0c-4.673,3.329-7.666,8.56-10.328,13.714l0,0
			c-23.249,45.007-33.574,98.382-68.31,134.807l0,0c-12.412,13.016-27.511,23.301-38.708,37.425l0,0
			c-11.197,14.123-17.998,34.186-10.335,50.6l0,0c6.482,13.88,21.19,21.289,34.854,27.682l0,0
			c12.294,5.751,26.799,11.176,39.95,11.176l0,0c8.875,0,17.136-2.473,23.676-8.984l0,0c1.23-1.226,36.581-34.598,29.556-0.539l0,0
			c-3.699,17.936-7.972,29.574-13.724,38.049c3.845,2.28,524.208,1.166,524.208,1.166l-0.919-595.495c-13.982,0-52.291,0-97.326,0
			l0,0C1010.825,4.822,893.82,4.822,890.604,4.822"/>
	</defs>
	<clipPath id="XMLID_9_">
		<use xlink:href="#XMLID_2_" />
	</clipPath>
	<g style="clip-path:url(#XMLID_9_);">
		<image width="1331" height="1289" xlink:href="/foodkick/assets/svg_and_images/section_3/E60ADB86_fix.jpg"  transform="matrix(0 0.4474 -0.5364 0 1200.1553 6.0264)">
		</image>
	</g>
</g>
<path id="shape:manhattan_2_" style="opacity:0.4;fill:#FFFFFF;" d="M612.322,4.589c-2.984,0.221-1.474,6.243-2.133,8.633
	c-1.125,4.079-2.116,8.195-2.974,12.339c-0.215,1.044-0.417,2.089-0.604,3.134c-2.176,12.056-2.644,24.147-4.022,36.321
	c-3.647,31.922-7.067,63.883-10.389,95.843c-0.607,5.84-0.36,12.629-1.83,18.258c-0.175,0.669-0.393,1.353-0.855,1.866
	c-0.694,0.774-1.798,1.018-2.832,1.121c-0.633,0.064-1.267,0.093-1.899,0.093c-3.314,0-6.622-0.762-9.94-1.075
	c-0.388-0.037-0.764-0.059-1.125-0.059c-2.219,0-3.888,0.773-4.402,3.292c-6.269,30.711-13.124,61.417-14.138,92.869
	c-0.165,5.106-1.078,10.11-0.624,15.257c1.467,16.626,15.991,23.843,30.901,23.843c8.057,0,16.224-2.106,22.51-5.973
	c22.631-13.919,39.085-36.729,63.571-47.847c2.474-1.124,5.016-2.1,7.62-2.876c26.961-8.038,54.874-12.371,83.011-12.371
	c1.01,0,2.017,0.005,3.029,0.016c1.713,0.02,3.446,0.051,5.182,0.051c6.479,0,12.988-0.422,18.638-3.422
	c10.062-5.345,15.29-17.486,20.153-27.212c4.493-8.986,6.569-18.617,9.227-28.361c4.39-16.096,7.856-32.405,10.448-48.888
	c1.975-12.561,10.548-32.711,5.515-44.686c-1.25-2.973-3.281-5.545-5.377-7.997c-4.794-5.61-12.837-9.923-13.837-17.234
	c-1.198-8.766,1.478-12.681-3.554-20.504c-0.14-0.218-0.022-0.305,0.259-0.305c1.093,0,4.665,1.306,5.529,1.471
	c0.823,0.157,1.661,0.255,2.494,0.255c1.306,0,2.598-0.239,3.79-0.866c5.542-2.913,5.783-11.273,6.252-16.637
	c0.67-7.666,0.585-15.398-0.261-23.048c-0.091-0.812-0.371-5.067-1.634-5.067C824.238,4.822,612.934,4.544,612.322,4.589"/>
<g>
	<path style="fill:#FFFFFF;" d="M888.241,215.459h1.968l1.345,5.927l1.464-5.927h1.656l1.523,5.963l1.393-5.963h1.8l-2.088,8.578
		h-1.98l-1.548-5.927l-1.572,5.927h-1.872L888.241,215.459z"/>
	<path style="fill:#FFFFFF;" d="M901.874,215.459h1.956v8.578h-1.956V215.459z"/>
	<path style="fill:#FFFFFF;" d="M906.974,215.459h1.944v7.055h3.492v1.523h-5.437V215.459z"/>
	<path style="fill:#FFFFFF;" d="M914.954,215.459h1.944v7.055h3.492v1.523h-5.437V215.459z"/>
	<path style="fill:#FFFFFF;" d="M922.97,215.459h1.956v8.578h-1.956V215.459z"/>
	<path style="fill:#FFFFFF;" d="M930.227,215.459h2.532l2.784,8.578h-2.028l-0.588-1.906h-3.108l-0.588,1.906h-1.824
		L930.227,215.459z M930.238,220.748h2.269l-1.128-3.705L930.238,220.748z"/>
	<path style="fill:#FFFFFF;" d="M937.981,215.459h2.568l2.004,5.339l1.979-5.339h2.521v8.578h-1.933v-6.022l-2.376,6.022h-0.636
		l-2.388-6.022v6.022h-1.74V215.459z"/>
	<path style="fill:#FFFFFF;" d="M953.17,224.17c-0.592,0-1.104-0.066-1.536-0.198c-0.432-0.132-0.792-0.322-1.08-0.57
		s-0.508-0.544-0.66-0.888c-0.151-0.344-0.239-0.731-0.264-1.164h1.86c0.023,0.192,0.063,0.375,0.12,0.547
		c0.056,0.173,0.147,0.318,0.275,0.438c0.128,0.129,0.294,0.23,0.498,0.307s0.466,0.114,0.786,0.114
		c0.432,0,0.776-0.106,1.032-0.318s0.384-0.486,0.384-0.822c0-0.168-0.026-0.313-0.078-0.433s-0.138-0.224-0.258-0.313
		c-0.128-0.08-0.296-0.149-0.504-0.21c-0.208-0.06-0.468-0.114-0.78-0.162c-0.552-0.071-1.022-0.17-1.41-0.294
		s-0.706-0.29-0.954-0.498c-0.256-0.2-0.441-0.449-0.558-0.745s-0.174-0.652-0.174-1.069c0-0.368,0.074-0.708,0.222-1.021
		c0.148-0.313,0.358-0.584,0.63-0.816c0.272-0.225,0.601-0.4,0.984-0.528s0.812-0.192,1.284-0.192c0.968,0,1.726,0.214,2.273,0.643
		s0.862,1.071,0.942,1.928h-1.788c-0.056-0.384-0.204-0.67-0.444-0.858c-0.239-0.188-0.567-0.282-0.983-0.282
		c-0.433,0-0.754,0.09-0.967,0.271c-0.212,0.18-0.317,0.414-0.317,0.702c0,0.152,0.021,0.286,0.065,0.402s0.126,0.214,0.246,0.294
		c0.112,0.088,0.272,0.164,0.48,0.229s0.476,0.12,0.804,0.168c0.521,0.064,0.976,0.154,1.368,0.271
		c0.392,0.115,0.72,0.27,0.984,0.462c0.264,0.199,0.462,0.452,0.594,0.756s0.198,0.676,0.198,1.116c0,0.384-0.076,0.742-0.229,1.074
		c-0.151,0.332-0.368,0.618-0.647,0.858c-0.28,0.248-0.625,0.443-1.032,0.588C954.13,224.098,953.674,224.17,953.17,224.17z"/>
	<path style="fill:#FFFFFF;" d="M959.102,215.459h3.372c0.944,0,1.654,0.188,2.13,0.563c0.477,0.376,0.715,0.932,0.715,1.667v0.048
		c0,0.455-0.112,0.841-0.337,1.156c-0.224,0.316-0.575,0.542-1.056,0.678c0.561,0.112,0.986,0.332,1.278,0.66
		s0.438,0.78,0.438,1.356v0.048c0,0.793-0.252,1.391-0.756,1.795s-1.256,0.606-2.256,0.606h-3.528V215.459z M962.162,218.982
		c0.472,0,0.808-0.088,1.008-0.264s0.3-0.456,0.3-0.84v-0.048c0-0.36-0.105-0.624-0.317-0.792c-0.213-0.168-0.547-0.252-1.002-0.252
		h-1.152v2.195H962.162z M962.33,222.693c0.479,0,0.832-0.104,1.056-0.313s0.336-0.508,0.336-0.899v-0.049
		c0-0.4-0.116-0.7-0.348-0.9c-0.232-0.199-0.612-0.3-1.14-0.3h-1.236v2.461H962.33z"/>
	<path style="fill:#FFFFFF;" d="M971.738,224.17c-1.136,0-2.01-0.294-2.622-0.882s-0.918-1.454-0.918-2.598v-5.231h1.956v5.112
		c0,0.72,0.118,1.242,0.354,1.565c0.236,0.324,0.65,0.486,1.242,0.486c0.576,0,0.996-0.158,1.26-0.474
		c0.265-0.316,0.396-0.866,0.396-1.65v-5.04h1.956v5.159c0,1.176-0.312,2.062-0.937,2.658
		C973.803,223.872,972.906,224.17,971.738,224.17z"/>
	<path style="fill:#FFFFFF;" d="M978.385,215.459h3.072c0.504,0,0.96,0.052,1.368,0.156c0.408,0.104,0.756,0.264,1.044,0.479
		s0.51,0.487,0.666,0.815s0.234,0.712,0.234,1.151v0.048c0,0.328-0.045,0.616-0.133,0.864s-0.212,0.464-0.371,0.647
		c-0.16,0.184-0.349,0.34-0.564,0.468s-0.448,0.228-0.696,0.3l2.269,3.648h-2.064l-2.052-3.313h-0.84v3.313h-1.933V215.459z
		 M981.409,219.404c0.488,0,0.854-0.104,1.098-0.313s0.366-0.516,0.366-0.924v-0.048c0-0.44-0.126-0.746-0.378-0.919
		c-0.252-0.172-0.614-0.258-1.086-0.258h-1.092v2.461H981.409z"/>
	<path style="fill:#FFFFFF;" d="M991.502,224.17c-0.704,0-1.326-0.108-1.866-0.324s-0.994-0.52-1.361-0.912
		c-0.376-0.384-0.66-0.842-0.853-1.374c-0.191-0.531-0.288-1.117-0.288-1.758v-0.096c0-0.648,0.108-1.24,0.324-1.775
		c0.216-0.536,0.52-0.996,0.912-1.381c0.384-0.384,0.844-0.684,1.38-0.899s1.12-0.324,1.752-0.324c0.48,0,0.938,0.056,1.374,0.168
		s0.826,0.288,1.17,0.528c0.344,0.248,0.63,0.562,0.858,0.941c0.228,0.381,0.365,0.834,0.414,1.362h-1.933
		c-0.088-0.503-0.29-0.872-0.605-1.107c-0.316-0.235-0.734-0.354-1.254-0.354c-0.752,0-1.334,0.258-1.746,0.773
		s-0.618,1.214-0.618,2.093v0.096c0,0.416,0.046,0.798,0.138,1.146c0.092,0.349,0.234,0.646,0.427,0.894
		c0.191,0.256,0.438,0.454,0.737,0.594s0.662,0.21,1.086,0.21c0.36,0,0.668-0.048,0.924-0.144c0.257-0.097,0.469-0.229,0.637-0.396
		c0.168-0.16,0.292-0.351,0.372-0.57s0.123-0.454,0.132-0.702h-1.933v-1.414h3.853v0.912c0,0.575-0.09,1.098-0.271,1.565
		c-0.18,0.468-0.441,0.865-0.785,1.193c-0.345,0.336-0.767,0.596-1.267,0.779C992.712,224.078,992.142,224.17,991.502,224.17z"/>
</g>
<g>
	<path style="fill:#FFFFFF;" d="M1049.954,246.695h3.372c0.944,0,1.654,0.188,2.13,0.563c0.477,0.376,0.714,0.932,0.714,1.667v0.048
		c0,0.455-0.111,0.841-0.336,1.156c-0.224,0.316-0.576,0.542-1.056,0.678c0.56,0.112,0.986,0.332,1.278,0.66s0.438,0.78,0.438,1.356
		v0.048c0,0.793-0.252,1.391-0.756,1.795s-1.256,0.606-2.256,0.606h-3.528V246.695z M1053.015,250.219
		c0.472,0,0.808-0.088,1.008-0.264s0.3-0.456,0.3-0.84v-0.048c0-0.36-0.105-0.624-0.317-0.792s-0.546-0.252-1.003-0.252h-1.151
		v2.195H1053.015z M1053.183,253.93c0.479,0,0.832-0.104,1.056-0.313s0.336-0.508,0.336-0.899v-0.049c0-0.4-0.116-0.7-0.348-0.9
		c-0.232-0.199-0.612-0.3-1.141-0.3h-1.235v2.461H1053.183z"/>
	<path style="fill:#FFFFFF;" d="M1062.579,255.406c-1.136,0-2.01-0.294-2.622-0.882s-0.918-1.454-0.918-2.598v-5.231h1.956v5.112
		c0,0.72,0.118,1.242,0.354,1.565c0.235,0.324,0.649,0.486,1.241,0.486c0.576,0,0.996-0.158,1.261-0.474
		c0.264-0.316,0.396-0.866,0.396-1.65v-5.04h1.956v5.159c0,1.176-0.313,2.062-0.936,2.658
		C1064.643,255.108,1063.747,255.406,1062.579,255.406z"/>
	<path style="fill:#FFFFFF;" d="M1072.223,255.406c-0.592,0-1.104-0.066-1.536-0.198c-0.432-0.132-0.792-0.322-1.08-0.57
		s-0.508-0.544-0.66-0.888c-0.151-0.344-0.239-0.731-0.264-1.164h1.86c0.023,0.192,0.063,0.375,0.12,0.547
		c0.056,0.173,0.147,0.318,0.275,0.438c0.128,0.129,0.294,0.23,0.498,0.307s0.466,0.114,0.786,0.114
		c0.432,0,0.776-0.106,1.032-0.318s0.384-0.486,0.384-0.822c0-0.168-0.026-0.313-0.078-0.433s-0.138-0.224-0.258-0.313
		c-0.128-0.08-0.296-0.149-0.504-0.21c-0.208-0.06-0.468-0.114-0.78-0.162c-0.552-0.071-1.022-0.17-1.41-0.294
		s-0.706-0.29-0.954-0.498c-0.256-0.2-0.441-0.449-0.558-0.745s-0.174-0.652-0.174-1.069c0-0.368,0.074-0.708,0.222-1.021
		c0.148-0.313,0.358-0.584,0.63-0.816c0.272-0.225,0.601-0.4,0.984-0.528s0.812-0.192,1.284-0.192c0.968,0,1.726,0.214,2.273,0.643
		s0.862,1.071,0.942,1.928h-1.788c-0.056-0.384-0.204-0.67-0.444-0.858c-0.239-0.188-0.567-0.282-0.983-0.282
		c-0.433,0-0.754,0.09-0.967,0.271c-0.212,0.18-0.317,0.414-0.317,0.702c0,0.152,0.021,0.286,0.065,0.402s0.126,0.214,0.246,0.294
		c0.112,0.088,0.272,0.164,0.48,0.229s0.476,0.12,0.804,0.168c0.521,0.064,0.976,0.154,1.368,0.271
		c0.392,0.115,0.72,0.27,0.984,0.462c0.264,0.199,0.462,0.452,0.594,0.756s0.198,0.676,0.198,1.116c0,0.384-0.076,0.742-0.229,1.074
		c-0.151,0.332-0.368,0.618-0.647,0.858c-0.28,0.248-0.625,0.443-1.032,0.588C1073.183,255.334,1072.727,255.406,1072.223,255.406z"
		/>
	<path style="fill:#FFFFFF;" d="M1078.152,246.695h1.944v3.5h3.444v-3.5h1.943v8.578h-1.943v-3.539h-3.444v3.539h-1.944V246.695z"/>
	<path style="fill:#FFFFFF;" d="M1087.896,246.695h1.969l1.344,5.927l1.464-5.927h1.656l1.523,5.963l1.393-5.963h1.8l-2.088,8.578
		h-1.98l-1.548-5.927l-1.572,5.927h-1.872L1087.896,246.695z"/>
	<path style="fill:#FFFFFF;" d="M1101.518,246.695h1.956v8.578h-1.956V246.695z"/>
	<path style="fill:#FFFFFF;" d="M1110.479,255.406c-0.704,0-1.324-0.104-1.859-0.312c-0.536-0.209-0.984-0.504-1.345-0.889
		c-0.368-0.376-0.644-0.832-0.828-1.367c-0.184-0.536-0.275-1.137-0.275-1.801v-0.096c0-0.648,0.107-1.242,0.323-1.782
		c0.217-0.54,0.517-1.002,0.9-1.386c0.376-0.384,0.824-0.682,1.344-0.894c0.521-0.212,1.084-0.318,1.692-0.318
		c0.512,0,0.99,0.063,1.434,0.192c0.444,0.127,0.834,0.319,1.171,0.575c0.327,0.256,0.598,0.579,0.81,0.971s0.342,0.852,0.39,1.379
		h-1.992c-0.071-0.519-0.254-0.91-0.546-1.178c-0.292-0.267-0.71-0.4-1.254-0.4c-0.68,0-1.22,0.248-1.62,0.744
		c-0.399,0.495-0.6,1.191-0.6,2.087v0.096c0,0.896,0.194,1.588,0.582,2.076c0.388,0.487,0.938,0.731,1.65,0.731
		c0.535,0,0.978-0.137,1.325-0.409c0.349-0.272,0.563-0.686,0.643-1.239h1.908c-0.057,0.528-0.188,0.995-0.396,1.399
		s-0.479,0.738-0.815,1.003c-0.337,0.272-0.729,0.477-1.177,0.612S1111.007,255.406,1110.479,255.406z"/>
	<path style="fill:#FFFFFF;" d="M1116.839,246.695h1.944v3.693l3-3.709h2.064l-3.396,4.069l3.564,4.524h-2.269l-2.964-3.853v3.853
		h-1.944V246.695z"/>
</g>
<path style="fill:#FFFFFF;" d="M1075.394,347.649h3.372c1.872,0,2.844,0.768,2.844,2.232v0.048c0,0.899-0.432,1.56-1.392,1.836
	c1.115,0.228,1.716,0.863,1.716,2.016v0.048c0,1.572-1.032,2.4-3.012,2.4h-3.528V347.649z M1078.453,351.178
	c0.937,0,1.309-0.337,1.309-1.104v-0.048c0-0.72-0.408-1.044-1.32-1.044h-1.152v2.196H1078.453z M1078.621,354.886
	c0.96,0,1.393-0.433,1.393-1.213v-0.048c0-0.792-0.433-1.199-1.488-1.199h-1.236v2.46H1078.621z M1084.411,347.649h5.592v1.512
	h-3.659v2.004h2.928v1.416h-2.928v2.137h3.852v1.512h-5.784V347.649z M1092.661,347.649h2.809c3.012,0,4.5,1.632,4.5,4.2v0.096
	c0,2.568-1.5,4.284-4.513,4.284h-2.796V347.649z M1095.397,354.718c1.728,0,2.544-0.973,2.544-2.748v-0.097
	c0-1.764-0.756-2.712-2.568-2.712h-0.768v5.557H1095.397z M1102.268,351.598h3.384v1.428h-3.384V351.598z M1107.733,353.541h1.86
	c0.084,0.769,0.407,1.404,1.68,1.404c0.852,0,1.416-0.468,1.416-1.14c0-0.685-0.36-0.924-1.62-1.116
	c-2.196-0.288-3.096-0.948-3.096-2.604c0-1.464,1.224-2.556,3.12-2.556c1.932,0,3.06,0.864,3.216,2.568h-1.788
	c-0.12-0.78-0.576-1.141-1.428-1.141c-0.853,0-1.284,0.396-1.284,0.973c0,0.611,0.275,0.899,1.596,1.092
	c2.076,0.264,3.144,0.828,3.144,2.604c0,1.524-1.248,2.736-3.275,2.736C1108.921,356.361,1107.841,355.258,1107.733,353.541z
	 M1118.503,349.161h-2.315v-1.512h6.588v1.512h-2.316v7.068h-1.956V349.161z M1125.025,352.882v-5.232h1.956v5.112
	c0,1.428,0.42,2.052,1.596,2.052c1.152,0,1.656-0.552,1.656-2.124v-5.04h1.956v5.16c0,2.34-1.309,3.552-3.624,3.552
	C1126.31,356.361,1125.025,355.161,1125.025,352.882z M1137.14,352.533l-2.832-4.884h2.136l1.74,3.288l1.704-3.288h1.884
	l-2.676,4.884v3.696h-1.956V352.533z"/>
<line style="fill:none;stroke:#2D2E37;stroke-width:2.371;stroke-linecap:round;" x1="932.468" y1="237.842" x2="938.709" y2="237.842"/>
<line style="fill:none;stroke:#2D2E37;stroke-width:2.371;stroke-linecap:round;" x1="935.246" y1="237.938" x2="941.627" y2="253.973"/>
<line style="fill:none;stroke:#2D2E37;stroke-width:2.371;stroke-linecap:round;" x1="942.053" y1="253.974" x2="952.184" y2="242.869"/>
<line style="fill:none;stroke:#2D2E37;stroke-width:2.371;stroke-linecap:round;" x1="936.635" y1="241.529" x2="951.212" y2="241.529"/>
<line style="fill:none;stroke:#2D2E37;stroke-width:2.371;stroke-linecap:round;" x1="936.209" y1="241.688" x2="930.522" y2="252.887"/>
<line style="fill:none;stroke:#2D2E37;stroke-width:2.371;stroke-linecap:round;" x1="930.52" y1="253.345" x2="941.691" y2="254.021"/>
<path style="fill:none;stroke:#2D2E37;stroke-width:2.371;stroke-linecap:round;" d="M947.331,236.388c0,0,1.991-0.426,3.053,0.544
	c1.063,0.968,6.106,17.067,6.106,17.067"/>
<circle style="fill:none;stroke:#2D2E37;stroke-width:2.371;stroke-linecap:round;" cx="930.171" cy="254.027" r="7.011"/>
<circle style="fill:none;stroke:#2D2E37;stroke-width:2.371;stroke-linecap:round;" cx="956.286" cy="254.027" r="7.011"/>
<line style="fill:none;stroke:#2D2E37;stroke-width:2.371;stroke-linecap:round;" x1="938.968" y1="105.842" x2="945.209" y2="105.842"/>
<line style="fill:none;stroke:#2D2E37;stroke-width:2.371;stroke-linecap:round;" x1="941.746" y1="105.938" x2="948.127" y2="121.973"/>
<line style="fill:none;stroke:#2D2E37;stroke-width:2.371;stroke-linecap:round;" x1="948.553" y1="121.974" x2="958.684" y2="110.869"/>
<line style="fill:none;stroke:#2D2E37;stroke-width:2.371;stroke-linecap:round;" x1="943.135" y1="109.529" x2="957.712" y2="109.529"/>
<line style="fill:none;stroke:#2D2E37;stroke-width:2.371;stroke-linecap:round;" x1="942.709" y1="109.688" x2="937.022" y2="120.887"/>
<line style="fill:none;stroke:#2D2E37;stroke-width:2.371;stroke-linecap:round;" x1="937.02" y1="121.345" x2="948.191" y2="122.021"/>
<path style="fill:none;stroke:#2D2E37;stroke-width:2.371;stroke-linecap:round;" d="M953.831,104.388c0,0,1.991-0.426,3.053,0.544
	c1.063,0.968,6.106,17.067,6.106,17.067"/>
<circle style="fill:none;stroke:#2D2E37;stroke-width:2.371;stroke-linecap:round;" cx="936.671" cy="122.027" r="7.011"/>
<circle style="fill:none;stroke:#2D2E37;stroke-width:2.371;stroke-linecap:round;" cx="962.786" cy="122.027" r="7.011"/>
<line style="fill:none;stroke:#2D2E37;stroke-width:2.371;stroke-linecap:round;" x1="1078.214" y1="269.398" x2="1084.456" y2="269.398"/>
<line style="fill:none;stroke:#2D2E37;stroke-width:2.371;stroke-linecap:round;" x1="1080.992" y1="269.495" x2="1087.373" y2="285.53"/>
<line style="fill:none;stroke:#2D2E37;stroke-width:2.371;stroke-linecap:round;" x1="1087.799" y1="285.53" x2="1097.93" y2="274.426"/>
<line style="fill:none;stroke:#2D2E37;stroke-width:2.371;stroke-linecap:round;" x1="1082.381" y1="273.086" x2="1096.958" y2="273.086"/>
<line style="fill:none;stroke:#2D2E37;stroke-width:2.371;stroke-linecap:round;" x1="1081.955" y1="273.245" x2="1076.27" y2="284.443"/>
<line style="fill:none;stroke:#2D2E37;stroke-width:2.371;stroke-linecap:round;" x1="1076.266" y1="284.901" x2="1087.438" y2="285.577"/>
<path style="fill:none;stroke:#2D2E37;stroke-width:2.371;stroke-linecap:round;" d="M1093.077,267.945c0,0,1.991-0.426,3.054,0.543
	c1.062,0.968,6.105,17.068,6.105,17.068"/>
<circle style="fill:none;stroke:#2D2E37;stroke-width:2.371;stroke-linecap:round;" cx="1075.917" cy="285.584" r="7.01"/>
<circle style="fill:none;stroke:#2D2E37;stroke-width:2.371;stroke-linecap:round;" cx="1102.033" cy="285.584" r="7.01"/>
<line style="fill:none;stroke:#2D2E37;stroke-width:2.371;stroke-linecap:round;" x1="1097.721" y1="368.842" x2="1103.963" y2="368.842"/>
<line style="fill:none;stroke:#2D2E37;stroke-width:2.371;stroke-linecap:round;" x1="1100.499" y1="368.938" x2="1106.88" y2="384.973"/>
<line style="fill:none;stroke:#2D2E37;stroke-width:2.371;stroke-linecap:round;" x1="1107.306" y1="384.974" x2="1117.437" y2="373.869"/>
<line style="fill:none;stroke:#2D2E37;stroke-width:2.371;stroke-linecap:round;" x1="1101.889" y1="372.529" x2="1116.465" y2="372.529"/>
<line style="fill:none;stroke:#2D2E37;stroke-width:2.371;stroke-linecap:round;" x1="1101.463" y1="372.688" x2="1095.776" y2="383.887"/>
<line style="fill:none;stroke:#2D2E37;stroke-width:2.371;stroke-linecap:round;" x1="1095.772" y1="384.345" x2="1106.944" y2="385.021"/>
<path style="fill:none;stroke:#2D2E37;stroke-width:2.371;stroke-linecap:round;" d="M1112.584,367.388c0,0,1.991-0.426,3.054,0.544
	c1.062,0.968,6.105,17.067,6.105,17.067"/>
<circle style="fill:none;stroke:#2D2E37;stroke-width:2.371;stroke-linecap:round;" cx="1095.424" cy="385.027" r="7.011"/>
<circle style="fill:none;stroke:#2D2E37;stroke-width:2.371;stroke-linecap:round;" cx="1121.54" cy="385.027" r="7.011"/>
<line style="fill:none;stroke:#2D2E37;stroke-width:2.371;stroke-linecap:round;" x1="915.468" y1="425.842" x2="921.709" y2="425.842"/>
<line style="fill:none;stroke:#2D2E37;stroke-width:2.371;stroke-linecap:round;" x1="918.246" y1="425.938" x2="924.627" y2="441.973"/>
<line style="fill:none;stroke:#2D2E37;stroke-width:2.371;stroke-linecap:round;" x1="925.053" y1="441.974" x2="935.184" y2="430.869"/>
<line style="fill:none;stroke:#2D2E37;stroke-width:2.371;stroke-linecap:round;" x1="919.635" y1="429.529" x2="934.212" y2="429.529"/>
<line style="fill:none;stroke:#2D2E37;stroke-width:2.371;stroke-linecap:round;" x1="919.209" y1="429.688" x2="913.522" y2="440.887"/>
<line style="fill:none;stroke:#2D2E37;stroke-width:2.371;stroke-linecap:round;" x1="913.52" y1="441.345" x2="924.691" y2="442.021"/>
<path style="fill:none;stroke:#2D2E37;stroke-width:2.371;stroke-linecap:round;" d="M930.331,424.388c0,0,1.991-0.426,3.053,0.544
	c1.063,0.968,6.106,17.067,6.106,17.067"/>
<circle style="fill:none;stroke:#2D2E37;stroke-width:2.371;stroke-linecap:round;" cx="913.171" cy="442.027" r="7.011"/>
<circle style="fill:none;stroke:#2D2E37;stroke-width:2.371;stroke-linecap:round;" cx="939.286" cy="442.027" r="7.011"/>
<line style="fill:none;stroke:#2D2E37;stroke-width:2.371;stroke-linecap:round;" x1="819.214" y1="395.398" x2="825.456" y2="395.398"/>
<line style="fill:none;stroke:#2D2E37;stroke-width:2.371;stroke-linecap:round;" x1="821.992" y1="395.495" x2="828.373" y2="411.53"/>
<line style="fill:none;stroke:#2D2E37;stroke-width:2.371;stroke-linecap:round;" x1="828.799" y1="411.53" x2="838.93" y2="400.426"/>
<line style="fill:none;stroke:#2D2E37;stroke-width:2.371;stroke-linecap:round;" x1="823.381" y1="399.086" x2="837.958" y2="399.086"/>
<line style="fill:none;stroke:#2D2E37;stroke-width:2.371;stroke-linecap:round;" x1="822.955" y1="399.245" x2="817.27" y2="410.443"/>
<line style="fill:none;stroke:#2D2E37;stroke-width:2.371;stroke-linecap:round;" x1="817.266" y1="410.901" x2="828.438" y2="411.577"/>
<path style="fill:none;stroke:#2D2E37;stroke-width:2.371;stroke-linecap:round;" d="M834.077,393.945c0,0,1.991-0.426,3.054,0.543
	c1.062,0.968,6.105,17.068,6.105,17.068"/>
<circle style="fill:none;stroke:#2D2E37;stroke-width:2.371;stroke-linecap:round;" cx="816.917" cy="411.584" r="7.01"/>
<circle style="fill:none;stroke:#2D2E37;stroke-width:2.371;stroke-linecap:round;" cx="843.033" cy="411.584" r="7.01"/>
<line style="fill:none;stroke:#2D2E37;stroke-width:2.371;stroke-linecap:round;" x1="728.721" y1="348.398" x2="734.963" y2="348.398"/>
<line style="fill:none;stroke:#2D2E37;stroke-width:2.371;stroke-linecap:round;" x1="731.499" y1="348.495" x2="737.88" y2="364.53"/>
<line style="fill:none;stroke:#2D2E37;stroke-width:2.371;stroke-linecap:round;" x1="738.306" y1="364.53" x2="748.437" y2="353.426"/>
<line style="fill:none;stroke:#2D2E37;stroke-width:2.371;stroke-linecap:round;" x1="732.889" y1="352.086" x2="747.465" y2="352.086"/>
<line style="fill:none;stroke:#2D2E37;stroke-width:2.371;stroke-linecap:round;" x1="732.463" y1="352.245" x2="726.776" y2="363.443"/>
<line style="fill:none;stroke:#2D2E37;stroke-width:2.371;stroke-linecap:round;" x1="726.772" y1="363.901" x2="737.944" y2="364.577"/>
<path style="fill:none;stroke:#2D2E37;stroke-width:2.371;stroke-linecap:round;" d="M743.585,346.945c0,0,1.99-0.426,3.053,0.543
	c1.062,0.968,6.105,17.068,6.105,17.068"/>
<circle style="fill:none;stroke:#2D2E37;stroke-width:2.371;stroke-linecap:round;" cx="726.424" cy="364.584" r="7.01"/>
<circle style="fill:none;stroke:#2D2E37;stroke-width:2.371;stroke-linecap:round;" cx="752.54" cy="364.584" r="7.01"/>
<line style="fill:none;stroke:#2D2E37;stroke-width:2.371;stroke-linecap:round;" x1="687.721" y1="434.842" x2="693.963" y2="434.842"/>
<line style="fill:none;stroke:#2D2E37;stroke-width:2.371;stroke-linecap:round;" x1="690.499" y1="434.938" x2="696.88" y2="450.973"/>
<line style="fill:none;stroke:#2D2E37;stroke-width:2.371;stroke-linecap:round;" x1="697.306" y1="450.974" x2="707.437" y2="439.869"/>
<line style="fill:none;stroke:#2D2E37;stroke-width:2.371;stroke-linecap:round;" x1="691.889" y1="438.529" x2="706.465" y2="438.529"/>
<line style="fill:none;stroke:#2D2E37;stroke-width:2.371;stroke-linecap:round;" x1="691.463" y1="438.688" x2="685.776" y2="449.887"/>
<line style="fill:none;stroke:#2D2E37;stroke-width:2.371;stroke-linecap:round;" x1="685.772" y1="450.345" x2="696.944" y2="451.021"/>
<path style="fill:none;stroke:#2D2E37;stroke-width:2.371;stroke-linecap:round;" d="M702.585,433.388c0,0,1.99-0.426,3.053,0.544
	c1.062,0.968,6.105,17.067,6.105,17.067"/>
<circle style="fill:none;stroke:#2D2E37;stroke-width:2.371;stroke-linecap:round;" cx="685.424" cy="451.027" r="7.011"/>
<circle style="fill:none;stroke:#2D2E37;stroke-width:2.371;stroke-linecap:round;" cx="711.54" cy="451.027" r="7.011"/>
<line style="fill:none;stroke:#2D2E37;stroke-width:2.371;stroke-linecap:round;" x1="1001.214" y1="425.842" x2="1007.456" y2="425.842"/>
<line style="fill:none;stroke:#2D2E37;stroke-width:2.371;stroke-linecap:round;" x1="1003.992" y1="425.938" x2="1010.373" y2="441.973"/>
<line style="fill:none;stroke:#2D2E37;stroke-width:2.371;stroke-linecap:round;" x1="1010.799" y1="441.974" x2="1020.93" y2="430.869"/>
<line style="fill:none;stroke:#2D2E37;stroke-width:2.371;stroke-linecap:round;" x1="1005.381" y1="429.529" x2="1019.958" y2="429.529"/>
<line style="fill:none;stroke:#2D2E37;stroke-width:2.371;stroke-linecap:round;" x1="1004.955" y1="429.688" x2="999.27" y2="440.887"/>
<line style="fill:none;stroke:#2D2E37;stroke-width:2.371;stroke-linecap:round;" x1="999.266" y1="441.345" x2="1010.438" y2="442.021"/>
<path style="fill:none;stroke:#2D2E37;stroke-width:2.371;stroke-linecap:round;" d="M1016.077,424.388c0,0,1.991-0.426,3.054,0.544
	c1.062,0.968,6.105,17.067,6.105,17.067"/>
<circle style="fill:none;stroke:#2D2E37;stroke-width:2.371;stroke-linecap:round;" cx="998.917" cy="442.027" r="7.011"/>
<circle style="fill:none;stroke:#2D2E37;stroke-width:2.371;stroke-linecap:round;" cx="1025.033" cy="442.027" r="7.011"/>
<g>
	<path style="fill:#FFFFFF;" d="M911.201,93.373c-0.704,0-1.326-0.108-1.866-0.324s-0.994-0.52-1.361-0.912
		c-0.376-0.384-0.66-0.842-0.853-1.374c-0.191-0.531-0.288-1.117-0.288-1.758v-0.096c0-0.648,0.108-1.24,0.324-1.775
		c0.216-0.536,0.52-0.996,0.912-1.381c0.384-0.384,0.844-0.684,1.38-0.899s1.12-0.324,1.752-0.324c0.48,0,0.938,0.056,1.374,0.168
		s0.826,0.288,1.17,0.528c0.344,0.248,0.63,0.562,0.858,0.941c0.228,0.381,0.365,0.834,0.414,1.362h-1.933
		c-0.088-0.503-0.29-0.872-0.605-1.107c-0.316-0.235-0.734-0.354-1.254-0.354c-0.752,0-1.334,0.258-1.746,0.773
		s-0.618,1.214-0.618,2.093v0.096c0,0.416,0.046,0.798,0.138,1.146c0.092,0.349,0.234,0.646,0.427,0.894
		c0.191,0.256,0.438,0.454,0.737,0.594s0.662,0.21,1.086,0.21c0.36,0,0.668-0.048,0.924-0.144c0.257-0.097,0.469-0.229,0.637-0.396
		c0.168-0.16,0.292-0.351,0.372-0.57s0.123-0.454,0.132-0.702h-1.933v-1.414h3.853v0.912c0,0.575-0.09,1.098-0.271,1.565
		c-0.18,0.468-0.441,0.865-0.785,1.193c-0.345,0.336-0.767,0.596-1.267,0.779C912.411,93.281,911.841,93.373,911.201,93.373z"/>
	<path style="fill:#FFFFFF;" d="M917.896,84.662h3.072c0.504,0,0.96,0.052,1.368,0.156c0.408,0.104,0.756,0.264,1.044,0.479
		s0.51,0.487,0.666,0.815s0.234,0.712,0.234,1.151v0.048c0,0.328-0.045,0.616-0.133,0.864s-0.212,0.464-0.371,0.647
		c-0.16,0.184-0.349,0.34-0.564,0.468s-0.448,0.228-0.696,0.3l2.269,3.648h-2.064l-2.052-3.313h-0.84v3.313h-1.933V84.662z
		 M920.921,88.607c0.488,0,0.854-0.104,1.098-0.313s0.366-0.516,0.366-0.924v-0.048c0-0.44-0.126-0.746-0.378-0.919
		c-0.252-0.172-0.614-0.258-1.086-0.258h-1.092v2.461H920.921z"/>
	<path style="fill:#FFFFFF;" d="M927.206,84.662h5.592v1.516h-3.66v2h2.928v1.414h-2.928v2.133h3.853v1.516h-5.784V84.662z"/>
	<path style="fill:#FFFFFF;" d="M935.606,84.662h5.592v1.516h-3.66v2h2.928v1.414h-2.928v2.133h3.853v1.516h-5.784V84.662z"/>
	<path style="fill:#FFFFFF;" d="M943.996,84.662h2.256l3.264,5.65v-5.65h1.729v8.578H949.3l-3.576-6.106v6.106h-1.728V84.662z"/>
	<path style="fill:#FFFFFF;" d="M954.339,84.662h2.964c1.048,0,1.856,0.229,2.424,0.685c0.568,0.456,0.853,1.14,0.853,2.052v0.048
		c0,0.456-0.076,0.851-0.229,1.183c-0.151,0.332-0.368,0.61-0.647,0.834c-0.28,0.224-0.618,0.39-1.015,0.498
		c-0.396,0.108-0.838,0.162-1.325,0.162h-1.093v3.117h-1.932V84.662z M957.255,88.764c0.488,0,0.853-0.11,1.092-0.329
		c0.24-0.221,0.36-0.546,0.36-0.978v-0.048c0-0.455-0.126-0.781-0.378-0.977c-0.252-0.196-0.61-0.294-1.074-0.294h-0.984v2.625
		H957.255z"/>
	<path style="fill:#FFFFFF;" d="M967.12,93.373c-0.673,0-1.28-0.11-1.824-0.33s-1.004-0.526-1.38-0.919
		c-0.385-0.384-0.68-0.844-0.889-1.38c-0.207-0.536-0.312-1.116-0.312-1.741v-0.096c0-0.641,0.11-1.229,0.33-1.765
		s0.53-0.997,0.93-1.381c0.393-0.384,0.856-0.685,1.393-0.9s1.124-0.324,1.764-0.324c0.647,0,1.242,0.104,1.782,0.313
		s1.006,0.5,1.397,0.876c0.384,0.385,0.687,0.841,0.906,1.369c0.22,0.527,0.33,1.116,0.33,1.765v0.096
		c0,0.641-0.106,1.23-0.318,1.771c-0.212,0.541-0.51,1.007-0.894,1.398c-0.384,0.393-0.849,0.699-1.393,0.919
		S967.792,93.373,967.12,93.373z M967.156,91.826c0.359,0,0.686-0.068,0.978-0.204s0.542-0.328,0.75-0.576
		c0.2-0.24,0.356-0.536,0.468-0.889c0.112-0.352,0.168-0.744,0.168-1.176v-0.097c0-0.416-0.054-0.796-0.162-1.14
		c-0.107-0.345-0.262-0.641-0.462-0.889c-0.208-0.248-0.46-0.44-0.756-0.576s-0.632-0.204-1.008-0.204s-0.71,0.066-1.002,0.198
		s-0.542,0.318-0.75,0.558c-0.208,0.249-0.366,0.547-0.474,0.895c-0.108,0.349-0.162,0.738-0.162,1.171v0.096
		c0,0.44,0.06,0.834,0.18,1.183c0.12,0.348,0.288,0.642,0.504,0.882c0.208,0.248,0.46,0.438,0.756,0.57
		C966.479,91.761,966.804,91.826,967.156,91.826z"/>
	<path style="fill:#FFFFFF;" d="M974.247,84.662h1.956v8.578h-1.956V84.662z"/>
	<path style="fill:#FFFFFF;" d="M979.359,84.662h2.256l3.264,5.65v-5.65h1.729v8.578h-1.944l-3.576-6.106v6.106h-1.728V84.662z"/>
	<path style="fill:#FFFFFF;" d="M991.381,86.178h-2.316v-1.516h6.588v1.516h-2.315v7.063h-1.956V86.178z"/>
</g>
<g>
	<path style="fill:#FFFFFF;" d="M686.62,107.019h1.944v7.055h3.492v1.523h-5.437V107.019z"/>
	<path style="fill:#FFFFFF;" d="M698.248,115.729c-0.672,0-1.28-0.11-1.824-0.33s-1.004-0.526-1.38-0.918
		c-0.384-0.385-0.681-0.845-0.888-1.381c-0.209-0.536-0.313-1.117-0.313-1.741v-0.096c0-0.641,0.11-1.229,0.33-1.765
		s0.53-0.997,0.93-1.381c0.393-0.384,0.856-0.685,1.393-0.9c0.535-0.216,1.124-0.324,1.764-0.324c0.648,0,1.242,0.104,1.782,0.313
		s1.006,0.5,1.397,0.876c0.385,0.384,0.687,0.841,0.906,1.368c0.22,0.529,0.33,1.117,0.33,1.766v0.096
		c0,0.641-0.106,1.23-0.318,1.771c-0.212,0.541-0.51,1.007-0.894,1.399c-0.384,0.392-0.849,0.698-1.393,0.918
		S698.92,115.729,698.248,115.729z M698.283,114.183c0.36,0,0.687-0.068,0.979-0.204s0.542-0.328,0.75-0.576
		c0.2-0.24,0.355-0.536,0.468-0.889c0.112-0.352,0.168-0.744,0.168-1.176v-0.097c0-0.416-0.054-0.796-0.162-1.14
		c-0.107-0.345-0.262-0.641-0.462-0.889c-0.208-0.248-0.46-0.44-0.756-0.576s-0.632-0.204-1.008-0.204s-0.71,0.066-1.002,0.198
		s-0.542,0.318-0.75,0.558c-0.208,0.248-0.366,0.547-0.475,0.895c-0.107,0.349-0.161,0.738-0.161,1.171v0.096
		c0,0.44,0.06,0.834,0.18,1.183c0.12,0.348,0.288,0.643,0.504,0.882c0.208,0.248,0.46,0.438,0.756,0.57
		S697.932,114.183,698.283,114.183z"/>
	<path style="fill:#FFFFFF;" d="M704.367,107.019h1.969l1.344,5.927l1.464-5.927h1.656l1.523,5.963l1.393-5.963h1.8l-2.088,8.578
		h-1.98l-1.548-5.927l-1.572,5.927h-1.872L704.367,107.019z"/>
	<path style="fill:#FFFFFF;" d="M717.938,107.019h5.592v1.516h-3.66v2h2.928v1.414h-2.928v2.133h3.853v1.516h-5.784V107.019z"/>
	<path style="fill:#FFFFFF;" d="M726.327,107.019h3.072c0.504,0,0.96,0.052,1.368,0.156c0.408,0.104,0.756,0.264,1.044,0.479
		s0.51,0.487,0.666,0.815s0.234,0.712,0.234,1.151v0.048c0,0.328-0.044,0.616-0.133,0.864c-0.088,0.247-0.212,0.464-0.372,0.647
		c-0.159,0.184-0.348,0.34-0.563,0.468s-0.448,0.228-0.696,0.3l2.269,3.648h-2.064l-2.052-3.313h-0.84v3.313h-1.933V107.019z
		 M729.352,110.964c0.488,0,0.854-0.104,1.098-0.313c0.244-0.208,0.366-0.516,0.366-0.924v-0.048c0-0.44-0.126-0.746-0.378-0.919
		c-0.252-0.172-0.614-0.258-1.086-0.258h-1.092v2.461H729.352z"/>
</g>
<g>
	<path style="fill:#FFFFFF;" d="M667.312,121.022h2.568l2.004,5.339l1.979-5.339h2.521v8.578h-1.933v-6.022l-2.376,6.022h-0.636
		l-2.388-6.022v6.022h-1.74V121.022z"/>
	<path style="fill:#FFFFFF;" d="M681.648,121.022h2.532l2.784,8.578h-2.028l-0.588-1.906h-3.108l-0.588,1.906h-1.824
		L681.648,121.022z M681.66,126.312h2.269l-1.128-3.705L681.66,126.312z"/>
	<path style="fill:#FFFFFF;" d="M689.403,121.022h2.256l3.264,5.65v-5.65h1.729v8.578h-1.944l-3.576-6.106v6.106h-1.728V121.022z"/>
	<path style="fill:#FFFFFF;" d="M699.758,121.022h1.944v3.5h3.444v-3.5h1.943v8.578h-1.943v-3.539h-3.444v3.539h-1.944V121.022z"/>
	<path style="fill:#FFFFFF;" d="M712.333,121.022h2.532l2.784,8.578h-2.028l-0.588-1.906h-3.108l-0.588,1.906h-1.824
		L712.333,121.022z M712.345,126.312h2.269l-1.128-3.705L712.345,126.312z"/>
	<path style="fill:#FFFFFF;" d="M720.913,122.538h-2.316v-1.516h6.589v1.516h-2.316v7.063h-1.956V122.538z"/>
	<path style="fill:#FFFFFF;" d="M729.385,122.538h-2.316v-1.516h6.588v1.516h-2.315v7.063h-1.956V122.538z"/>
	<path style="fill:#FFFFFF;" d="M737.424,121.022h2.532l2.784,8.578h-2.028l-0.588-1.906h-3.108l-0.588,1.906h-1.824
		L737.424,121.022z M737.436,126.312h2.269l-1.128-3.705L737.436,126.312z"/>
	<path style="fill:#FFFFFF;" d="M745.179,121.022h2.256l3.264,5.65v-5.65h1.729v8.578h-1.944l-3.576-6.106v6.106h-1.728V121.022z"/>
</g>
<g>
	<path style="fill:#402666;" d="M685.273,148.729c-0.704,0-1.324-0.104-1.859-0.313c-0.536-0.207-0.984-0.504-1.345-0.888
		c-0.368-0.376-0.644-0.832-0.828-1.368c-0.184-0.535-0.275-1.136-0.275-1.8v-0.096c0-0.647,0.107-1.242,0.323-1.782
		c0.217-0.54,0.517-1.002,0.9-1.386c0.376-0.384,0.824-0.682,1.344-0.894c0.521-0.212,1.084-0.318,1.692-0.318
		c0.512,0,0.99,0.064,1.434,0.191c0.444,0.129,0.834,0.32,1.171,0.576c0.327,0.256,0.598,0.579,0.81,0.971s0.342,0.852,0.39,1.379
		h-1.992c-0.071-0.518-0.254-0.91-0.546-1.178c-0.292-0.267-0.71-0.4-1.254-0.4c-0.68,0-1.22,0.248-1.62,0.744
		c-0.399,0.495-0.6,1.191-0.6,2.087v0.096c0,0.896,0.194,1.588,0.582,2.076c0.388,0.487,0.938,0.731,1.65,0.731
		c0.535,0,0.978-0.137,1.325-0.409c0.349-0.272,0.563-0.686,0.643-1.239h1.908c-0.057,0.528-0.188,0.995-0.396,1.399
		s-0.479,0.738-0.815,1.003c-0.337,0.271-0.729,0.477-1.177,0.612S685.802,148.729,685.273,148.729z"/>
	<path style="fill:#402666;" d="M695.608,148.729c-0.673,0-1.28-0.11-1.824-0.33s-1.004-0.526-1.38-0.918
		c-0.385-0.385-0.68-0.845-0.889-1.381c-0.207-0.536-0.312-1.117-0.312-1.741v-0.096c0-0.641,0.11-1.229,0.33-1.765
		s0.53-0.997,0.93-1.381c0.393-0.384,0.856-0.685,1.393-0.9s1.124-0.324,1.764-0.324c0.647,0,1.242,0.104,1.782,0.313
		s1.006,0.5,1.397,0.876c0.384,0.384,0.687,0.841,0.906,1.368c0.22,0.529,0.33,1.117,0.33,1.766v0.096
		c0,0.641-0.106,1.23-0.318,1.771c-0.212,0.541-0.51,1.007-0.894,1.399c-0.384,0.392-0.849,0.698-1.393,0.918
		S696.28,148.729,695.608,148.729z M695.645,147.183c0.359,0,0.686-0.068,0.978-0.204s0.542-0.328,0.75-0.576
		c0.2-0.24,0.356-0.536,0.468-0.889c0.112-0.352,0.168-0.744,0.168-1.176v-0.097c0-0.416-0.054-0.796-0.162-1.14
		c-0.107-0.345-0.262-0.641-0.462-0.889c-0.208-0.248-0.46-0.44-0.756-0.576s-0.632-0.204-1.008-0.204s-0.71,0.066-1.002,0.198
		s-0.542,0.318-0.75,0.558c-0.208,0.248-0.366,0.547-0.474,0.895c-0.108,0.349-0.162,0.738-0.162,1.171v0.096
		c0,0.44,0.06,0.834,0.18,1.183c0.12,0.348,0.288,0.643,0.504,0.882c0.208,0.248,0.46,0.438,0.756,0.57
		S695.292,147.183,695.645,147.183z"/>
	<path style="fill:#402666;" d="M702.688,140.019h2.568l2.004,5.339l1.979-5.339h2.521v8.578h-1.933v-6.022l-2.376,6.022h-0.636
		l-2.388-6.022v6.022h-1.74V140.019z"/>
	<path style="fill:#402666;" d="M714.928,140.019h1.956v8.578h-1.956V140.019z"/>
	<path style="fill:#402666;" d="M720.027,140.019h2.256l3.264,5.65v-5.65h1.729v8.578h-1.944l-3.576-6.106v6.106h-1.728V140.019z"/>
	<path style="fill:#402666;" d="M734.309,148.729c-0.704,0-1.326-0.108-1.866-0.324s-0.994-0.52-1.361-0.912
		c-0.376-0.384-0.66-0.842-0.853-1.373c-0.191-0.532-0.288-1.118-0.288-1.759v-0.096c0-0.647,0.108-1.24,0.324-1.776
		c0.216-0.535,0.52-0.995,0.912-1.38c0.384-0.384,0.844-0.684,1.38-0.899s1.12-0.324,1.752-0.324c0.48,0,0.938,0.056,1.374,0.168
		s0.826,0.288,1.17,0.528c0.344,0.248,0.63,0.562,0.858,0.941c0.228,0.38,0.365,0.834,0.414,1.362h-1.933
		c-0.088-0.503-0.29-0.872-0.605-1.107c-0.316-0.235-0.734-0.354-1.254-0.354c-0.752,0-1.334,0.258-1.746,0.773
		s-0.618,1.214-0.618,2.093v0.096c0,0.416,0.046,0.798,0.138,1.146s0.234,0.646,0.427,0.894c0.191,0.256,0.438,0.454,0.737,0.594
		s0.662,0.21,1.086,0.21c0.36,0,0.668-0.048,0.924-0.145c0.257-0.096,0.469-0.228,0.637-0.396c0.168-0.16,0.292-0.351,0.372-0.57
		s0.123-0.454,0.132-0.702h-1.933v-1.414h3.853v0.912c0,0.575-0.09,1.098-0.271,1.565c-0.18,0.468-0.441,0.865-0.785,1.193
		c-0.345,0.336-0.767,0.596-1.267,0.78C735.519,148.638,734.948,148.729,734.309,148.729z"/>
</g>
<g>
	<path style="fill:#402666;" d="M690.949,162.733c-0.592,0-1.104-0.066-1.536-0.198c-0.432-0.132-0.792-0.321-1.08-0.569
		s-0.508-0.545-0.66-0.889c-0.151-0.344-0.239-0.732-0.264-1.164h1.86c0.023,0.192,0.063,0.375,0.12,0.547
		c0.056,0.172,0.147,0.318,0.275,0.438c0.128,0.128,0.294,0.23,0.498,0.307s0.466,0.114,0.786,0.114
		c0.432,0,0.776-0.106,1.032-0.318s0.384-0.486,0.384-0.822c0-0.168-0.026-0.313-0.078-0.433s-0.138-0.224-0.258-0.312
		c-0.128-0.08-0.296-0.15-0.504-0.211c-0.208-0.06-0.468-0.113-0.78-0.162c-0.552-0.072-1.022-0.17-1.41-0.294
		s-0.706-0.29-0.954-0.498c-0.256-0.2-0.441-0.448-0.558-0.745c-0.116-0.296-0.174-0.652-0.174-1.068
		c0-0.369,0.074-0.709,0.222-1.021c0.148-0.313,0.358-0.584,0.63-0.816c0.272-0.225,0.601-0.4,0.984-0.528s0.812-0.192,1.284-0.192
		c0.968,0,1.726,0.214,2.273,0.643s0.862,1.071,0.942,1.928h-1.788c-0.056-0.384-0.204-0.67-0.444-0.858
		c-0.239-0.188-0.567-0.282-0.983-0.282c-0.433,0-0.754,0.09-0.967,0.271c-0.212,0.18-0.317,0.414-0.317,0.702
		c0,0.152,0.021,0.286,0.065,0.402s0.126,0.214,0.246,0.294c0.112,0.089,0.272,0.164,0.48,0.229c0.208,0.063,0.476,0.12,0.804,0.168
		c0.521,0.064,0.976,0.154,1.368,0.271c0.392,0.115,0.72,0.27,0.984,0.462c0.264,0.2,0.462,0.452,0.594,0.756
		s0.198,0.676,0.198,1.116c0,0.384-0.076,0.742-0.229,1.074c-0.151,0.332-0.368,0.618-0.647,0.858
		c-0.28,0.248-0.625,0.443-1.032,0.588C691.909,162.661,691.453,162.733,690.949,162.733z"/>
	<path style="fill:#402666;" d="M700.78,162.733c-0.673,0-1.28-0.11-1.824-0.33s-1.004-0.526-1.38-0.918
		c-0.385-0.385-0.68-0.845-0.889-1.381c-0.207-0.536-0.312-1.117-0.312-1.741v-0.096c0-0.641,0.11-1.229,0.33-1.765
		s0.53-0.997,0.93-1.381c0.393-0.384,0.856-0.685,1.393-0.9s1.124-0.324,1.764-0.324c0.647,0,1.242,0.104,1.782,0.313
		s1.006,0.5,1.397,0.876c0.384,0.384,0.687,0.841,0.906,1.368c0.22,0.529,0.33,1.117,0.33,1.766v0.096
		c0,0.641-0.106,1.23-0.318,1.771c-0.212,0.541-0.51,1.007-0.894,1.399c-0.384,0.392-0.849,0.698-1.393,0.918
		S701.452,162.733,700.78,162.733z M700.816,161.187c0.359,0,0.686-0.068,0.978-0.204s0.542-0.328,0.75-0.576
		c0.2-0.24,0.356-0.536,0.468-0.889c0.112-0.352,0.168-0.744,0.168-1.176v-0.097c0-0.416-0.054-0.796-0.162-1.14
		c-0.107-0.345-0.262-0.641-0.462-0.889c-0.208-0.248-0.46-0.44-0.756-0.576s-0.632-0.204-1.008-0.204s-0.71,0.066-1.002,0.198
		s-0.542,0.318-0.75,0.558c-0.208,0.248-0.366,0.547-0.474,0.895c-0.108,0.349-0.162,0.738-0.162,1.171v0.096
		c0,0.44,0.06,0.834,0.18,1.183c0.12,0.348,0.288,0.643,0.504,0.882c0.208,0.248,0.46,0.438,0.756,0.57
		S700.464,161.187,700.816,161.187z"/>
	<path style="fill:#402666;" d="M711.832,162.733c-0.672,0-1.28-0.11-1.824-0.33s-1.004-0.526-1.38-0.918
		c-0.384-0.385-0.681-0.845-0.888-1.381c-0.209-0.536-0.313-1.117-0.313-1.741v-0.096c0-0.641,0.11-1.229,0.33-1.765
		s0.53-0.997,0.93-1.381c0.393-0.384,0.856-0.685,1.393-0.9c0.535-0.216,1.124-0.324,1.764-0.324c0.648,0,1.242,0.104,1.782,0.313
		s1.006,0.5,1.397,0.876c0.385,0.384,0.687,0.841,0.906,1.368c0.22,0.529,0.33,1.117,0.33,1.766v0.096
		c0,0.641-0.106,1.23-0.318,1.771c-0.212,0.541-0.51,1.007-0.894,1.399c-0.384,0.392-0.849,0.698-1.393,0.918
		S712.504,162.733,711.832,162.733z M711.867,161.187c0.36,0,0.687-0.068,0.979-0.204s0.542-0.328,0.75-0.576
		c0.2-0.24,0.355-0.536,0.468-0.889c0.112-0.352,0.168-0.744,0.168-1.176v-0.097c0-0.416-0.054-0.796-0.162-1.14
		c-0.107-0.345-0.262-0.641-0.462-0.889c-0.208-0.248-0.46-0.44-0.756-0.576s-0.632-0.204-1.008-0.204s-0.71,0.066-1.002,0.198
		s-0.542,0.318-0.75,0.558c-0.208,0.248-0.366,0.547-0.475,0.895c-0.107,0.349-0.161,0.738-0.161,1.171v0.096
		c0,0.44,0.06,0.834,0.18,1.183c0.12,0.348,0.288,0.643,0.504,0.882c0.208,0.248,0.46,0.438,0.756,0.57
		S711.516,161.187,711.867,161.187z"/>
	<path style="fill:#402666;" d="M718.912,154.022h2.256l3.264,5.65v-5.65h1.729v8.578h-1.944l-3.576-6.106v6.106h-1.728V154.022z"/>
	<path style="fill:#402666;" d="M730.239,162.71c-0.152,0-0.294-0.026-0.426-0.078s-0.246-0.126-0.343-0.223
		c-0.104-0.096-0.184-0.206-0.239-0.33c-0.057-0.124-0.084-0.258-0.084-0.402c0-0.296,0.105-0.545,0.317-0.744
		c0.212-0.201,0.471-0.301,0.774-0.301s0.562,0.1,0.774,0.301c0.212,0.199,0.317,0.448,0.317,0.744c0,0.145-0.028,0.278-0.084,0.402
		s-0.132,0.234-0.228,0.33c-0.104,0.097-0.223,0.171-0.354,0.223S730.392,162.71,730.239,162.71z M729.279,154.022h1.944
		l-0.265,5.898h-1.416L729.279,154.022z"/>
</g>
<g>
	<path style="fill:#FFFFFF;" d="M855.951,491.954h2.964c1.048,0,1.856,0.229,2.424,0.685c0.568,0.456,0.853,1.14,0.853,2.052v0.048
		c0,0.456-0.076,0.851-0.229,1.183c-0.151,0.332-0.367,0.61-0.647,0.834c-0.28,0.225-0.618,0.391-1.015,0.498
		c-0.396,0.108-0.838,0.162-1.325,0.162h-1.093v3.117h-1.932V491.954z M858.867,496.056c0.488,0,0.852-0.109,1.092-0.33
		c0.24-0.219,0.36-0.545,0.36-0.977v-0.048c0-0.455-0.126-0.781-0.378-0.977c-0.252-0.196-0.61-0.294-1.074-0.294h-0.984v2.625
		H858.867z"/>
	<path style="fill:#FFFFFF;" d="M866.258,491.954h2.532l2.784,8.578h-2.028l-0.588-1.906h-3.108l-0.588,1.906h-1.824
		L866.258,491.954z M866.27,497.243h2.269l-1.128-3.705L866.27,497.243z"/>
	<path style="fill:#FFFFFF;" d="M874.012,491.954h3.072c0.504,0,0.96,0.052,1.368,0.156c0.408,0.104,0.756,0.264,1.044,0.479
		s0.51,0.487,0.666,0.815s0.234,0.712,0.234,1.151v0.048c0,0.328-0.045,0.616-0.133,0.864c-0.088,0.247-0.212,0.464-0.371,0.647
		c-0.16,0.184-0.349,0.34-0.564,0.468s-0.448,0.228-0.696,0.3l2.269,3.648h-2.064l-2.052-3.313h-0.84v3.313h-1.933V491.954z
		 M877.036,495.899c0.488,0,0.854-0.104,1.098-0.313c0.244-0.208,0.366-0.516,0.366-0.924v-0.048c0-0.44-0.126-0.746-0.378-0.919
		c-0.252-0.172-0.614-0.258-1.086-0.258h-1.092v2.461H877.036z"/>
	<path style="fill:#FFFFFF;" d="M883.334,491.954h1.944v3.693l3-3.709h2.063l-3.396,4.068l3.563,4.525h-2.268l-2.964-3.853v3.853
		h-1.944V491.954z"/>
</g>
<g>
	<path style="fill:#FFFFFF;" d="M855.049,514.669c-0.592,0-1.104-0.066-1.536-0.198c-0.432-0.132-0.792-0.321-1.08-0.569
		s-0.508-0.545-0.66-0.889c-0.151-0.344-0.239-0.732-0.264-1.164h1.86c0.023,0.192,0.063,0.375,0.12,0.547
		c0.056,0.172,0.147,0.318,0.275,0.438c0.128,0.128,0.294,0.23,0.498,0.307s0.466,0.114,0.786,0.114
		c0.432,0,0.776-0.106,1.032-0.318s0.384-0.486,0.384-0.822c0-0.168-0.026-0.313-0.078-0.433s-0.138-0.224-0.258-0.312
		c-0.128-0.08-0.296-0.15-0.504-0.211c-0.208-0.06-0.468-0.113-0.78-0.162c-0.552-0.072-1.022-0.17-1.41-0.294
		s-0.706-0.29-0.954-0.498c-0.256-0.2-0.441-0.448-0.558-0.745c-0.116-0.296-0.174-0.652-0.174-1.068
		c0-0.369,0.074-0.709,0.222-1.021c0.148-0.313,0.358-0.584,0.63-0.816c0.272-0.225,0.601-0.4,0.984-0.528s0.812-0.192,1.284-0.192
		c0.968,0,1.726,0.214,2.273,0.643s0.862,1.071,0.942,1.928h-1.788c-0.056-0.384-0.204-0.67-0.444-0.858
		c-0.239-0.188-0.567-0.282-0.983-0.282c-0.433,0-0.754,0.09-0.967,0.271c-0.212,0.18-0.317,0.414-0.317,0.702
		c0,0.152,0.021,0.286,0.065,0.402s0.126,0.214,0.246,0.294c0.112,0.089,0.272,0.164,0.48,0.229c0.208,0.063,0.476,0.12,0.804,0.168
		c0.521,0.064,0.976,0.154,1.368,0.271c0.392,0.115,0.72,0.27,0.984,0.462c0.264,0.2,0.462,0.452,0.594,0.756
		s0.198,0.676,0.198,1.116c0,0.384-0.076,0.742-0.229,1.074c-0.151,0.332-0.368,0.618-0.647,0.858
		c-0.28,0.248-0.625,0.443-1.032,0.588C856.009,514.597,855.553,514.669,855.049,514.669z"/>
	<path style="fill:#FFFFFF;" d="M860.991,505.958h1.944v7.055h3.492v1.523h-5.437V505.958z"/>
	<path style="fill:#FFFFFF;" d="M872.619,514.669c-0.672,0-1.28-0.11-1.824-0.33s-1.004-0.526-1.38-0.918
		c-0.384-0.385-0.681-0.845-0.888-1.381c-0.209-0.536-0.313-1.117-0.313-1.741v-0.096c0-0.641,0.11-1.229,0.33-1.765
		s0.53-0.997,0.93-1.381c0.393-0.384,0.856-0.685,1.393-0.9c0.535-0.216,1.124-0.324,1.764-0.324c0.648,0,1.242,0.104,1.782,0.313
		s1.006,0.5,1.397,0.876c0.385,0.384,0.687,0.841,0.906,1.368c0.22,0.529,0.33,1.117,0.33,1.766v0.096
		c0,0.641-0.106,1.23-0.318,1.771c-0.212,0.541-0.51,1.007-0.894,1.399c-0.384,0.392-0.849,0.698-1.393,0.918
		S873.291,514.669,872.619,514.669z M872.654,513.122c0.36,0,0.687-0.068,0.979-0.204s0.542-0.328,0.75-0.576
		c0.2-0.24,0.355-0.536,0.468-0.889c0.112-0.352,0.168-0.744,0.168-1.176v-0.097c0-0.416-0.054-0.796-0.162-1.14
		c-0.107-0.345-0.262-0.641-0.462-0.889c-0.208-0.248-0.46-0.44-0.756-0.576s-0.632-0.204-1.008-0.204s-0.71,0.066-1.002,0.198
		s-0.542,0.318-0.75,0.558c-0.208,0.248-0.366,0.547-0.475,0.895c-0.107,0.349-0.161,0.738-0.161,1.171v0.096
		c0,0.44,0.06,0.834,0.18,1.183c0.12,0.348,0.288,0.643,0.504,0.882c0.208,0.248,0.46,0.438,0.756,0.57
		S872.303,513.122,872.654,513.122z"/>
	<path style="fill:#FFFFFF;" d="M879.698,505.958h2.964c1.048,0,1.856,0.229,2.424,0.685c0.568,0.456,0.853,1.14,0.853,2.052v0.048
		c0,0.456-0.076,0.851-0.229,1.183c-0.151,0.332-0.368,0.61-0.647,0.834c-0.28,0.225-0.618,0.391-1.015,0.498
		c-0.396,0.108-0.838,0.162-1.325,0.162h-1.093v3.117h-1.932V505.958z M882.614,510.06c0.488,0,0.853-0.109,1.092-0.33
		c0.24-0.219,0.36-0.545,0.36-0.977v-0.048c0-0.455-0.126-0.781-0.378-0.977c-0.252-0.196-0.61-0.294-1.074-0.294h-0.984v2.625
		H882.614z"/>
	<path style="fill:#FFFFFF;" d="M888.47,505.958h5.592v1.516h-3.66v2h2.928v1.414h-2.928v2.133h3.853v1.516h-5.784V505.958z"/>
</g>
<g>
	<path style="fill:#402666;" d="M848.605,533.665c-0.704,0-1.324-0.104-1.859-0.313c-0.536-0.207-0.984-0.504-1.345-0.888
		c-0.368-0.376-0.644-0.832-0.828-1.368c-0.184-0.535-0.275-1.136-0.275-1.8v-0.096c0-0.647,0.107-1.242,0.323-1.782
		c0.217-0.54,0.517-1.002,0.9-1.386c0.376-0.384,0.824-0.682,1.344-0.894c0.521-0.212,1.084-0.318,1.692-0.318
		c0.512,0,0.99,0.064,1.434,0.191c0.444,0.129,0.834,0.32,1.171,0.576c0.327,0.256,0.598,0.579,0.81,0.971s0.342,0.852,0.39,1.379
		h-1.992c-0.071-0.518-0.254-0.91-0.546-1.178c-0.292-0.267-0.71-0.4-1.254-0.4c-0.68,0-1.22,0.248-1.62,0.744
		c-0.399,0.495-0.6,1.191-0.6,2.087v0.096c0,0.896,0.194,1.588,0.582,2.076c0.388,0.487,0.938,0.731,1.65,0.731
		c0.535,0,0.978-0.137,1.325-0.409c0.349-0.272,0.563-0.686,0.643-1.239h1.908c-0.057,0.528-0.188,0.995-0.396,1.399
		s-0.479,0.738-0.815,1.003c-0.337,0.271-0.729,0.477-1.177,0.612S849.134,533.665,848.605,533.665z"/>
	<path style="fill:#402666;" d="M858.94,533.665c-0.673,0-1.28-0.11-1.824-0.33s-1.004-0.526-1.38-0.918
		c-0.385-0.385-0.68-0.845-0.889-1.381c-0.207-0.536-0.312-1.117-0.312-1.741v-0.096c0-0.641,0.11-1.229,0.33-1.765
		s0.53-0.997,0.93-1.381c0.393-0.384,0.856-0.685,1.393-0.9s1.124-0.324,1.764-0.324c0.647,0,1.242,0.104,1.782,0.313
		s1.006,0.5,1.397,0.876c0.384,0.384,0.687,0.841,0.906,1.368c0.22,0.529,0.33,1.117,0.33,1.766v0.096
		c0,0.641-0.106,1.23-0.318,1.771c-0.212,0.541-0.51,1.007-0.894,1.399c-0.384,0.392-0.849,0.698-1.393,0.918
		S859.612,533.665,858.94,533.665z M858.977,532.118c0.359,0,0.686-0.068,0.978-0.204s0.542-0.328,0.75-0.576
		c0.2-0.24,0.356-0.536,0.468-0.889c0.112-0.352,0.168-0.744,0.168-1.176v-0.097c0-0.416-0.054-0.796-0.162-1.14
		c-0.107-0.345-0.262-0.641-0.462-0.889c-0.208-0.248-0.46-0.44-0.756-0.576s-0.632-0.204-1.008-0.204s-0.71,0.066-1.002,0.198
		s-0.542,0.318-0.75,0.558c-0.208,0.248-0.366,0.547-0.474,0.895c-0.108,0.349-0.162,0.738-0.162,1.171v0.096
		c0,0.44,0.06,0.834,0.18,1.183c0.12,0.348,0.288,0.643,0.504,0.882c0.208,0.248,0.46,0.438,0.756,0.57
		S858.624,532.118,858.977,532.118z"/>
	<path style="fill:#402666;" d="M866.02,524.954h2.568l2.004,5.339l1.979-5.339h2.521v8.578h-1.933v-6.022l-2.376,6.022h-0.636
		l-2.388-6.022v6.022h-1.74V524.954z"/>
	<path style="fill:#402666;" d="M878.26,524.954h1.956v8.578h-1.956V524.954z"/>
	<path style="fill:#402666;" d="M883.359,524.954h2.256l3.264,5.65v-5.65h1.729v8.578h-1.944l-3.576-6.106v6.106h-1.728V524.954z"/>
	<path style="fill:#402666;" d="M897.641,533.665c-0.704,0-1.326-0.108-1.866-0.324s-0.994-0.52-1.361-0.912
		c-0.376-0.384-0.66-0.842-0.853-1.373c-0.191-0.532-0.288-1.118-0.288-1.759v-0.096c0-0.647,0.108-1.24,0.324-1.776
		c0.216-0.535,0.52-0.995,0.912-1.38c0.384-0.384,0.844-0.684,1.38-0.899s1.12-0.324,1.752-0.324c0.48,0,0.938,0.056,1.374,0.168
		s0.826,0.288,1.17,0.528c0.344,0.248,0.63,0.562,0.858,0.941c0.228,0.38,0.365,0.834,0.414,1.362h-1.933
		c-0.088-0.503-0.29-0.872-0.605-1.107c-0.316-0.235-0.734-0.354-1.254-0.354c-0.752,0-1.334,0.258-1.746,0.773
		s-0.618,1.214-0.618,2.093v0.096c0,0.416,0.046,0.798,0.138,1.146s0.234,0.646,0.427,0.894c0.191,0.256,0.438,0.454,0.737,0.594
		s0.662,0.21,1.086,0.21c0.36,0,0.668-0.048,0.924-0.145c0.257-0.096,0.469-0.228,0.637-0.396c0.168-0.16,0.292-0.351,0.372-0.57
		s0.123-0.454,0.132-0.702h-1.933v-1.414h3.853v0.912c0,0.575-0.09,1.098-0.271,1.565c-0.18,0.468-0.441,0.865-0.785,1.193
		c-0.345,0.336-0.767,0.596-1.267,0.78C898.851,533.573,898.28,533.665,897.641,533.665z"/>
</g>
<g>
	<path style="fill:#402666;" d="M854.281,547.669c-0.592,0-1.104-0.066-1.536-0.198c-0.432-0.132-0.792-0.321-1.08-0.569
		s-0.508-0.545-0.66-0.889c-0.151-0.344-0.239-0.732-0.264-1.164h1.86c0.023,0.192,0.063,0.375,0.12,0.547
		c0.056,0.172,0.147,0.318,0.275,0.438c0.128,0.128,0.294,0.23,0.498,0.307s0.466,0.114,0.786,0.114
		c0.432,0,0.776-0.106,1.032-0.318s0.384-0.486,0.384-0.822c0-0.168-0.026-0.313-0.078-0.433s-0.138-0.224-0.258-0.312
		c-0.128-0.08-0.296-0.15-0.504-0.211c-0.208-0.06-0.468-0.113-0.78-0.162c-0.552-0.072-1.022-0.17-1.41-0.294
		s-0.706-0.29-0.954-0.498c-0.256-0.2-0.441-0.448-0.558-0.745c-0.116-0.296-0.174-0.652-0.174-1.068
		c0-0.369,0.074-0.709,0.222-1.021c0.148-0.313,0.358-0.584,0.63-0.816c0.272-0.225,0.601-0.4,0.984-0.528s0.812-0.192,1.284-0.192
		c0.968,0,1.726,0.214,2.273,0.643s0.862,1.071,0.942,1.928h-1.788c-0.056-0.384-0.204-0.67-0.444-0.858
		c-0.239-0.188-0.567-0.282-0.983-0.282c-0.433,0-0.754,0.09-0.967,0.271c-0.212,0.18-0.317,0.414-0.317,0.702
		c0,0.152,0.021,0.286,0.065,0.402s0.126,0.214,0.246,0.294c0.112,0.089,0.272,0.164,0.48,0.229c0.208,0.063,0.476,0.12,0.804,0.168
		c0.521,0.064,0.976,0.154,1.368,0.271c0.392,0.115,0.72,0.27,0.984,0.462c0.264,0.2,0.462,0.452,0.594,0.756
		s0.198,0.676,0.198,1.116c0,0.384-0.076,0.742-0.229,1.074c-0.151,0.332-0.368,0.618-0.647,0.858
		c-0.28,0.248-0.625,0.443-1.032,0.588C855.241,547.597,854.785,547.669,854.281,547.669z"/>
	<path style="fill:#402666;" d="M864.112,547.669c-0.673,0-1.28-0.11-1.824-0.33s-1.004-0.526-1.38-0.918
		c-0.385-0.385-0.68-0.845-0.889-1.381c-0.207-0.536-0.312-1.117-0.312-1.741v-0.096c0-0.641,0.11-1.229,0.33-1.765
		s0.53-0.997,0.93-1.381c0.393-0.384,0.856-0.685,1.393-0.9s1.124-0.324,1.764-0.324c0.647,0,1.242,0.104,1.782,0.313
		s1.006,0.5,1.397,0.876c0.384,0.384,0.687,0.841,0.906,1.368c0.22,0.529,0.33,1.117,0.33,1.766v0.096
		c0,0.641-0.106,1.23-0.318,1.771c-0.212,0.541-0.51,1.007-0.894,1.399c-0.384,0.392-0.849,0.698-1.393,0.918
		S864.784,547.669,864.112,547.669z M864.148,546.122c0.359,0,0.686-0.068,0.978-0.204s0.542-0.328,0.75-0.576
		c0.2-0.24,0.356-0.536,0.468-0.889c0.112-0.352,0.168-0.744,0.168-1.176v-0.097c0-0.416-0.054-0.796-0.162-1.14
		c-0.107-0.345-0.262-0.641-0.462-0.889c-0.208-0.248-0.46-0.44-0.756-0.576s-0.632-0.204-1.008-0.204s-0.71,0.066-1.002,0.198
		s-0.542,0.318-0.75,0.558c-0.208,0.248-0.366,0.547-0.474,0.895c-0.108,0.349-0.162,0.738-0.162,1.171v0.096
		c0,0.44,0.06,0.834,0.18,1.183c0.12,0.348,0.288,0.643,0.504,0.882c0.208,0.248,0.46,0.438,0.756,0.57
		S863.796,546.122,864.148,546.122z"/>
	<path style="fill:#402666;" d="M875.164,547.669c-0.672,0-1.28-0.11-1.824-0.33s-1.004-0.526-1.38-0.918
		c-0.384-0.385-0.681-0.845-0.888-1.381c-0.209-0.536-0.313-1.117-0.313-1.741v-0.096c0-0.641,0.11-1.229,0.33-1.765
		s0.53-0.997,0.93-1.381c0.393-0.384,0.856-0.685,1.393-0.9c0.535-0.216,1.124-0.324,1.764-0.324c0.648,0,1.242,0.104,1.782,0.313
		s1.006,0.5,1.397,0.876c0.385,0.384,0.687,0.841,0.906,1.368c0.22,0.529,0.33,1.117,0.33,1.766v0.096
		c0,0.641-0.106,1.23-0.318,1.771c-0.212,0.541-0.51,1.007-0.894,1.399c-0.384,0.392-0.849,0.698-1.393,0.918
		S875.836,547.669,875.164,547.669z M875.199,546.122c0.36,0,0.687-0.068,0.979-0.204s0.542-0.328,0.75-0.576
		c0.2-0.24,0.355-0.536,0.468-0.889c0.112-0.352,0.168-0.744,0.168-1.176v-0.097c0-0.416-0.054-0.796-0.162-1.14
		c-0.107-0.345-0.262-0.641-0.462-0.889c-0.208-0.248-0.46-0.44-0.756-0.576s-0.632-0.204-1.008-0.204s-0.71,0.066-1.002,0.198
		s-0.542,0.318-0.75,0.558c-0.208,0.248-0.366,0.547-0.475,0.895c-0.107,0.349-0.161,0.738-0.161,1.171v0.096
		c0,0.44,0.06,0.834,0.18,1.183c0.12,0.348,0.288,0.643,0.504,0.882c0.208,0.248,0.46,0.438,0.756,0.57
		S874.848,546.122,875.199,546.122z"/>
	<path style="fill:#402666;" d="M882.244,538.958h2.256l3.264,5.65v-5.65h1.729v8.578h-1.944l-3.576-6.106v6.106h-1.728V538.958z"/>
	<path style="fill:#402666;" d="M893.571,547.646c-0.152,0-0.294-0.026-0.426-0.078s-0.246-0.126-0.343-0.223
		c-0.104-0.096-0.184-0.206-0.239-0.33c-0.057-0.124-0.084-0.258-0.084-0.402c0-0.296,0.105-0.545,0.317-0.744
		c0.212-0.201,0.471-0.301,0.774-0.301s0.562,0.1,0.774,0.301c0.212,0.199,0.317,0.448,0.317,0.744c0,0.145-0.028,0.278-0.084,0.402
		s-0.132,0.234-0.228,0.33c-0.104,0.097-0.223,0.171-0.354,0.223S893.724,547.646,893.571,547.646z M892.611,538.958h1.944
		l-0.265,5.898h-1.416L892.611,538.958z"/>
</g>
<g>
	<path style="fill:#FFFFFF;" d="M600.04,495.099h3.072c0.504,0,0.96,0.052,1.368,0.156c0.408,0.104,0.756,0.264,1.044,0.479
		s0.51,0.487,0.666,0.815s0.234,0.712,0.234,1.151v0.048c0,0.328-0.044,0.616-0.133,0.864c-0.088,0.247-0.212,0.464-0.372,0.647
		c-0.159,0.184-0.348,0.34-0.563,0.468s-0.448,0.228-0.696,0.3l2.269,3.648h-2.064l-2.052-3.313h-0.84v3.313h-1.933V495.099z
		 M603.064,499.044c0.488,0,0.854-0.104,1.098-0.313c0.244-0.208,0.366-0.516,0.366-0.924v-0.048c0-0.44-0.126-0.746-0.378-0.919
		c-0.252-0.172-0.614-0.258-1.086-0.258h-1.092v2.461H603.064z"/>
	<path style="fill:#FFFFFF;" d="M609.362,495.099h5.592v1.516h-3.66v2h2.928v1.414h-2.928v2.133h3.853v1.516h-5.784V495.099z"/>
	<path style="fill:#FFFFFF;" d="M617.765,495.099h2.808c0.752,0,1.41,0.098,1.975,0.294c0.563,0.196,1.033,0.474,1.409,0.834
		c0.368,0.368,0.646,0.812,0.834,1.331c0.188,0.521,0.282,1.101,0.282,1.74v0.096c0,0.64-0.094,1.224-0.282,1.752
		c-0.188,0.527-0.47,0.979-0.846,1.355s-0.846,0.666-1.41,0.87c-0.563,0.204-1.222,0.306-1.974,0.306h-2.796V495.099z
		 M620.5,502.161c0.872,0,1.515-0.233,1.927-0.701c0.411-0.467,0.618-1.147,0.618-2.042v-0.097c0-0.878-0.202-1.549-0.606-2.012
		c-0.404-0.464-1.058-0.695-1.962-0.695h-0.769v5.547H620.5z"/>
	<path style="fill:#FFFFFF;" d="M631.19,495.099h1.944v3.5h3.443v-3.5h1.944v8.578h-1.944v-3.539h-3.443v3.539h-1.944V495.099z"/>
	<path style="fill:#FFFFFF;" d="M645.579,503.81c-0.673,0-1.28-0.11-1.824-0.33s-1.004-0.526-1.38-0.918
		c-0.385-0.385-0.68-0.845-0.889-1.381c-0.207-0.536-0.312-1.117-0.312-1.741v-0.096c0-0.641,0.11-1.229,0.33-1.765
		s0.53-0.997,0.93-1.381c0.393-0.384,0.856-0.685,1.393-0.9s1.124-0.324,1.764-0.324c0.647,0,1.242,0.104,1.782,0.313
		s1.006,0.5,1.397,0.876c0.384,0.384,0.687,0.841,0.906,1.368c0.22,0.529,0.33,1.117,0.33,1.766v0.096
		c0,0.641-0.106,1.23-0.318,1.771c-0.212,0.541-0.51,1.007-0.894,1.399c-0.384,0.392-0.849,0.698-1.393,0.918
		S646.251,503.81,645.579,503.81z M645.615,502.263c0.359,0,0.686-0.068,0.978-0.204s0.542-0.328,0.75-0.576
		c0.2-0.24,0.356-0.536,0.468-0.889c0.112-0.352,0.168-0.744,0.168-1.176v-0.097c0-0.416-0.054-0.796-0.162-1.14
		c-0.107-0.345-0.262-0.641-0.462-0.889c-0.208-0.248-0.46-0.44-0.756-0.576s-0.632-0.204-1.008-0.204s-0.71,0.066-1.002,0.198
		s-0.542,0.318-0.75,0.558c-0.208,0.248-0.366,0.547-0.474,0.895c-0.108,0.349-0.162,0.738-0.162,1.171v0.096
		c0,0.44,0.06,0.834,0.18,1.183c0.12,0.348,0.288,0.643,0.504,0.882c0.208,0.248,0.46,0.438,0.756,0.57
		S645.263,502.263,645.615,502.263z"/>
	<path style="fill:#FFFFFF;" d="M656.631,503.81c-0.672,0-1.28-0.11-1.824-0.33s-1.004-0.526-1.38-0.918
		c-0.384-0.385-0.681-0.845-0.888-1.381c-0.209-0.536-0.313-1.117-0.313-1.741v-0.096c0-0.641,0.11-1.229,0.33-1.765
		s0.53-0.997,0.93-1.381c0.393-0.384,0.856-0.685,1.393-0.9c0.535-0.216,1.124-0.324,1.764-0.324c0.648,0,1.242,0.104,1.782,0.313
		s1.006,0.5,1.397,0.876c0.385,0.384,0.687,0.841,0.906,1.368c0.22,0.529,0.33,1.117,0.33,1.766v0.096
		c0,0.641-0.106,1.23-0.318,1.771c-0.212,0.541-0.51,1.007-0.894,1.399c-0.384,0.392-0.849,0.698-1.393,0.918
		S657.303,503.81,656.631,503.81z M656.666,502.263c0.36,0,0.687-0.068,0.979-0.204s0.542-0.328,0.75-0.576
		c0.2-0.24,0.355-0.536,0.468-0.889c0.112-0.352,0.168-0.744,0.168-1.176v-0.097c0-0.416-0.054-0.796-0.162-1.14
		c-0.107-0.345-0.262-0.641-0.462-0.889c-0.208-0.248-0.46-0.44-0.756-0.576s-0.632-0.204-1.008-0.204s-0.71,0.066-1.002,0.198
		s-0.542,0.318-0.75,0.558c-0.208,0.248-0.366,0.547-0.475,0.895c-0.107,0.349-0.161,0.738-0.161,1.171v0.096
		c0,0.44,0.06,0.834,0.18,1.183c0.12,0.348,0.288,0.643,0.504,0.882c0.208,0.248,0.46,0.438,0.756,0.57
		S656.314,502.263,656.666,502.263z"/>
	<path style="fill:#FFFFFF;" d="M663.709,495.099h1.944v3.693l3-3.709h2.063l-3.396,4.068l3.563,4.525h-2.268l-2.964-3.853v3.853
		h-1.944V495.099z"/>
</g>
<g>
	<path style="fill:#402666;" d="M610.609,517.813c-0.704,0-1.324-0.104-1.859-0.313c-0.536-0.207-0.984-0.504-1.345-0.888
		c-0.368-0.376-0.644-0.832-0.828-1.368c-0.184-0.535-0.275-1.136-0.275-1.8v-0.096c0-0.647,0.107-1.242,0.323-1.782
		c0.217-0.54,0.517-1.002,0.9-1.386c0.376-0.384,0.824-0.682,1.344-0.894c0.521-0.212,1.084-0.318,1.692-0.318
		c0.512,0,0.99,0.064,1.434,0.191c0.444,0.129,0.834,0.32,1.171,0.576c0.327,0.256,0.598,0.579,0.81,0.971s0.342,0.852,0.39,1.379
		h-1.992c-0.071-0.518-0.254-0.91-0.546-1.178c-0.292-0.267-0.71-0.4-1.254-0.4c-0.68,0-1.22,0.248-1.62,0.744
		c-0.399,0.495-0.6,1.191-0.6,2.087v0.096c0,0.896,0.194,1.588,0.582,2.076c0.388,0.487,0.938,0.731,1.65,0.731
		c0.535,0,0.978-0.137,1.325-0.409c0.349-0.272,0.563-0.686,0.643-1.239h1.908c-0.057,0.528-0.188,0.995-0.396,1.399
		s-0.479,0.738-0.815,1.003c-0.337,0.271-0.729,0.477-1.177,0.612S611.138,517.813,610.609,517.813z"/>
	<path style="fill:#402666;" d="M620.944,517.813c-0.673,0-1.28-0.11-1.824-0.33s-1.004-0.526-1.38-0.918
		c-0.385-0.385-0.68-0.845-0.889-1.381c-0.207-0.536-0.312-1.117-0.312-1.741v-0.096c0-0.641,0.11-1.229,0.33-1.765
		s0.53-0.997,0.93-1.381c0.393-0.384,0.856-0.685,1.393-0.9s1.124-0.324,1.764-0.324c0.647,0,1.242,0.104,1.782,0.313
		s1.006,0.5,1.397,0.876c0.384,0.384,0.687,0.841,0.906,1.368c0.22,0.529,0.33,1.117,0.33,1.766v0.096
		c0,0.641-0.106,1.23-0.318,1.771c-0.212,0.541-0.51,1.007-0.894,1.399c-0.384,0.392-0.849,0.698-1.393,0.918
		S621.616,517.813,620.944,517.813z M620.98,516.267c0.359,0,0.686-0.068,0.978-0.204s0.542-0.328,0.75-0.576
		c0.2-0.24,0.356-0.536,0.468-0.889c0.112-0.352,0.168-0.744,0.168-1.176v-0.097c0-0.416-0.054-0.796-0.162-1.14
		c-0.107-0.345-0.262-0.641-0.462-0.889c-0.208-0.248-0.46-0.44-0.756-0.576s-0.632-0.204-1.008-0.204s-0.71,0.066-1.002,0.198
		s-0.542,0.318-0.75,0.558c-0.208,0.248-0.366,0.547-0.474,0.895c-0.108,0.349-0.162,0.738-0.162,1.171v0.096
		c0,0.44,0.06,0.834,0.18,1.183c0.12,0.348,0.288,0.643,0.504,0.882c0.208,0.248,0.46,0.438,0.756,0.57
		S620.628,516.267,620.98,516.267z"/>
	<path style="fill:#402666;" d="M628.023,509.103h2.568l2.004,5.339l1.979-5.339h2.521v8.578h-1.933v-6.022l-2.376,6.022h-0.636
		l-2.388-6.022v6.022h-1.74V509.103z"/>
	<path style="fill:#402666;" d="M640.264,509.103h1.956v8.578h-1.956V509.103z"/>
	<path style="fill:#402666;" d="M645.363,509.103h2.256l3.264,5.65v-5.65h1.729v8.578h-1.944l-3.576-6.106v6.106h-1.728V509.103z"/>
	<path style="fill:#402666;" d="M659.645,517.813c-0.704,0-1.326-0.108-1.866-0.324s-0.994-0.52-1.361-0.912
		c-0.376-0.384-0.66-0.842-0.853-1.373c-0.191-0.532-0.288-1.118-0.288-1.759v-0.096c0-0.647,0.108-1.24,0.324-1.776
		c0.216-0.535,0.52-0.995,0.912-1.38c0.384-0.384,0.844-0.684,1.38-0.899s1.12-0.324,1.752-0.324c0.48,0,0.938,0.056,1.374,0.168
		s0.826,0.288,1.17,0.528c0.344,0.248,0.63,0.562,0.858,0.941c0.228,0.38,0.365,0.834,0.414,1.362h-1.933
		c-0.088-0.503-0.29-0.872-0.605-1.107c-0.316-0.235-0.734-0.354-1.254-0.354c-0.752,0-1.334,0.258-1.746,0.773
		s-0.618,1.214-0.618,2.093v0.096c0,0.416,0.046,0.798,0.138,1.146s0.234,0.646,0.427,0.894c0.191,0.256,0.438,0.454,0.737,0.594
		s0.662,0.21,1.086,0.21c0.36,0,0.668-0.048,0.924-0.145c0.257-0.096,0.469-0.228,0.637-0.396c0.168-0.16,0.292-0.351,0.372-0.57
		s0.123-0.454,0.132-0.702h-1.933v-1.414h3.853v0.912c0,0.575-0.09,1.098-0.271,1.565c-0.18,0.468-0.441,0.865-0.785,1.193
		c-0.345,0.336-0.767,0.596-1.267,0.78C660.854,517.722,660.284,517.813,659.645,517.813z"/>
</g>
<g>
	<path style="fill:#402666;" d="M616.285,531.817c-0.592,0-1.104-0.066-1.536-0.198c-0.432-0.132-0.792-0.321-1.08-0.569
		s-0.508-0.545-0.66-0.889c-0.151-0.344-0.239-0.732-0.264-1.164h1.86c0.023,0.192,0.063,0.375,0.12,0.547
		c0.056,0.172,0.147,0.318,0.275,0.438c0.128,0.128,0.294,0.23,0.498,0.307s0.466,0.114,0.786,0.114
		c0.432,0,0.776-0.106,1.032-0.318s0.384-0.486,0.384-0.822c0-0.168-0.026-0.313-0.078-0.433s-0.138-0.224-0.258-0.312
		c-0.128-0.08-0.296-0.15-0.504-0.211c-0.208-0.06-0.468-0.113-0.78-0.162c-0.552-0.072-1.022-0.17-1.41-0.294
		s-0.706-0.29-0.954-0.498c-0.256-0.2-0.441-0.448-0.558-0.745c-0.116-0.296-0.174-0.652-0.174-1.068
		c0-0.369,0.074-0.709,0.222-1.021c0.148-0.313,0.358-0.584,0.63-0.816c0.272-0.225,0.601-0.4,0.984-0.528s0.812-0.192,1.284-0.192
		c0.968,0,1.726,0.214,2.273,0.643s0.862,1.071,0.942,1.928h-1.788c-0.056-0.384-0.204-0.67-0.444-0.858
		c-0.239-0.188-0.567-0.282-0.983-0.282c-0.433,0-0.754,0.09-0.967,0.271c-0.212,0.18-0.317,0.414-0.317,0.702
		c0,0.152,0.021,0.286,0.065,0.402s0.126,0.214,0.246,0.294c0.112,0.089,0.272,0.164,0.48,0.229c0.208,0.063,0.476,0.12,0.804,0.168
		c0.521,0.064,0.976,0.154,1.368,0.271c0.392,0.115,0.72,0.27,0.984,0.462c0.264,0.2,0.462,0.452,0.594,0.756
		s0.198,0.676,0.198,1.116c0,0.384-0.076,0.742-0.229,1.074c-0.151,0.332-0.368,0.618-0.647,0.858
		c-0.28,0.248-0.625,0.443-1.032,0.588C617.245,531.745,616.789,531.817,616.285,531.817z"/>
	<path style="fill:#402666;" d="M626.116,531.817c-0.673,0-1.28-0.11-1.824-0.33s-1.004-0.526-1.38-0.918
		c-0.385-0.385-0.68-0.845-0.889-1.381c-0.207-0.536-0.312-1.117-0.312-1.741v-0.096c0-0.641,0.11-1.229,0.33-1.765
		s0.53-0.997,0.93-1.381c0.393-0.384,0.856-0.685,1.393-0.9s1.124-0.324,1.764-0.324c0.647,0,1.242,0.104,1.782,0.313
		s1.006,0.5,1.397,0.876c0.384,0.384,0.687,0.841,0.906,1.368c0.22,0.529,0.33,1.117,0.33,1.766v0.096
		c0,0.641-0.106,1.23-0.318,1.771c-0.212,0.541-0.51,1.007-0.894,1.399c-0.384,0.392-0.849,0.698-1.393,0.918
		S626.788,531.817,626.116,531.817z M626.152,530.271c0.359,0,0.686-0.068,0.978-0.204s0.542-0.328,0.75-0.576
		c0.2-0.24,0.356-0.536,0.468-0.889c0.112-0.352,0.168-0.744,0.168-1.176v-0.097c0-0.416-0.054-0.796-0.162-1.14
		c-0.107-0.345-0.262-0.641-0.462-0.889c-0.208-0.248-0.46-0.44-0.756-0.576s-0.632-0.204-1.008-0.204s-0.71,0.066-1.002,0.198
		s-0.542,0.318-0.75,0.558c-0.208,0.248-0.366,0.547-0.474,0.895c-0.108,0.349-0.162,0.738-0.162,1.171v0.096
		c0,0.44,0.06,0.834,0.18,1.183c0.12,0.348,0.288,0.643,0.504,0.882c0.208,0.248,0.46,0.438,0.756,0.57
		S625.8,530.271,626.152,530.271z"/>
	<path style="fill:#402666;" d="M637.168,531.817c-0.672,0-1.28-0.11-1.824-0.33s-1.004-0.526-1.38-0.918
		c-0.384-0.385-0.681-0.845-0.888-1.381c-0.209-0.536-0.313-1.117-0.313-1.741v-0.096c0-0.641,0.11-1.229,0.33-1.765
		s0.53-0.997,0.93-1.381c0.393-0.384,0.856-0.685,1.393-0.9c0.535-0.216,1.124-0.324,1.764-0.324c0.648,0,1.242,0.104,1.782,0.313
		s1.006,0.5,1.397,0.876c0.385,0.384,0.687,0.841,0.906,1.368c0.22,0.529,0.33,1.117,0.33,1.766v0.096
		c0,0.641-0.106,1.23-0.318,1.771c-0.212,0.541-0.51,1.007-0.894,1.399c-0.384,0.392-0.849,0.698-1.393,0.918
		S637.84,531.817,637.168,531.817z M637.203,530.271c0.36,0,0.687-0.068,0.979-0.204s0.542-0.328,0.75-0.576
		c0.2-0.24,0.355-0.536,0.468-0.889c0.112-0.352,0.168-0.744,0.168-1.176v-0.097c0-0.416-0.054-0.796-0.162-1.14
		c-0.107-0.345-0.262-0.641-0.462-0.889c-0.208-0.248-0.46-0.44-0.756-0.576s-0.632-0.204-1.008-0.204s-0.71,0.066-1.002,0.198
		s-0.542,0.318-0.75,0.558c-0.208,0.248-0.366,0.547-0.475,0.895c-0.107,0.349-0.161,0.738-0.161,1.171v0.096
		c0,0.44,0.06,0.834,0.18,1.183c0.12,0.348,0.288,0.643,0.504,0.882c0.208,0.248,0.46,0.438,0.756,0.57
		S636.852,530.271,637.203,530.271z"/>
	<path style="fill:#402666;" d="M644.248,523.106h2.256l3.264,5.65v-5.65h1.729v8.578h-1.944l-3.576-6.106v6.106h-1.728V523.106z"/>
	<path style="fill:#402666;" d="M655.575,531.794c-0.152,0-0.294-0.026-0.426-0.078s-0.246-0.126-0.343-0.223
		c-0.104-0.096-0.184-0.206-0.239-0.33c-0.057-0.124-0.084-0.258-0.084-0.402c0-0.296,0.105-0.545,0.317-0.744
		c0.212-0.201,0.471-0.301,0.774-0.301s0.562,0.1,0.774,0.301c0.212,0.199,0.317,0.448,0.317,0.744c0,0.145-0.028,0.278-0.084,0.402
		s-0.132,0.234-0.228,0.33c-0.104,0.097-0.223,0.171-0.354,0.223S655.728,531.794,655.575,531.794z M654.615,523.106h1.944
		l-0.265,5.898h-1.416L654.615,523.106z"/>
</g>
<g>
	<path style="fill:#FFFFFF;" d="M909.17,389.931h5.508v1.516h-3.564v2.273h2.82v1.461h-2.82v3.328h-1.943V389.931z"/>
	<path style="fill:#FFFFFF;" d="M921.063,398.642c-0.673,0-1.28-0.11-1.824-0.33s-1.004-0.526-1.38-0.918
		c-0.385-0.385-0.68-0.845-0.889-1.381c-0.207-0.536-0.312-1.117-0.312-1.741v-0.096c0-0.641,0.11-1.229,0.33-1.765
		s0.53-0.997,0.93-1.381c0.393-0.384,0.856-0.685,1.393-0.9s1.124-0.324,1.764-0.324c0.647,0,1.242,0.104,1.782,0.313
		s1.006,0.5,1.397,0.876c0.384,0.384,0.687,0.841,0.906,1.368c0.22,0.529,0.33,1.117,0.33,1.766v0.096
		c0,0.641-0.106,1.23-0.318,1.771c-0.212,0.541-0.51,1.007-0.894,1.399c-0.384,0.392-0.849,0.698-1.393,0.918
		S921.735,398.642,921.063,398.642z M921.1,397.095c0.359,0,0.686-0.068,0.978-0.204s0.542-0.328,0.75-0.576
		c0.2-0.24,0.356-0.536,0.468-0.889c0.112-0.352,0.168-0.744,0.168-1.176v-0.097c0-0.416-0.054-0.796-0.162-1.14
		c-0.107-0.345-0.262-0.641-0.462-0.889c-0.208-0.248-0.46-0.44-0.756-0.576s-0.632-0.204-1.008-0.204s-0.71,0.066-1.002,0.198
		s-0.542,0.318-0.75,0.558c-0.208,0.248-0.366,0.547-0.474,0.895c-0.108,0.349-0.162,0.738-0.162,1.171v0.096
		c0,0.44,0.06,0.834,0.18,1.183c0.12,0.348,0.288,0.643,0.504,0.882c0.208,0.248,0.46,0.438,0.756,0.57
		S920.747,397.095,921.1,397.095z"/>
	<path style="fill:#FFFFFF;" d="M928.144,389.931h3.072c0.504,0,0.96,0.052,1.368,0.156c0.408,0.104,0.756,0.264,1.044,0.479
		s0.51,0.487,0.666,0.815s0.234,0.712,0.234,1.151v0.048c0,0.328-0.044,0.616-0.133,0.864c-0.088,0.247-0.212,0.464-0.372,0.647
		c-0.159,0.184-0.348,0.34-0.563,0.468s-0.448,0.228-0.696,0.3l2.269,3.648h-2.064l-2.052-3.313h-0.84v3.313h-1.933V389.931z
		 M931.168,393.876c0.488,0,0.854-0.104,1.098-0.313c0.244-0.208,0.366-0.516,0.366-0.924v-0.048c0-0.44-0.126-0.746-0.378-0.919
		c-0.252-0.172-0.614-0.258-1.086-0.258h-1.092v2.461H931.168z"/>
	<path style="fill:#FFFFFF;" d="M938.953,391.446h-2.316v-1.516h6.588v1.516h-2.315v7.063h-1.956V391.446z"/>
</g>
<g>
	<path style="fill:#FFFFFF;" d="M907.9,412.646c-0.704,0-1.326-0.108-1.866-0.324s-0.994-0.52-1.361-0.912
		c-0.376-0.384-0.66-0.842-0.853-1.373c-0.191-0.532-0.288-1.118-0.288-1.759v-0.096c0-0.647,0.108-1.24,0.324-1.776
		c0.216-0.535,0.52-0.995,0.912-1.38c0.384-0.384,0.844-0.684,1.38-0.899s1.12-0.324,1.752-0.324c0.48,0,0.938,0.056,1.374,0.168
		s0.826,0.288,1.17,0.528c0.344,0.248,0.63,0.562,0.858,0.941c0.228,0.38,0.365,0.834,0.414,1.362h-1.933
		c-0.088-0.503-0.29-0.872-0.605-1.107c-0.316-0.235-0.734-0.354-1.254-0.354c-0.752,0-1.334,0.258-1.746,0.773
		s-0.618,1.214-0.618,2.093v0.096c0,0.416,0.046,0.798,0.138,1.146s0.234,0.646,0.427,0.894c0.191,0.256,0.438,0.454,0.737,0.594
		s0.662,0.21,1.086,0.21c0.36,0,0.668-0.048,0.924-0.145c0.257-0.096,0.469-0.228,0.637-0.396c0.168-0.16,0.292-0.351,0.372-0.57
		s0.123-0.454,0.132-0.702h-1.933v-1.414h3.853v0.912c0,0.575-0.09,1.098-0.271,1.565c-0.18,0.468-0.441,0.865-0.785,1.193
		c-0.345,0.336-0.767,0.596-1.267,0.78C909.11,412.554,908.54,412.646,907.9,412.646z"/>
	<path style="fill:#FFFFFF;" d="M914.596,403.935h3.072c0.504,0,0.96,0.052,1.368,0.156c0.408,0.104,0.756,0.264,1.044,0.479
		s0.51,0.487,0.666,0.815s0.234,0.712,0.234,1.151v0.048c0,0.328-0.045,0.616-0.133,0.864c-0.088,0.247-0.212,0.464-0.371,0.647
		c-0.16,0.184-0.349,0.34-0.564,0.468s-0.448,0.228-0.696,0.3l2.269,3.648h-2.064l-2.052-3.313h-0.84v3.313h-1.933V403.935z
		 M917.62,407.88c0.488,0,0.854-0.104,1.098-0.313c0.244-0.208,0.366-0.516,0.366-0.924v-0.048c0-0.44-0.126-0.746-0.378-0.919
		c-0.252-0.172-0.614-0.258-1.086-0.258h-1.092v2.461H917.62z"/>
	<path style="fill:#FFFFFF;" d="M923.905,403.935h5.592v1.516h-3.66v2h2.928v1.414h-2.928v2.133h3.853v1.516h-5.784V403.935z"/>
	<path style="fill:#FFFFFF;" d="M932.306,403.935h5.592v1.516h-3.66v2h2.928v1.414h-2.928v2.133h3.853v1.516h-5.784V403.935z"/>
	<path style="fill:#FFFFFF;" d="M940.707,403.935h2.256l3.264,5.65v-5.65h1.729v8.578h-1.944l-3.576-6.106v6.106h-1.728V403.935z"/>
</g>
<g>
	<path style="fill:#FFFFFF;" d="M984.037,400.165c-0.704,0-1.324-0.104-1.859-0.313c-0.536-0.207-0.984-0.504-1.345-0.888
		c-0.368-0.376-0.644-0.832-0.828-1.368c-0.184-0.535-0.275-1.136-0.275-1.8v-0.096c0-0.647,0.107-1.242,0.323-1.782
		c0.217-0.54,0.517-1.002,0.9-1.386c0.376-0.384,0.824-0.682,1.344-0.894c0.521-0.212,1.084-0.318,1.692-0.318
		c0.512,0,0.99,0.064,1.434,0.191c0.444,0.129,0.834,0.32,1.171,0.576c0.327,0.256,0.598,0.579,0.81,0.971s0.342,0.852,0.39,1.379
		h-1.992c-0.071-0.518-0.254-0.91-0.546-1.178c-0.292-0.267-0.71-0.4-1.254-0.4c-0.68,0-1.22,0.248-1.62,0.744
		c-0.399,0.495-0.6,1.191-0.6,2.087v0.096c0,0.896,0.194,1.588,0.582,2.076c0.388,0.487,0.938,0.731,1.65,0.731
		c0.535,0,0.978-0.137,1.325-0.409c0.349-0.272,0.563-0.686,0.643-1.239h1.908c-0.057,0.528-0.188,0.995-0.396,1.399
		s-0.479,0.738-0.815,1.003c-0.337,0.271-0.729,0.477-1.177,0.612S984.565,400.165,984.037,400.165z"/>
	<path style="fill:#FFFFFF;" d="M990.412,391.454h1.944v7.055h3.492v1.523h-5.437V391.454z"/>
	<path style="fill:#FFFFFF;" d="M998.428,391.454h1.956v8.578h-1.956V391.454z"/>
	<path style="fill:#FFFFFF;" d="M1003.539,391.454h2.256l3.264,5.65v-5.65h1.729v8.578h-1.944l-3.576-6.106v6.106h-1.728V391.454z"
		/>
	<path style="fill:#FFFFFF;" d="M1015.562,392.97h-2.316v-1.516h6.589v1.516h-2.316v7.063h-1.956V392.97z"/>
	<path style="fill:#FFFFFF;" d="M1025.896,400.165c-0.673,0-1.28-0.11-1.824-0.33s-1.004-0.526-1.38-0.918
		c-0.385-0.385-0.68-0.845-0.889-1.381c-0.207-0.536-0.312-1.117-0.312-1.741v-0.096c0-0.641,0.11-1.229,0.33-1.765
		s0.53-0.997,0.93-1.381c0.393-0.384,0.856-0.685,1.393-0.9s1.124-0.324,1.764-0.324c0.647,0,1.242,0.104,1.782,0.313
		s1.006,0.5,1.397,0.876c0.384,0.384,0.687,0.841,0.906,1.368c0.22,0.529,0.33,1.117,0.33,1.766v0.096
		c0,0.641-0.106,1.23-0.318,1.771c-0.212,0.541-0.51,1.007-0.894,1.399c-0.384,0.392-0.849,0.698-1.393,0.918
		S1026.567,400.165,1025.896,400.165z M1025.932,398.618c0.359,0,0.686-0.068,0.978-0.204s0.542-0.328,0.75-0.576
		c0.2-0.24,0.356-0.536,0.468-0.889c0.112-0.352,0.168-0.744,0.168-1.176v-0.097c0-0.416-0.054-0.796-0.162-1.14
		c-0.107-0.345-0.262-0.641-0.462-0.889c-0.208-0.248-0.46-0.44-0.756-0.576s-0.632-0.204-1.008-0.204s-0.71,0.066-1.002,0.198
		s-0.542,0.318-0.75,0.558c-0.208,0.248-0.366,0.547-0.474,0.895c-0.108,0.349-0.162,0.738-0.162,1.171v0.096
		c0,0.44,0.06,0.834,0.18,1.183c0.12,0.348,0.288,0.643,0.504,0.882c0.208,0.248,0.46,0.438,0.756,0.57
		S1025.579,398.618,1025.932,398.618z"/>
	<path style="fill:#FFFFFF;" d="M1032.987,391.454h2.256l3.264,5.65v-5.65h1.729v8.578h-1.944l-3.576-6.106v6.106h-1.728V391.454z"
		/>
</g>
<g>
	<path style="fill:#FFFFFF;" d="M995.787,405.459h1.944v3.5h3.444v-3.5h1.943v8.578h-1.943v-3.539h-3.444v3.539h-1.944V405.459z"/>
	<path style="fill:#FFFFFF;" d="M1006.264,405.459h1.956v8.578h-1.956V405.459z"/>
	<path style="fill:#FFFFFF;" d="M1011.364,405.459h1.944v7.055h3.492v1.523h-5.437V405.459z"/>
	<path style="fill:#FFFFFF;" d="M1019.344,405.459h1.944v7.055h3.492v1.523h-5.437V405.459z"/>
</g>
<g>
	<path style="fill:#FFFFFF;" d="M718.925,326.702h2.808c0.752,0,1.41,0.098,1.975,0.294c0.563,0.196,1.033,0.474,1.409,0.834
		c0.368,0.368,0.646,0.812,0.834,1.331c0.188,0.521,0.282,1.101,0.282,1.74v0.096c0,0.64-0.094,1.224-0.282,1.752
		c-0.188,0.527-0.47,0.979-0.846,1.355s-0.846,0.666-1.41,0.87c-0.563,0.204-1.222,0.306-1.974,0.306h-2.796V326.702z
		 M721.66,333.765c0.872,0,1.515-0.233,1.927-0.701c0.411-0.467,0.618-1.147,0.618-2.042v-0.097c0-0.878-0.202-1.549-0.606-2.012
		c-0.404-0.464-1.058-0.695-1.962-0.695h-0.769v5.547H721.66z"/>
	<path style="fill:#FFFFFF;" d="M732.353,335.413c-1.136,0-2.01-0.294-2.622-0.882s-0.918-1.454-0.918-2.598v-5.231h1.956v5.112
		c0,0.72,0.118,1.242,0.354,1.565c0.235,0.324,0.649,0.486,1.241,0.486c0.576,0,0.996-0.158,1.261-0.474
		c0.264-0.316,0.396-0.866,0.396-1.65v-5.04h1.956v5.159c0,1.176-0.313,2.062-0.936,2.658
		C734.416,335.115,733.521,335.413,732.353,335.413z"/>
	<path style="fill:#FFFFFF;" d="M739,326.702h2.568l2.004,5.339l1.979-5.339h2.521v8.578h-1.933v-6.022l-2.376,6.022h-0.636
		l-2.388-6.022v6.022H739V326.702z"/>
	<path style="fill:#FFFFFF;" d="M751.18,326.702h3.372c0.944,0,1.654,0.188,2.13,0.563c0.477,0.376,0.715,0.932,0.715,1.667v0.048
		c0,0.455-0.112,0.841-0.337,1.157c-0.224,0.315-0.575,0.541-1.056,0.677c0.561,0.112,0.986,0.332,1.278,0.66
		s0.438,0.78,0.438,1.356v0.049c0,0.792-0.252,1.391-0.756,1.794c-0.504,0.404-1.256,0.606-2.256,0.606h-3.528V326.702z
		 M754.24,330.226c0.472,0,0.808-0.088,1.008-0.264s0.3-0.456,0.3-0.84v-0.048c0-0.36-0.105-0.624-0.317-0.792
		c-0.213-0.168-0.547-0.252-1.002-0.252h-1.152v2.195H754.24z M754.408,333.937c0.479,0,0.832-0.104,1.056-0.313
		c0.224-0.208,0.336-0.508,0.336-0.9v-0.048c0-0.399-0.116-0.7-0.348-0.9c-0.232-0.2-0.612-0.3-1.14-0.3h-1.236v2.461H754.408z"/>
	<path style="fill:#FFFFFF;" d="M764.295,335.413c-0.672,0-1.28-0.11-1.824-0.33s-1.004-0.526-1.38-0.918
		c-0.384-0.385-0.681-0.845-0.888-1.381c-0.209-0.536-0.313-1.117-0.313-1.741v-0.096c0-0.641,0.11-1.229,0.33-1.765
		s0.53-0.997,0.93-1.381c0.393-0.384,0.856-0.685,1.393-0.9c0.535-0.216,1.124-0.324,1.764-0.324c0.648,0,1.242,0.104,1.782,0.313
		s1.006,0.5,1.397,0.876c0.385,0.384,0.687,0.841,0.906,1.368c0.22,0.529,0.33,1.117,0.33,1.766v0.096
		c0,0.641-0.106,1.23-0.318,1.771c-0.212,0.541-0.51,1.007-0.894,1.399c-0.384,0.392-0.849,0.698-1.393,0.918
		S764.967,335.413,764.295,335.413z M764.33,333.866c0.36,0,0.687-0.068,0.979-0.204s0.542-0.328,0.75-0.576
		c0.2-0.24,0.355-0.536,0.468-0.889c0.112-0.352,0.168-0.744,0.168-1.176v-0.097c0-0.416-0.054-0.796-0.162-1.14
		c-0.107-0.345-0.262-0.641-0.462-0.889c-0.208-0.248-0.46-0.44-0.756-0.576s-0.632-0.204-1.008-0.204s-0.71,0.066-1.002,0.198
		s-0.542,0.318-0.75,0.558c-0.208,0.248-0.366,0.547-0.475,0.895c-0.107,0.349-0.161,0.738-0.161,1.171v0.096
		c0,0.44,0.06,0.834,0.18,1.183c0.12,0.348,0.288,0.643,0.504,0.882c0.208,0.248,0.46,0.438,0.756,0.57
		S763.979,333.866,764.33,333.866z"/>
</g>
<g>
	<path style="fill:#FFFFFF;" d="M661.731,398.715h3.372c0.944,0,1.654,0.188,2.13,0.563c0.477,0.376,0.714,0.932,0.714,1.667v0.048
		c0,0.455-0.111,0.841-0.336,1.156c-0.224,0.316-0.576,0.542-1.056,0.678c0.56,0.112,0.986,0.332,1.278,0.66s0.438,0.78,0.438,1.356
		v0.048c0,0.793-0.252,1.391-0.756,1.795s-1.256,0.606-2.256,0.606h-3.528V398.715z M664.792,402.238
		c0.472,0,0.808-0.088,1.008-0.264s0.3-0.456,0.3-0.84v-0.048c0-0.36-0.105-0.624-0.317-0.792s-0.546-0.252-1.003-0.252h-1.151
		v2.195H664.792z M664.96,405.949c0.479,0,0.832-0.104,1.056-0.313s0.336-0.508,0.336-0.899v-0.049c0-0.4-0.116-0.7-0.348-0.9
		c-0.232-0.199-0.612-0.3-1.141-0.3h-1.235v2.461H664.96z"/>
	<path style="fill:#FFFFFF;" d="M670.899,398.715h3.072c0.504,0,0.96,0.052,1.368,0.156c0.408,0.104,0.756,0.264,1.044,0.479
		s0.51,0.487,0.666,0.815s0.234,0.712,0.234,1.151v0.048c0,0.328-0.044,0.616-0.133,0.864c-0.088,0.248-0.212,0.464-0.372,0.647
		c-0.159,0.184-0.348,0.34-0.563,0.468s-0.448,0.228-0.696,0.3l2.269,3.648h-2.064l-2.052-3.313h-0.84v3.313h-1.933V398.715z
		 M673.924,402.66c0.488,0,0.854-0.104,1.098-0.313s0.366-0.516,0.366-0.924v-0.048c0-0.44-0.126-0.746-0.378-0.919
		c-0.252-0.172-0.614-0.258-1.086-0.258h-1.092v2.461H673.924z"/>
	<path style="fill:#FFFFFF;" d="M684.051,407.426c-0.672,0-1.28-0.11-1.824-0.33s-1.004-0.526-1.38-0.919
		c-0.384-0.384-0.681-0.844-0.888-1.38c-0.209-0.536-0.313-1.116-0.313-1.741v-0.096c0-0.641,0.11-1.229,0.33-1.765
		s0.53-0.997,0.93-1.381c0.393-0.384,0.856-0.685,1.393-0.9c0.535-0.216,1.124-0.324,1.764-0.324c0.648,0,1.242,0.104,1.782,0.313
		s1.006,0.5,1.397,0.876c0.385,0.385,0.687,0.841,0.906,1.369c0.22,0.527,0.33,1.116,0.33,1.765v0.096
		c0,0.641-0.106,1.23-0.318,1.771c-0.212,0.541-0.51,1.007-0.894,1.398c-0.384,0.393-0.849,0.699-1.393,0.919
		S684.723,407.426,684.051,407.426z M684.086,405.879c0.36,0,0.687-0.068,0.979-0.204s0.542-0.328,0.75-0.576
		c0.2-0.24,0.355-0.536,0.468-0.889c0.112-0.352,0.168-0.744,0.168-1.176v-0.097c0-0.416-0.054-0.796-0.162-1.14
		c-0.107-0.345-0.262-0.641-0.462-0.889c-0.208-0.248-0.46-0.44-0.756-0.576s-0.632-0.204-1.008-0.204s-0.71,0.066-1.002,0.198
		s-0.542,0.318-0.75,0.558c-0.208,0.249-0.366,0.547-0.475,0.895c-0.107,0.349-0.161,0.738-0.161,1.171v0.096
		c0,0.44,0.06,0.834,0.18,1.183c0.12,0.348,0.288,0.642,0.504,0.882c0.208,0.248,0.46,0.438,0.756,0.57
		C683.41,405.813,683.734,405.879,684.086,405.879z"/>
	<path style="fill:#FFFFFF;" d="M695.091,407.426c-0.673,0-1.28-0.11-1.824-0.33s-1.004-0.526-1.38-0.919
		c-0.385-0.384-0.68-0.844-0.889-1.38c-0.207-0.536-0.312-1.116-0.312-1.741v-0.096c0-0.641,0.11-1.229,0.33-1.765
		s0.53-0.997,0.93-1.381c0.393-0.384,0.856-0.685,1.393-0.9s1.124-0.324,1.764-0.324c0.647,0,1.242,0.104,1.782,0.313
		s1.006,0.5,1.397,0.876c0.384,0.385,0.687,0.841,0.906,1.369c0.22,0.527,0.33,1.116,0.33,1.765v0.096
		c0,0.641-0.106,1.23-0.318,1.771c-0.212,0.541-0.51,1.007-0.894,1.398c-0.384,0.393-0.849,0.699-1.393,0.919
		S695.763,407.426,695.091,407.426z M695.127,405.879c0.359,0,0.686-0.068,0.978-0.204s0.542-0.328,0.75-0.576
		c0.2-0.24,0.356-0.536,0.468-0.889c0.112-0.352,0.168-0.744,0.168-1.176v-0.097c0-0.416-0.054-0.796-0.162-1.14
		c-0.107-0.345-0.262-0.641-0.462-0.889c-0.208-0.248-0.46-0.44-0.756-0.576s-0.632-0.204-1.008-0.204s-0.71,0.066-1.002,0.198
		s-0.542,0.318-0.75,0.558c-0.208,0.249-0.366,0.547-0.474,0.895c-0.108,0.349-0.162,0.738-0.162,1.171v0.096
		c0,0.44,0.06,0.834,0.18,1.183c0.12,0.348,0.288,0.642,0.504,0.882c0.208,0.248,0.46,0.438,0.756,0.57
		C694.45,405.813,694.774,405.879,695.127,405.879z"/>
	<path style="fill:#FFFFFF;" d="M702.181,398.715h1.944v3.693l3-3.709h2.064l-3.396,4.069l3.564,4.524h-2.269l-2.964-3.853v3.853
		h-1.944V398.715z"/>
	<path style="fill:#FFFFFF;" d="M711.675,398.715h1.944v7.055h3.492v1.523h-5.437V398.715z"/>
	<path style="fill:#FFFFFF;" d="M720.688,403.598l-2.832-4.883h2.136l1.739,3.287l1.704-3.287h1.885l-2.677,4.883v3.695h-1.955
		V403.598z"/>
	<path style="fill:#FFFFFF;" d="M727.658,398.715h2.256l3.264,5.65v-5.65h1.729v8.578h-1.944l-3.576-6.106v6.106h-1.728V398.715z"/>
</g>
<g>
	<path style="fill:#FFFFFF;" d="M668.679,412.719h1.944v3.5h3.443v-3.5h1.944v8.578h-1.944v-3.539h-3.443v3.539h-1.944V412.719z"/>
	<path style="fill:#FFFFFF;" d="M679.105,412.719h5.592v1.516h-3.66v2h2.928v1.414h-2.928v2.133h3.853v1.516h-5.784V412.719z"/>
	<path style="fill:#FFFFFF;" d="M687.556,412.719h1.956v8.578h-1.956V412.719z"/>
	<path style="fill:#FFFFFF;" d="M696.592,421.43c-0.704,0-1.326-0.108-1.866-0.324s-0.994-0.52-1.361-0.912
		c-0.376-0.384-0.66-0.842-0.853-1.374c-0.191-0.531-0.288-1.117-0.288-1.758v-0.096c0-0.648,0.108-1.24,0.324-1.775
		c0.216-0.536,0.52-0.996,0.912-1.381c0.384-0.384,0.844-0.684,1.38-0.899s1.12-0.324,1.752-0.324c0.48,0,0.938,0.056,1.374,0.168
		s0.826,0.288,1.17,0.528c0.344,0.248,0.63,0.562,0.858,0.941c0.228,0.381,0.365,0.834,0.414,1.362h-1.933
		c-0.088-0.503-0.29-0.872-0.605-1.107c-0.316-0.235-0.734-0.354-1.254-0.354c-0.752,0-1.334,0.258-1.746,0.773
		s-0.618,1.214-0.618,2.093v0.096c0,0.416,0.046,0.798,0.138,1.146c0.092,0.349,0.234,0.646,0.427,0.894
		c0.191,0.256,0.438,0.454,0.737,0.594s0.662,0.21,1.086,0.21c0.36,0,0.668-0.048,0.924-0.144c0.257-0.097,0.469-0.229,0.637-0.396
		c0.168-0.16,0.292-0.351,0.372-0.57s0.123-0.454,0.132-0.702h-1.933v-1.414h3.853v0.912c0,0.575-0.09,1.098-0.271,1.565
		c-0.18,0.468-0.441,0.865-0.785,1.193c-0.345,0.336-0.767,0.596-1.267,0.779C697.802,421.338,697.231,421.43,696.592,421.43z"/>
	<path style="fill:#FFFFFF;" d="M703.274,412.719h1.944v3.5h3.443v-3.5h1.944v8.578h-1.944v-3.539h-3.443v3.539h-1.944V412.719z"/>
	<path style="fill:#FFFFFF;" d="M715.381,414.234h-2.316v-1.516h6.588v1.516h-2.315v7.063h-1.956V414.234z"/>
	<path style="fill:#FFFFFF;" d="M724.992,421.43c-0.592,0-1.104-0.066-1.536-0.198c-0.432-0.132-0.792-0.322-1.08-0.57
		s-0.508-0.544-0.66-0.888c-0.151-0.344-0.239-0.731-0.264-1.164h1.86c0.023,0.192,0.063,0.375,0.12,0.547
		c0.056,0.173,0.147,0.318,0.275,0.438c0.128,0.129,0.294,0.23,0.498,0.307s0.466,0.114,0.786,0.114
		c0.432,0,0.776-0.106,1.032-0.318s0.384-0.486,0.384-0.822c0-0.168-0.026-0.313-0.078-0.433s-0.138-0.224-0.258-0.313
		c-0.128-0.08-0.296-0.149-0.504-0.21c-0.208-0.06-0.468-0.114-0.78-0.162c-0.552-0.071-1.022-0.17-1.41-0.294
		s-0.706-0.29-0.954-0.498c-0.256-0.2-0.441-0.449-0.558-0.745s-0.174-0.652-0.174-1.069c0-0.368,0.074-0.708,0.222-1.021
		c0.148-0.313,0.358-0.584,0.63-0.816c0.272-0.225,0.601-0.4,0.984-0.528s0.812-0.192,1.284-0.192c0.968,0,1.726,0.214,2.273,0.643
		s0.862,1.071,0.942,1.928h-1.788c-0.056-0.384-0.204-0.67-0.444-0.858c-0.239-0.188-0.567-0.282-0.983-0.282
		c-0.433,0-0.754,0.09-0.967,0.271c-0.212,0.18-0.317,0.414-0.317,0.702c0,0.152,0.021,0.286,0.065,0.402s0.126,0.214,0.246,0.294
		c0.112,0.088,0.272,0.164,0.48,0.229s0.476,0.12,0.804,0.168c0.521,0.064,0.976,0.154,1.368,0.271
		c0.392,0.115,0.72,0.27,0.984,0.462c0.264,0.199,0.462,0.452,0.594,0.756s0.198,0.676,0.198,1.116c0,0.384-0.076,0.742-0.229,1.074
		c-0.151,0.332-0.368,0.618-0.647,0.858c-0.28,0.248-0.625,0.443-1.032,0.588C725.952,421.357,725.496,421.43,724.992,421.43z"/>
</g>
<g>
	<path style="fill:#FFFFFF;" d="M787.433,359.45h2.808c0.752,0,1.41,0.098,1.975,0.294c0.563,0.196,1.033,0.474,1.409,0.834
		c0.368,0.368,0.646,0.812,0.834,1.331c0.188,0.521,0.282,1.101,0.282,1.74v0.096c0,0.64-0.094,1.224-0.282,1.752
		c-0.188,0.527-0.47,0.979-0.846,1.355s-0.846,0.666-1.41,0.87c-0.563,0.204-1.222,0.306-1.974,0.306h-2.796V359.45z
		 M790.168,366.513c0.872,0,1.515-0.233,1.927-0.701c0.411-0.467,0.618-1.147,0.618-2.042v-0.097c0-0.878-0.202-1.549-0.606-2.012
		c-0.404-0.464-1.058-0.695-1.962-0.695h-0.769v5.547H790.168z"/>
	<path style="fill:#FFFFFF;" d="M801.363,368.161c-0.672,0-1.28-0.11-1.824-0.33s-1.004-0.526-1.38-0.918
		c-0.384-0.385-0.681-0.845-0.888-1.381c-0.209-0.536-0.313-1.117-0.313-1.741v-0.096c0-0.641,0.11-1.229,0.33-1.765
		s0.53-0.997,0.93-1.381c0.393-0.384,0.856-0.685,1.393-0.9c0.535-0.216,1.124-0.324,1.764-0.324c0.648,0,1.242,0.104,1.782,0.313
		s1.006,0.5,1.397,0.876c0.385,0.384,0.687,0.841,0.906,1.368c0.22,0.529,0.33,1.117,0.33,1.766v0.096
		c0,0.641-0.106,1.23-0.318,1.771c-0.212,0.541-0.51,1.007-0.894,1.399c-0.384,0.392-0.849,0.698-1.393,0.918
		S802.035,368.161,801.363,368.161z M801.398,366.614c0.36,0,0.687-0.068,0.979-0.204s0.542-0.328,0.75-0.576
		c0.2-0.24,0.355-0.536,0.468-0.889c0.112-0.352,0.168-0.744,0.168-1.176v-0.097c0-0.416-0.054-0.796-0.162-1.14
		c-0.107-0.345-0.262-0.641-0.462-0.889c-0.208-0.248-0.46-0.44-0.756-0.576s-0.632-0.204-1.008-0.204s-0.71,0.066-1.002,0.198
		s-0.542,0.318-0.75,0.558c-0.208,0.248-0.366,0.547-0.475,0.895c-0.107,0.349-0.161,0.738-0.161,1.171v0.096
		c0,0.44,0.06,0.834,0.18,1.183c0.12,0.348,0.288,0.643,0.504,0.882c0.208,0.248,0.46,0.438,0.756,0.57
		S801.047,366.614,801.398,366.614z"/>
	<path style="fill:#FFFFFF;" d="M807.471,359.45h1.969l1.344,5.927l1.464-5.927h1.656l1.523,5.963l1.393-5.963h1.8l-2.088,8.578
		h-1.98l-1.548-5.927l-1.572,5.927h-1.872L807.471,359.45z"/>
	<path style="fill:#FFFFFF;" d="M821.043,359.45h2.256l3.264,5.65v-5.65h1.729v8.578h-1.944l-3.576-6.106v6.106h-1.728V359.45z"/>
	<path style="fill:#FFFFFF;" d="M833.077,360.966h-2.316v-1.516h6.589v1.516h-2.316v7.063h-1.956V360.966z"/>
	<path style="fill:#FFFFFF;" d="M843.411,368.161c-0.673,0-1.28-0.11-1.824-0.33s-1.004-0.526-1.38-0.918
		c-0.385-0.385-0.68-0.845-0.889-1.381c-0.207-0.536-0.312-1.117-0.312-1.741v-0.096c0-0.641,0.11-1.229,0.33-1.765
		s0.53-0.997,0.93-1.381c0.393-0.384,0.856-0.685,1.393-0.9s1.124-0.324,1.764-0.324c0.647,0,1.242,0.104,1.782,0.313
		s1.006,0.5,1.397,0.876c0.384,0.384,0.687,0.841,0.906,1.368c0.22,0.529,0.33,1.117,0.33,1.766v0.096
		c0,0.641-0.106,1.23-0.318,1.771c-0.212,0.541-0.51,1.007-0.894,1.399c-0.384,0.392-0.849,0.698-1.393,0.918
		S844.083,368.161,843.411,368.161z M843.447,366.614c0.359,0,0.686-0.068,0.978-0.204s0.542-0.328,0.75-0.576
		c0.2-0.24,0.356-0.536,0.468-0.889c0.112-0.352,0.168-0.744,0.168-1.176v-0.097c0-0.416-0.054-0.796-0.162-1.14
		c-0.107-0.345-0.262-0.641-0.462-0.889c-0.208-0.248-0.46-0.44-0.756-0.576s-0.632-0.204-1.008-0.204s-0.71,0.066-1.002,0.198
		s-0.542,0.318-0.75,0.558c-0.208,0.248-0.366,0.547-0.474,0.895c-0.108,0.349-0.162,0.738-0.162,1.171v0.096
		c0,0.44,0.06,0.834,0.18,1.183c0.12,0.348,0.288,0.643,0.504,0.882c0.208,0.248,0.46,0.438,0.756,0.57
		S843.095,366.614,843.447,366.614z"/>
	<path style="fill:#FFFFFF;" d="M849.518,359.45h1.969l1.344,5.927l1.464-5.927h1.656l1.523,5.963l1.393-5.963h1.8l-2.088,8.578
		h-1.98l-1.548-5.927l-1.572,5.927h-1.872L849.518,359.45z"/>
	<path style="fill:#FFFFFF;" d="M863.091,359.45h2.256l3.264,5.65v-5.65h1.729v8.578h-1.944l-3.576-6.106v6.106h-1.728V359.45z"/>
</g>
<g>
	<path style="fill:#FFFFFF;" d="M792.304,373.455h3.372c0.944,0,1.654,0.188,2.13,0.563c0.477,0.376,0.714,0.932,0.714,1.667v0.048
		c0,0.455-0.111,0.841-0.336,1.156c-0.224,0.316-0.576,0.542-1.056,0.678c0.56,0.112,0.986,0.332,1.278,0.66s0.438,0.78,0.438,1.356
		v0.048c0,0.793-0.252,1.391-0.756,1.795s-1.256,0.606-2.256,0.606h-3.528V373.455z M795.364,376.979
		c0.472,0,0.808-0.088,1.008-0.264s0.3-0.456,0.3-0.84v-0.048c0-0.36-0.105-0.624-0.317-0.792s-0.546-0.252-1.003-0.252H794.2v2.195
		H795.364z M795.532,380.689c0.479,0,0.832-0.104,1.056-0.313s0.336-0.508,0.336-0.899v-0.049c0-0.4-0.116-0.7-0.348-0.9
		c-0.232-0.199-0.612-0.3-1.141-0.3H794.2v2.461H795.532z"/>
	<path style="fill:#FFFFFF;" d="M801.472,373.455h3.072c0.504,0,0.96,0.052,1.368,0.156c0.408,0.104,0.756,0.264,1.044,0.479
		s0.51,0.487,0.666,0.815s0.234,0.712,0.234,1.151v0.048c0,0.328-0.044,0.616-0.133,0.864c-0.088,0.248-0.212,0.464-0.372,0.647
		c-0.159,0.184-0.348,0.34-0.563,0.468s-0.448,0.228-0.696,0.3l2.269,3.648h-2.064l-2.052-3.313h-0.84v3.313h-1.933V373.455z
		 M804.496,377.4c0.488,0,0.854-0.104,1.098-0.313s0.366-0.516,0.366-0.924v-0.048c0-0.44-0.126-0.746-0.378-0.919
		c-0.252-0.172-0.614-0.258-1.086-0.258h-1.092v2.461H804.496z"/>
	<path style="fill:#FFFFFF;" d="M814.623,382.166c-0.672,0-1.28-0.11-1.824-0.33s-1.004-0.526-1.38-0.919
		c-0.384-0.384-0.681-0.844-0.888-1.38c-0.209-0.536-0.313-1.116-0.313-1.741V377.7c0-0.641,0.11-1.229,0.33-1.765
		s0.53-0.997,0.93-1.381c0.393-0.384,0.856-0.685,1.393-0.9c0.535-0.216,1.124-0.324,1.764-0.324c0.648,0,1.242,0.104,1.782,0.313
		s1.006,0.5,1.397,0.876c0.385,0.385,0.687,0.841,0.906,1.369c0.22,0.527,0.33,1.116,0.33,1.765v0.096
		c0,0.641-0.106,1.23-0.318,1.771c-0.212,0.541-0.51,1.007-0.894,1.398c-0.384,0.393-0.849,0.699-1.393,0.919
		S815.295,382.166,814.623,382.166z M814.658,380.619c0.36,0,0.687-0.068,0.979-0.204s0.542-0.328,0.75-0.576
		c0.2-0.24,0.355-0.536,0.468-0.889c0.112-0.352,0.168-0.744,0.168-1.176v-0.097c0-0.416-0.054-0.796-0.162-1.14
		c-0.107-0.345-0.262-0.641-0.462-0.889c-0.208-0.248-0.46-0.44-0.756-0.576s-0.632-0.204-1.008-0.204s-0.71,0.066-1.002,0.198
		s-0.542,0.318-0.75,0.558c-0.208,0.249-0.366,0.547-0.475,0.895c-0.107,0.349-0.161,0.738-0.161,1.171v0.096
		c0,0.44,0.06,0.834,0.18,1.183c0.12,0.348,0.288,0.642,0.504,0.882c0.208,0.248,0.46,0.438,0.756,0.57
		C813.982,380.554,814.307,380.619,814.658,380.619z"/>
	<path style="fill:#FFFFFF;" d="M825.663,382.166c-0.673,0-1.28-0.11-1.824-0.33s-1.004-0.526-1.38-0.919
		c-0.385-0.384-0.68-0.844-0.889-1.38c-0.207-0.536-0.312-1.116-0.312-1.741V377.7c0-0.641,0.11-1.229,0.33-1.765
		s0.53-0.997,0.93-1.381c0.393-0.384,0.856-0.685,1.393-0.9s1.124-0.324,1.764-0.324c0.647,0,1.242,0.104,1.782,0.313
		s1.006,0.5,1.397,0.876c0.384,0.385,0.687,0.841,0.906,1.369c0.22,0.527,0.33,1.116,0.33,1.765v0.096
		c0,0.641-0.106,1.23-0.318,1.771c-0.212,0.541-0.51,1.007-0.894,1.398c-0.384,0.393-0.849,0.699-1.393,0.919
		S826.335,382.166,825.663,382.166z M825.699,380.619c0.359,0,0.686-0.068,0.978-0.204s0.542-0.328,0.75-0.576
		c0.2-0.24,0.356-0.536,0.468-0.889c0.112-0.352,0.168-0.744,0.168-1.176v-0.097c0-0.416-0.054-0.796-0.162-1.14
		c-0.107-0.345-0.262-0.641-0.462-0.889c-0.208-0.248-0.46-0.44-0.756-0.576s-0.632-0.204-1.008-0.204s-0.71,0.066-1.002,0.198
		s-0.542,0.318-0.75,0.558c-0.208,0.249-0.366,0.547-0.474,0.895c-0.108,0.349-0.162,0.738-0.162,1.171v0.096
		c0,0.44,0.06,0.834,0.18,1.183c0.12,0.348,0.288,0.642,0.504,0.882c0.208,0.248,0.46,0.438,0.756,0.57
		C825.022,380.554,825.347,380.619,825.699,380.619z"/>
	<path style="fill:#FFFFFF;" d="M832.753,373.455h1.944v3.693l3-3.709h2.064l-3.396,4.069l3.564,4.524h-2.269l-2.964-3.853v3.853
		h-1.944V373.455z"/>
	<path style="fill:#FFFFFF;" d="M842.247,373.455h1.944v7.055h3.492v1.523h-5.437V373.455z"/>
	<path style="fill:#FFFFFF;" d="M851.26,378.338l-2.832-4.883h2.136l1.739,3.287l1.704-3.287h1.885l-2.677,4.883v3.695h-1.955
		V378.338z"/>
	<path style="fill:#FFFFFF;" d="M858.23,373.455h2.256l3.264,5.65v-5.65h1.729v8.578h-1.944l-3.576-6.106v6.106h-1.728V373.455z"/>
</g>
<path style="fill:none;stroke:#FFFFFF;stroke-width:2.371;stroke-linecap:round;" d="M467.92,104.745
	c7.702,0,13.537-8.34,13.537-8.34s3.967,8.34,10.269,8.34c6.301,0,11.203-8.992,11.203-8.992s5.601,8.982,11.902,8.982
	c6.302,0,11.203-8.33,11.203-8.33s5.602,8.34,10.503,8.34"/>
<path style="fill:none;stroke:#FFFFFF;stroke-width:2.371;stroke-linecap:round;" d="M305.414,33.481
	c7.702,0,13.537-8.34,13.537-8.34s3.967,8.34,10.269,8.34c6.301,0,11.203-8.992,11.203-8.992s5.601,8.982,11.902,8.982
	c6.302,0,11.203-8.33,11.203-8.33s5.601,8.34,10.503,8.34"/>
<path style="fill:none;stroke:#FFFFFF;stroke-width:2.371;stroke-linecap:round;" d="M81.427,520.481
	c7.702,0,13.537-8.34,13.537-8.34s3.967,8.34,10.269,8.34c6.301,0,11.202-8.992,11.202-8.992s5.602,8.981,11.903,8.981
	c6.302,0,11.203-8.329,11.203-8.329s5.601,8.34,10.503,8.34"/>
<path style="fill:none;stroke:#FFFFFF;stroke-width:2.371;stroke-linecap:round;" d="M413.414,268.481
	c7.702,0,13.537-8.34,13.537-8.34s3.967,8.34,10.269,8.34c6.301,0,11.203-8.992,11.203-8.992s5.601,8.981,11.902,8.981
	c6.302,0,11.203-8.329,11.203-8.329s5.601,8.34,10.503,8.34"/>
<path style="fill:none;stroke:#FFFFFF;stroke-width:2.371;stroke-linecap:round;" d="M52.414,71.481
	c7.702,0,13.537-8.34,13.537-8.34s3.967,8.34,10.269,8.34c6.301,0,11.202-8.992,11.202-8.992s5.602,8.981,11.903,8.981
	c6.302,0,11.203-8.329,11.203-8.329s5.601,8.34,10.503,8.34"/>
<path style="fill:none;stroke:#FFFFFF;stroke-width:2.371;stroke-linecap:round;" d="M13.414,313.009
	c7.702,0,13.537-8.34,13.537-8.34s3.967,8.34,10.269,8.34c6.301,0,11.202-8.992,11.202-8.992s5.602,8.981,11.903,8.981
	c6.302,0,11.203-8.329,11.203-8.329s5.601,8.34,10.503,8.34"/>
<path style="fill:none;stroke:#FFFFFF;stroke-width:2.371;stroke-linecap:round;" d="M485.427,425.481
	c7.702,0,13.537-8.34,13.537-8.34s3.967,8.34,10.269,8.34c6.301,0,11.203-8.992,11.203-8.992s5.601,8.981,11.902,8.981
	c6.302,0,11.203-8.329,11.203-8.329s5.602,8.34,10.503,8.34"/>
<path style="fill:none;stroke:#FFFFFF;stroke-width:2.371;stroke-linecap:round;" d="M385.093,569.009
	c7.702,0,13.537-8.34,13.537-8.34s3.967,8.34,10.269,8.34c6.301,0,11.203-8.992,11.203-8.992s5.601,8.981,11.902,8.981
	c6.302,0,11.203-8.329,11.203-8.329s5.602,8.34,10.503,8.34"/>
</svg>
