<?xml version="1.0" encoding="UTF-8"?>
<svg width="38px" height="14px" viewBox="0 0 38 14" version="1.1" xmlns="http://www.w3.org/2000/svg" xmlns:xlink="http://www.w3.org/1999/xlink">
    <!-- Generator: Sketch 51.2 (57519) - http://www.bohemiancoding.com/sketch -->
    <title>Fish - Red</title>
    <desc>Created with Sketch.</desc>
    <defs></defs>
    <g id="Fish---Red" stroke="none" stroke-width="1" fill="none" fill-rule="evenodd">
        <path d="M0,1.91 C0,1.91 4.66689993,0.868 6.91012696,3.228 C8.07447766,4.456 9.11156653,5.16 10.8989303,5.16 C12.6862941,5.16 16.5972208,3.274 16.5972208,2.56 C16.5972208,1.846 14.8155553,1.274 14.8155553,1.274 C14.8155553,1.274 15.8260522,0 19.8851345,0 C24.5710287,0 25.7372788,2.25 25.7372788,2.25 C25.7372788,2.25 30.1838448,2.334 32.8183545,3.092 C36.7691692,4.228 38,6.98 38,6.98 C38,6.98 36.3816855,9.162 34.3910827,9.98 C32.5315405,10.748 30.1192642,10.8 30.1192642,10.8 C30.1192642,10.8 28.6946916,13.254 26.7819654,14 C26.0601819,12.14 24.6925922,11.8 24.6925922,11.8 C24.6925922,11.8 19.1443567,12.186 16.3578926,10.958 C13.5714286,9.73 11.4440668,8.026 10.1258622,8.026 C8.8076577,8.026 8.6063181,9.684 6.39158253,10.594 C4.17684695,11.504 1.98680396,10 1.98680396,10 C1.98680396,10 5.05248425,9 5.05248425,7.526 C5.05248425,5.274 1.48915325,2.524 0,1.91 Z" id="Shape" fill="#C94B35" fill-rule="nonzero"></path>
    </g>
</svg>