<?xml version="1.0" encoding="UTF-8"?>
<svg width="14px" height="14px" viewBox="0 0 14 14" version="1.1" xmlns="http://www.w3.org/2000/svg" xmlns:xlink="http://www.w3.org/1999/xlink">
    <!-- Generator: Sketch 51.2 (57519) - http://www.bohemiancoding.com/sketch -->
    <title>Star - Half</title>
    <desc>Created with Sketch.</desc>
    <defs></defs>
    <g id="Star---Half" stroke="none" stroke-width="1" fill="none" fill-rule="evenodd">
        <path d="M10.2658228,10.1578947 L10.721519,13 L8.36708861,11.6578947 C7.98734177,11.4210526 7.53164557,11.3421053 7,11.3421053 C6.5443038,11.3421053 6.01265823,11.4210526 5.63291139,11.6578947 L3.20253165,13 L3.65822785,10.1578947 C3.88607595,9.28947368 3.50632911,8.18421053 2.89873418,7.55263158 L1,5.57894737 L3.65822785,5.18421053 C4.49367089,5.02631579 5.40506329,4.39473684 5.78481013,3.52631579 L7,1 L8.21518987,3.52631579 C8.59493671,4.31578947 9.50632911,5.02631579 10.3417722,5.18421053 L13,5.57894737 L11.1012658,7.55263158 C10.4936709,8.10526316 10.1139241,9.28947368 10.2658228,10.1578947 M13.4452174,4.97777778 L10.4078161,4.51111111 C9.81515244,4.43333333 9.14840581,3.88888889 8.85207398,3.34444444 L7.44449775,0.388888889 C7.3704148,0.155555556 7.14816592,0 7,0 C6.85183408,0 6.6295852,0.155555556 6.55550225,0.388888889 L5.14792602,3.34444444 C4.92567715,3.88888889 4.18484756,4.43333333 3.59218388,4.51111111 L0.554782561,4.97777778 C-0.0378811118,5.05555556 -0.18604703,5.52222222 0.258450725,5.91111111 L2.4809395,8.16666667 C2.92543725,8.63333333 3.14768613,9.48888889 3.07360317,10.0333333 L2.55502246,13.2222222 C2.4809395,13.7666667 2.62910541,14 2.92543725,14 C3.07360317,14 3.14768613,13.9222222 3.29585205,13.8444444 L6.03692153,12.3666667 C6.33325337,12.2111111 6.6295852,12.1333333 7,12.1333333 C7.3704148,12.1333333 7.66674663,12.2111111 7.96307847,12.3666667 L10.704148,13.8444444 C10.8523139,13.9222222 11.0004798,14 11.0745627,14 C11.3708946,14 11.5190605,13.7666667 11.4449775,13.3 L10.9263968,10.1111111 C10.8523139,9.48888889 11.0745627,8.63333333 11.5190605,8.24444444 L13.7415493,5.98888889 C14.186047,5.52222222 14.0378811,5.05555556 13.4452174,4.97777778" id="star-empty-copy" fill="#4FA157"></path>
        <path d="M6.95482831,0.000108534635 C6.95482831,0.000108534635 6.62717623,0.141311107 6.48141929,0.410582305 L5.14792602,3.38241613 C4.92567715,3.92985921 4.18484756,4.47730228 3.59218388,4.55550843 L0.554782561,5.02474535 C-0.0378811118,5.10295151 -0.18604703,5.57218843 0.258450725,5.96321919 L2.4809395,8.23119764 C2.92543725,8.70043456 3.14768613,9.56070225 3.07360317,10.1081453 L2.55502246,13.3145976 C2.4809395,13.9402468 2.77727133,14.1748653 3.29585205,13.8620407 L6.03692153,12.3761238 C6.29354642,12.2213194 6.98914784,12.1415301 6.98914784,12.1415301 L6.95482831,0.000108534635 Z" id="star-filled-copy-2" fill="#4FA157"></path>
    </g>
</svg>