<?xml version="1.0" encoding="UTF-8"?>
<svg width="14px" height="14px" viewBox="0 0 14 14" version="1.1" xmlns="http://www.w3.org/2000/svg" xmlns:xlink="http://www.w3.org/1999/xlink">
    <!-- Generator: Sketch 51.2 (57519) - http://www.bohemiancoding.com/sketch -->
    <title>Star - Filled</title>
    <desc>Created with Sketch.</desc>
    <defs></defs>
    <g id="Star---Filled" stroke="none" stroke-width="1" fill="none" fill-rule="evenodd">
        <path d="M10.4078161,4.55550843 C9.81515244,4.47730228 9.14840581,3.92985921 8.85207398,3.38241613 L7.44449775,0.410582305 C7.14816592,-0.136860768 6.77775112,-0.136860768 6.48141929,0.410582305 L5.14792602,3.38241613 C4.92567715,3.92985921 4.18484756,4.47730228 3.59218388,4.55550843 L0.554782561,5.02474535 C-0.0378811118,5.10295151 -0.18604703,5.57218843 0.258450725,5.96321919 L2.4809395,8.23119764 C2.92543725,8.70043456 3.14768613,9.56070225 3.07360317,10.1081453 L2.55502246,13.3145976 C2.4809395,13.9402468 2.77727133,14.1748653 3.29585205,13.8620407 L6.03692153,12.3761238 C6.29354642,12.2213194 6.64088089,12.1431215 6.98914784,12.1415301 C7.34464943,12.1399057 7.70112264,12.2181036 7.96307847,12.3761238 L10.704148,13.8620407 C11.2227287,14.1748653 11.5931435,13.8620407 11.4449775,13.3145976 L10.9263968,10.1863515 C10.8523139,9.56070225 11.0745627,8.70043456 11.5190605,8.30940379 L13.7415493,6.04142535 C14.186047,5.57218843 14.0378811,5.10295151 13.4452174,5.02474535 L10.4078161,4.55550843 Z" id="star-filled-copy" fill="#4FA157"></path>
    </g>
</svg>